# MagicaVoxel @ Ephtracy

# group
o 

# material
mtllib BossBullet.mtl
usemtl palette

# normals
vn -1 0 0
vn 1 0 0
vn 0 0 1
vn 0 0 -1
vn 0 -1 0
vn 0 1 0

# texcoords
vt 0.0175781 0.5
vt 0.0917969 0.5
vt 0.162109 0.5
vt 0.841797 0.5
vt 0.857422 0.5
vt 0.994141 0.5

# verts
v 0.6 3.4 0
v 0.6 3.4 -0.1
v 0.6 3.5 0
v 0.6 3.5 -0.1
v 0.7 3.3 0
v 0.7 3.3 -0.1
v 0.7 3.4 0
v 0.7 3.4 -0.1
v 0.7 3.5 0
v 0.7 3.5 -0.1
v 0.7 3.6 0
v 0.7 3.6 -0.1
v 0.8 3.2 0
v 0.8 3.2 -0.1
v 0.8 3.3 0
v 0.8 3.3 -0.1
v 0.8 3.6 0
v 0.8 3.6 -0.1
v 0.8 3.7 0
v 0.8 3.7 -0.1
v 0.9 3.1 0
v 0.9 3.1 -0.1
v 0.9 3.2 0
v 0.9 3.2 -0.1
v 0.9 3.7 0
v 0.9 3.7 -0.1
v 0.9 3.8 0
v 0.9 3.8 -0.1
v 1 3 0
v 1 3 -0.1
v 1 3.1 0
v 1 3.1 -0.1
v 1 3.8 0
v 1 3.8 -0.1
v 1 3.9 0
v 1 3.9 -0.1
v 1.1 3 0
v 1.1 3 -0.1
v 1.1 3.1 0
v 1.1 3.1 -0.1
v 1.1 3.8 0
v 1.1 3.8 -0.1
v 1.1 3.9 0
v 1.1 3.9 -0.1
v 1.7 3.1 0
v 1.7 3.1 -0.1
v 1.7 3.2 0
v 1.7 3.2 -0.1
v 1.7 3.7 0
v 1.7 3.7 -0.1
v 1.7 3.8 0
v 1.7 3.8 -0.1
v 2.1 3.6 0
v 2.1 3.6 -0.1
v 2.1 3.7 0
v 2.1 3.7 -0.1
v 2.2 3.2 0
v 2.2 3.2 -0.1
v 2.2 3.3 0
v 2.2 3.3 -0.1
v 2.3 3.3 0
v 2.3 3.3 -0.1
v 2.3 3.4 0
v 2.3 3.4 -0.1
v 2.3 3.5 0
v 2.3 3.5 -0.1
v 2.3 3.6 0
v 2.3 3.6 -0.1
v 2.4 3.4 0
v 2.4 3.4 -0.1
v 2.4 3.5 0
v 2.4 3.5 -0.1
v 0.6 3.4 0
v 0.6 3.5 0
v 0.7 3.3 0
v 0.7 3.4 0
v 0.7 3.5 0
v 0.7 3.6 0
v 0.8 3.2 0
v 0.8 3.3 0
v 0.8 3.4 0
v 0.8 3.5 0
v 0.8 3.6 0
v 0.8 3.7 0
v 0.9 3.1 0
v 0.9 3.2 0
v 0.9 3.3 0
v 0.9 3.6 0
v 0.9 3.7 0
v 0.9 3.8 0
v 1 3 0
v 1 3.1 0
v 1 3.2 0
v 1 3.7 0
v 1 3.8 0
v 1 3.9 0
v 1.1 3 0
v 1.1 3.1 0
v 1.1 3.2 0
v 1.1 3.3 0
v 1.1 3.4 0
v 1.1 3.5 0
v 1.1 3.6 0
v 1.1 3.7 0
v 1.1 3.8 0
v 1.1 3.9 0
v 1.6 3.4 0
v 1.6 3.5 0
v 1.7 3.1 0
v 1.7 3.2 0
v 1.7 3.3 0
v 1.7 3.6 0
v 1.7 3.7 0
v 1.7 3.8 0
v 1.8 3.2 0
v 1.8 3.3 0
v 1.8 3.6 0
v 1.8 3.7 0
v 1.9 3.3 0
v 1.9 3.4 0
v 1.9 3.5 0
v 1.9 3.6 0
v 2.1 3.4 0
v 2.1 3.5 0
v 2.1 3.6 0
v 2.1 3.7 0
v 2.2 3.2 0
v 2.2 3.3 0
v 2.2 3.4 0
v 2.3 3.3 0
v 2.3 3.4 0
v 2.3 3.5 0
v 2.3 3.6 0
v 2.4 3.4 0
v 2.4 3.5 0
v 0.6 3.4 -0.1
v 0.6 3.5 -0.1
v 0.7 3.3 -0.1
v 0.7 3.4 -0.1
v 0.7 3.5 -0.1
v 0.7 3.6 -0.1
v 0.8 3.2 -0.1
v 0.8 3.3 -0.1
v 0.8 3.4 -0.1
v 0.8 3.5 -0.1
v 0.8 3.6 -0.1
v 0.8 3.7 -0.1
v 0.9 3.1 -0.1
v 0.9 3.2 -0.1
v 0.9 3.3 -0.1
v 0.9 3.6 -0.1
v 0.9 3.7 -0.1
v 0.9 3.8 -0.1
v 1 3 -0.1
v 1 3.1 -0.1
v 1 3.2 -0.1
v 1 3.7 -0.1
v 1 3.8 -0.1
v 1 3.9 -0.1
v 1.1 3 -0.1
v 1.1 3.1 -0.1
v 1.1 3.2 -0.1
v 1.1 3.3 -0.1
v 1.1 3.4 -0.1
v 1.1 3.5 -0.1
v 1.1 3.6 -0.1
v 1.1 3.7 -0.1
v 1.1 3.8 -0.1
v 1.1 3.9 -0.1
v 1.6 3.4 -0.1
v 1.6 3.5 -0.1
v 1.7 3.1 -0.1
v 1.7 3.2 -0.1
v 1.7 3.3 -0.1
v 1.7 3.6 -0.1
v 1.7 3.7 -0.1
v 1.7 3.8 -0.1
v 1.8 3.2 -0.1
v 1.8 3.3 -0.1
v 1.8 3.6 -0.1
v 1.8 3.7 -0.1
v 1.9 3.3 -0.1
v 1.9 3.4 -0.1
v 1.9 3.5 -0.1
v 1.9 3.6 -0.1
v 2.1 3.4 -0.1
v 2.1 3.5 -0.1
v 2.1 3.6 -0.1
v 2.1 3.7 -0.1
v 2.2 3.2 -0.1
v 2.2 3.3 -0.1
v 2.2 3.4 -0.1
v 2.3 3.3 -0.1
v 2.3 3.4 -0.1
v 2.3 3.5 -0.1
v 2.3 3.6 -0.1
v 2.4 3.4 -0.1
v 2.4 3.5 -0.1
v 1 3 0
v 1.1 3 0
v 1 3 -0.1
v 1.1 3 -0.1
v 0.9 3.1 0
v 1 3.1 0
v 1.1 3.1 0
v 1.7 3.1 0
v 0.9 3.1 -0.1
v 1 3.1 -0.1
v 1.1 3.1 -0.1
v 1.7 3.1 -0.1
v 0.8 3.2 0
v 0.9 3.2 0
v 1.7 3.2 0
v 1.8 3.2 0
v 2.2 3.2 0
v 0.8 3.2 -0.1
v 0.9 3.2 -0.1
v 1.7 3.2 -0.1
v 1.8 3.2 -0.1
v 2.2 3.2 -0.1
v 0.7 3.3 0
v 0.8 3.3 0
v 2.2 3.3 0
v 2.3 3.3 0
v 0.7 3.3 -0.1
v 0.8 3.3 -0.1
v 2.2 3.3 -0.1
v 2.3 3.3 -0.1
v 0.6 3.4 0
v 0.7 3.4 0
v 2.3 3.4 0
v 2.4 3.4 0
v 0.6 3.4 -0.1
v 0.7 3.4 -0.1
v 2.3 3.4 -0.1
v 2.4 3.4 -0.1
v 0.6 3.5 0
v 0.7 3.5 0
v 2.3 3.5 0
v 2.4 3.5 0
v 0.6 3.5 -0.1
v 0.7 3.5 -0.1
v 2.3 3.5 -0.1
v 2.4 3.5 -0.1
v 0.7 3.6 0
v 0.8 3.6 0
v 2.1 3.6 0
v 2.3 3.6 0
v 0.7 3.6 -0.1
v 0.8 3.6 -0.1
v 2.1 3.6 -0.1
v 2.3 3.6 -0.1
v 0.8 3.7 0
v 0.9 3.7 0
v 1.7 3.7 0
v 1.8 3.7 0
v 2.1 3.7 0
v 0.8 3.7 -0.1
v 0.9 3.7 -0.1
v 1.7 3.7 -0.1
v 1.8 3.7 -0.1
v 2.1 3.7 -0.1
v 0.9 3.8 0
v 1 3.8 0
v 1.1 3.8 0
v 1.7 3.8 0
v 0.9 3.8 -0.1
v 1 3.8 -0.1
v 1.1 3.8 -0.1
v 1.7 3.8 -0.1
v 1 3.9 0
v 1.1 3.9 0
v 1 3.9 -0.1
v 1.1 3.9 -0.1

# faces
f 3/6/1 2/6/1 1/6/1
f 4/6/1 2/6/1 3/6/1
f 7/6/1 6/6/1 5/6/1
f 8/6/1 6/6/1 7/6/1
f 11/6/1 10/6/1 9/6/1
f 12/6/1 10/6/1 11/6/1
f 15/6/1 14/6/1 13/6/1
f 16/6/1 14/6/1 15/6/1
f 19/6/1 18/6/1 17/6/1
f 20/6/1 18/6/1 19/6/1
f 23/6/1 22/6/1 21/6/1
f 24/6/1 22/6/1 23/6/1
f 27/6/1 26/6/1 25/6/1
f 28/6/1 26/6/1 27/6/1
f 31/6/1 30/6/1 29/6/1
f 32/6/1 30/6/1 31/6/1
f 35/6/1 34/6/1 33/6/1
f 36/6/1 34/6/1 35/6/1
f 37/6/2 38/6/2 39/6/2
f 39/6/2 38/6/2 40/6/2
f 41/6/2 42/6/2 43/6/2
f 43/6/2 42/6/2 44/6/2
f 45/6/2 46/6/2 47/6/2
f 47/6/2 46/6/2 48/6/2
f 49/6/2 50/6/2 51/6/2
f 51/6/2 50/6/2 52/6/2
f 53/4/2 54/4/2 55/4/2
f 55/4/2 54/4/2 56/4/2
f 57/4/2 58/4/2 59/4/2
f 59/4/2 58/4/2 60/4/2
f 61/4/2 62/4/2 63/4/2
f 63/4/2 62/4/2 64/4/2
f 65/4/2 66/4/2 67/4/2
f 67/4/2 66/4/2 68/4/2
f 69/4/2 70/4/2 71/4/2
f 71/4/2 70/4/2 72/4/2
f 76/6/3 74/6/3 73/6/3
f 77/6/3 74/6/3 76/6/3
f 80/6/3 76/6/3 75/6/3
f 81/5/3 77/5/3 76/5/3
f 81/6/3 76/6/3 80/6/3
f 82/6/3 78/6/3 77/6/3
f 82/5/3 77/5/3 81/5/3
f 83/6/3 78/6/3 82/6/3
f 86/6/3 80/6/3 79/6/3
f 87/5/3 81/5/3 80/5/3
f 87/5/3 82/5/3 81/5/3
f 87/6/3 80/6/3 86/6/3
f 87/5/3 83/5/3 82/5/3
f 88/6/3 84/6/3 83/6/3
f 88/5/3 83/5/3 87/5/3
f 89/6/3 84/6/3 88/6/3
f 92/6/3 86/6/3 85/6/3
f 93/5/3 87/5/3 86/5/3
f 93/5/3 88/5/3 87/5/3
f 93/6/3 86/6/3 92/6/3
f 93/5/3 89/5/3 88/5/3
f 94/6/3 90/6/3 89/6/3
f 94/5/3 89/5/3 93/5/3
f 95/6/3 90/6/3 94/6/3
f 97/6/3 92/6/3 91/6/3
f 98/5/3 93/5/3 92/5/3
f 98/6/3 92/6/3 97/6/3
f 98/5/3 94/5/3 93/5/3
f 98/5/3 95/5/3 94/5/3
f 99/5/3 95/5/3 98/5/3
f 100/5/3 95/5/3 99/5/3
f 101/5/3 95/5/3 100/5/3
f 102/5/3 95/5/3 101/5/3
f 103/5/3 95/5/3 102/5/3
f 104/5/3 95/5/3 103/5/3
f 105/6/3 96/6/3 95/6/3
f 105/5/3 95/5/3 104/5/3
f 106/6/3 96/6/3 105/6/3
f 107/2/3 101/2/3 100/2/3
f 107/5/3 102/5/3 101/5/3
f 108/2/3 103/2/3 102/2/3
f 108/5/3 102/5/3 107/5/3
f 109/6/3 99/6/3 98/6/3
f 110/1/3 100/1/3 99/1/3
f 110/6/3 99/6/3 109/6/3
f 111/2/3 107/2/3 100/2/3
f 111/1/3 100/1/3 110/1/3
f 111/2/3 108/2/3 107/2/3
f 112/1/3 104/1/3 103/1/3
f 112/2/3 108/2/3 111/2/3
f 112/2/3 103/2/3 108/2/3
f 113/6/3 105/6/3 104/6/3
f 113/1/3 104/1/3 112/1/3
f 114/6/3 105/6/3 113/6/3
f 115/6/3 111/6/3 110/6/3
f 116/1/3 112/1/3 111/1/3
f 116/6/3 111/6/3 115/6/3
f 117/6/3 113/6/3 112/6/3
f 117/1/3 112/1/3 116/1/3
f 118/6/3 113/6/3 117/6/3
f 119/4/3 116/4/3 115/4/3
f 119/6/3 117/6/3 116/6/3
f 120/6/3 117/6/3 119/6/3
f 121/6/3 117/6/3 120/6/3
f 122/4/3 118/4/3 117/4/3
f 122/6/3 117/6/3 121/6/3
f 123/3/3 121/3/3 120/3/3
f 123/2/3 120/2/3 119/2/3
f 124/2/3 122/2/3 121/2/3
f 124/3/3 121/3/3 123/3/3
f 125/4/3 118/4/3 122/4/3
f 125/2/3 122/2/3 124/2/3
f 126/4/3 118/4/3 125/4/3
f 127/4/3 119/4/3 115/4/3
f 128/2/3 124/2/3 123/2/3
f 128/4/3 119/4/3 127/4/3
f 128/2/3 123/2/3 119/2/3
f 129/2/3 124/2/3 128/2/3
f 130/4/3 129/4/3 128/4/3
f 131/2/3 124/2/3 129/2/3
f 131/4/3 129/4/3 130/4/3
f 132/4/3 125/4/3 124/4/3
f 132/2/3 124/2/3 131/2/3
f 133/4/3 125/4/3 132/4/3
f 134/4/3 132/4/3 131/4/3
f 135/4/3 132/4/3 134/4/3
f 136/6/4 137/6/4 139/6/4
f 139/6/4 137/6/4 140/6/4
f 138/6/4 139/6/4 143/6/4
f 139/5/4 140/5/4 144/5/4
f 143/6/4 139/6/4 144/6/4
f 140/6/4 141/6/4 145/6/4
f 144/5/4 140/5/4 145/5/4
f 145/6/4 141/6/4 146/6/4
f 142/6/4 143/6/4 149/6/4
f 143/5/4 144/5/4 150/5/4
f 144/5/4 145/5/4 150/5/4
f 149/6/4 143/6/4 150/6/4
f 145/5/4 146/5/4 150/5/4
f 146/6/4 147/6/4 151/6/4
f 150/5/4 146/5/4 151/5/4
f 151/6/4 147/6/4 152/6/4
f 148/6/4 149/6/4 155/6/4
f 149/5/4 150/5/4 156/5/4
f 150/5/4 151/5/4 156/5/4
f 155/6/4 149/6/4 156/6/4
f 151/5/4 152/5/4 156/5/4
f 152/6/4 153/6/4 157/6/4
f 156/5/4 152/5/4 157/5/4
f 157/6/4 153/6/4 158/6/4
f 154/6/4 155/6/4 160/6/4
f 155/5/4 156/5/4 161/5/4
f 160/6/4 155/6/4 161/6/4
f 156/5/4 157/5/4 161/5/4
f 157/5/4 158/5/4 161/5/4
f 161/5/4 158/5/4 162/5/4
f 162/5/4 158/5/4 163/5/4
f 163/5/4 158/5/4 164/5/4
f 164/5/4 158/5/4 165/5/4
f 165/5/4 158/5/4 166/5/4
f 166/5/4 158/5/4 167/5/4
f 158/6/4 159/6/4 168/6/4
f 167/5/4 158/5/4 168/5/4
f 168/6/4 159/6/4 169/6/4
f 163/2/4 164/2/4 170/2/4
f 164/5/4 165/5/4 170/5/4
f 165/2/4 166/2/4 171/2/4
f 170/5/4 165/5/4 171/5/4
f 161/6/4 162/6/4 172/6/4
f 162/1/4 163/1/4 173/1/4
f 172/6/4 162/6/4 173/6/4
f 163/2/4 170/2/4 174/2/4
f 173/1/4 163/1/4 174/1/4
f 170/2/4 171/2/4 174/2/4
f 166/1/4 167/1/4 175/1/4
f 174/2/4 171/2/4 175/2/4
f 171/2/4 166/2/4 175/2/4
f 167/6/4 168/6/4 176/6/4
f 175/1/4 167/1/4 176/1/4
f 176/6/4 168/6/4 177/6/4
f 173/6/4 174/6/4 178/6/4
f 174/1/4 175/1/4 179/1/4
f 178/6/4 174/6/4 179/6/4
f 175/6/4 176/6/4 180/6/4
f 179/1/4 175/1/4 180/1/4
f 180/6/4 176/6/4 181/6/4
f 178/4/4 179/4/4 182/4/4
f 179/6/4 180/6/4 182/6/4
f 182/6/4 180/6/4 183/6/4
f 183/6/4 180/6/4 184/6/4
f 180/4/4 181/4/4 185/4/4
f 184/6/4 180/6/4 185/6/4
f 183/3/4 184/3/4 186/3/4
f 182/2/4 183/2/4 186/2/4
f 184/2/4 185/2/4 187/2/4
f 186/3/4 184/3/4 187/3/4
f 185/4/4 181/4/4 188/4/4
f 187/2/4 185/2/4 188/2/4
f 188/4/4 181/4/4 189/4/4
f 178/4/4 182/4/4 190/4/4
f 186/2/4 187/2/4 191/2/4
f 190/4/4 182/4/4 191/4/4
f 182/2/4 186/2/4 191/2/4
f 191/2/4 187/2/4 192/2/4
f 191/4/4 192/4/4 193/4/4
f 192/2/4 187/2/4 194/2/4
f 193/4/4 192/4/4 194/4/4
f 187/4/4 188/4/4 195/4/4
f 194/2/4 187/2/4 195/2/4
f 195/4/4 188/4/4 196/4/4
f 194/4/4 195/4/4 197/4/4
f 197/4/4 195/4/4 198/4/4
f 201/6/5 200/6/5 199/6/5
f 202/6/5 200/6/5 201/6/5
f 207/6/5 204/6/5 203/6/5
f 208/6/5 204/6/5 207/6/5
f 209/6/5 206/6/5 205/6/5
f 210/6/5 206/6/5 209/6/5
f 216/6/5 212/6/5 211/6/5
f 217/6/5 212/6/5 216/6/5
f 218/6/5 214/6/5 213/6/5
f 219/4/5 215/4/5 214/4/5
f 219/6/5 214/6/5 218/6/5
f 220/4/5 215/4/5 219/4/5
f 225/6/5 222/6/5 221/6/5
f 226/6/5 222/6/5 225/6/5
f 227/4/5 224/4/5 223/4/5
f 228/4/5 224/4/5 227/4/5
f 233/6/5 230/6/5 229/6/5
f 234/6/5 230/6/5 233/6/5
f 235/4/5 232/4/5 231/4/5
f 236/4/5 232/4/5 235/4/5
f 237/6/6 238/6/6 241/6/6
f 241/6/6 238/6/6 242/6/6
f 239/4/6 240/4/6 243/4/6
f 243/4/6 240/4/6 244/4/6
f 245/6/6 246/6/6 249/6/6
f 249/6/6 246/6/6 250/6/6
f 247/4/6 248/4/6 251/4/6
f 251/4/6 248/4/6 252/4/6
f 253/6/6 254/6/6 258/6/6
f 258/6/6 254/6/6 259/6/6
f 255/6/6 256/6/6 260/6/6
f 256/4/6 257/4/6 261/4/6
f 260/6/6 256/6/6 261/6/6
f 261/4/6 257/4/6 262/4/6
f 263/6/6 264/6/6 267/6/6
f 267/6/6 264/6/6 268/6/6
f 265/6/6 266/6/6 269/6/6
f 269/6/6 266/6/6 270/6/6
f 271/6/6 272/6/6 273/6/6
f 273/6/6 272/6/6 274/6/6
