# MagicaVoxel @ Ephtracy

# group
o 

# material
mtllib ChaseBotActive2D.mtl
usemtl palette

# normals
vn -1 0 0
vn 1 0 0
vn 0 0 1
vn 0 0 -1
vn 0 -1 0
vn 0 1 0

# texcoords
vt 0.841797 0.5
vt 0.958984 0.5
vt 0.962891 0.5
vt 0.966797 0.5
vt 0.974609 0.5
vt 0.982422 0.5
vt 0.986328 0.5
vt 0.994141 0.5

# verts
v 1.7 1 -0.9
v 1.7 1 -3.3
v 1.7 1.1 -1
v 1.7 1.1 -1.6
v 1.7 1.1 -1.7
v 1.7 1.1 -3.2
v 1.7 1.2 -1
v 1.7 1.2 -1.6
v 1.7 1.2 -1.7
v 1.7 1.2 -1.8
v 1.7 1.3 -1
v 1.7 1.3 -1.7
v 1.7 1.3 -1.8
v 1.7 1.3 -1.9
v 1.7 1.3 -2.1
v 1.7 1.3 -3.1
v 1.7 1.4 -1
v 1.7 1.4 -1.8
v 1.7 1.4 -2.2
v 1.7 1.4 -3
v 1.7 1.5 -1
v 1.7 1.5 -1.8
v 1.7 1.6 -1
v 1.7 1.6 -1.8
v 1.7 1.7 -1
v 1.7 1.7 -1.7
v 1.7 1.7 -1.8
v 1.7 1.7 -1.9
v 1.7 1.8 -1
v 1.7 1.8 -1.6
v 1.7 1.8 -1.7
v 1.7 1.8 -1.8
v 1.7 1.9 -1
v 1.7 1.9 -1.6
v 1.7 1.9 -1.7
v 1.7 2 -1
v 1.7 2 -1.6
v 1.7 2.3 -1
v 1.7 2.3 -1.1
v 1.7 2.3 -1.2
v 1.7 2.3 -1.3
v 1.7 2.3 -1.4
v 1.7 2.3 -1.5
v 1.7 2.3 -1.6
v 1.7 2.3 -1.7
v 1.7 2.4 -1
v 1.7 2.4 -1.1
v 1.7 2.4 -1.2
v 1.7 2.4 -1.3
v 1.7 2.4 -1.4
v 1.7 2.4 -1.5
v 1.7 2.4 -1.6
v 1.7 2.4 -1.7
v 1.7 2.4 -2.1
v 1.7 2.4 -2.2
v 1.7 2.5 -1
v 1.7 2.5 -1.1
v 1.7 2.5 -1.6
v 1.7 2.5 -1.7
v 1.7 2.6 -1
v 1.7 2.6 -1.1
v 1.7 2.6 -1.3
v 1.7 2.6 -1.6
v 1.7 2.6 -1.7
v 1.7 2.6 -3
v 1.7 2.6 -3.1
v 1.7 2.7 -1
v 1.7 2.7 -1.1
v 1.7 2.7 -1.3
v 1.7 2.7 -1.4
v 1.7 2.7 -1.6
v 1.7 2.7 -1.7
v 1.7 2.8 -1
v 1.7 2.8 -1.1
v 1.7 2.8 -1.2
v 1.7 2.8 -1.6
v 1.7 2.8 -1.7
v 1.7 2.9 -1
v 1.7 2.9 -1.1
v 1.7 2.9 -1.2
v 1.7 2.9 -1.3
v 1.7 2.9 -1.4
v 1.7 2.9 -1.5
v 1.7 2.9 -1.6
v 1.7 2.9 -1.7
v 1.7 3 -0.8
v 1.7 3 -0.9
v 1.7 3 -1
v 1.7 3 -1.1
v 1.7 3 -1.2
v 1.7 3 -1.3
v 1.7 3 -1.4
v 1.7 3 -1.5
v 1.7 3 -1.6
v 1.7 3 -1.7
v 1.7 3 -1.9
v 1.7 3.2 -0.8
v 1.7 3.2 -0.9
v 1.7 3.2 -1
v 1.7 3.2 -1.9
v 1.7 3.3 -1
v 1.7 3.3 -1.5
v 1.7 3.3 -2.8
v 1.7 3.3 -3.2
v 1.7 3.4 -0.9
v 1.7 3.4 -1.5
v 1.7 3.4 -1.6
v 1.7 3.4 -2.7
v 1.7 3.4 -2.8
v 1.7 3.4 -3.3
v 1.7 3.5 -1.7
v 1.7 3.5 -1.8
v 1.7 3.6 -1.6
v 1.7 3.6 -1.7
v 1.7 3.6 -1.8
v 1.7 3.7 -1.5
v 1.7 3.7 -1.6
v 1.7 3.7 -1.7
v 1.7 3.7 -2.7
v 1.7 3.7 -2.8
v 1.7 3.8 -1.6
v 1.7 3.8 -2.7
v 1.8 1 -0.9
v 1.8 1 -3.3
v 1.8 1.1 -1
v 1.8 1.1 -1.6
v 1.8 1.1 -1.7
v 1.8 1.1 -3.2
v 1.8 1.2 -1
v 1.8 1.2 -1.6
v 1.8 1.2 -1.7
v 1.8 1.2 -1.8
v 1.8 1.3 -1
v 1.8 1.3 -1.7
v 1.8 1.3 -1.8
v 1.8 1.3 -1.9
v 1.8 1.3 -2.1
v 1.8 1.3 -3.1
v 1.8 1.4 -1
v 1.8 1.4 -1.8
v 1.8 1.4 -2.2
v 1.8 1.4 -3
v 1.8 1.5 -1
v 1.8 1.5 -1.8
v 1.8 1.6 -1
v 1.8 1.6 -1.8
v 1.8 1.7 -1
v 1.8 1.7 -1.7
v 1.8 1.7 -1.8
v 1.8 1.7 -1.9
v 1.8 1.8 -1
v 1.8 1.8 -1.6
v 1.8 1.8 -1.7
v 1.8 1.8 -1.8
v 1.8 1.9 -1
v 1.8 1.9 -1.6
v 1.8 1.9 -1.7
v 1.8 2 -1
v 1.8 2 -1.6
v 1.8 2.3 -1
v 1.8 2.3 -1.1
v 1.8 2.3 -1.2
v 1.8 2.3 -1.3
v 1.8 2.3 -1.4
v 1.8 2.3 -1.5
v 1.8 2.3 -1.6
v 1.8 2.3 -1.7
v 1.8 2.4 -1
v 1.8 2.4 -1.1
v 1.8 2.4 -1.2
v 1.8 2.4 -1.3
v 1.8 2.4 -1.4
v 1.8 2.4 -1.5
v 1.8 2.4 -1.6
v 1.8 2.4 -1.7
v 1.8 2.4 -2.1
v 1.8 2.4 -2.2
v 1.8 2.5 -1
v 1.8 2.5 -1.1
v 1.8 2.5 -1.6
v 1.8 2.5 -1.7
v 1.8 2.6 -1
v 1.8 2.6 -1.1
v 1.8 2.6 -1.3
v 1.8 2.6 -1.6
v 1.8 2.6 -1.7
v 1.8 2.6 -3
v 1.8 2.6 -3.1
v 1.8 2.7 -1
v 1.8 2.7 -1.1
v 1.8 2.7 -1.3
v 1.8 2.7 -1.4
v 1.8 2.7 -1.6
v 1.8 2.7 -1.7
v 1.8 2.8 -1
v 1.8 2.8 -1.1
v 1.8 2.8 -1.2
v 1.8 2.8 -1.6
v 1.8 2.8 -1.7
v 1.8 2.9 -1
v 1.8 2.9 -1.1
v 1.8 2.9 -1.2
v 1.8 2.9 -1.3
v 1.8 2.9 -1.4
v 1.8 2.9 -1.5
v 1.8 2.9 -1.6
v 1.8 2.9 -1.7
v 1.8 3 -0.8
v 1.8 3 -0.9
v 1.8 3 -1
v 1.8 3 -1.1
v 1.8 3 -1.2
v 1.8 3 -1.3
v 1.8 3 -1.4
v 1.8 3 -1.5
v 1.8 3 -1.6
v 1.8 3 -1.7
v 1.8 3 -1.9
v 1.8 3.2 -0.8
v 1.8 3.2 -0.9
v 1.8 3.2 -1
v 1.8 3.2 -1.9
v 1.8 3.3 -1
v 1.8 3.3 -1.5
v 1.8 3.3 -2.8
v 1.8 3.3 -3.2
v 1.8 3.4 -0.9
v 1.8 3.4 -1.5
v 1.8 3.4 -1.6
v 1.8 3.4 -2.7
v 1.8 3.4 -2.8
v 1.8 3.4 -3.3
v 1.8 3.5 -1.7
v 1.8 3.5 -1.8
v 1.8 3.6 -1.6
v 1.8 3.6 -1.7
v 1.8 3.6 -1.8
v 1.8 3.7 -1.5
v 1.8 3.7 -1.6
v 1.8 3.7 -1.7
v 1.8 3.7 -2.7
v 1.8 3.7 -2.8
v 1.8 3.8 -1.6
v 1.8 3.8 -2.7
v 1.7 3 -0.8
v 1.7 3.2 -0.8
v 1.8 3 -0.8
v 1.8 3.2 -0.8
v 1.7 1 -0.9
v 1.7 3 -0.9
v 1.7 3.2 -0.9
v 1.7 3.4 -0.9
v 1.8 1 -0.9
v 1.8 3 -0.9
v 1.8 3.2 -0.9
v 1.8 3.4 -0.9
v 1.7 3.4 -1.5
v 1.7 3.7 -1.5
v 1.8 3.4 -1.5
v 1.8 3.7 -1.5
v 1.7 3.7 -1.6
v 1.7 3.8 -1.6
v 1.8 3.7 -1.6
v 1.8 3.8 -1.6
v 1.7 3.7 -2.7
v 1.7 3.8 -2.7
v 1.8 3.7 -2.7
v 1.8 3.8 -2.7
v 1.7 3.4 -2.8
v 1.7 3.7 -2.8
v 1.8 3.4 -2.8
v 1.8 3.7 -2.8
v 1.7 1 -3.3
v 1.7 3.4 -3.3
v 1.8 1 -3.3
v 1.8 3.4 -3.3
v 1.7 1 -0.9
v 1.8 1 -0.9
v 1.7 1 -3.3
v 1.8 1 -3.3
v 1.7 3 -0.8
v 1.8 3 -0.8
v 1.7 3 -0.9
v 1.8 3 -0.9
v 1.7 3.2 -0.8
v 1.8 3.2 -0.8
v 1.7 3.2 -0.9
v 1.8 3.2 -0.9
v 1.7 3.4 -0.9
v 1.8 3.4 -0.9
v 1.7 3.4 -1.5
v 1.8 3.4 -1.5
v 1.7 3.4 -2.8
v 1.8 3.4 -2.8
v 1.7 3.4 -3.3
v 1.8 3.4 -3.3
v 1.7 3.7 -1.5
v 1.8 3.7 -1.5
v 1.7 3.7 -1.6
v 1.8 3.7 -1.6
v 1.7 3.7 -2.7
v 1.8 3.7 -2.7
v 1.7 3.7 -2.8
v 1.8 3.7 -2.8
v 1.7 3.8 -1.6
v 1.8 3.8 -1.6
v 1.7 3.8 -2.7
v 1.8 3.8 -2.7

# faces
f 3/8/1 2/8/1 1/8/1
f 4/8/1 2/8/1 3/8/1
f 5/8/1 2/8/1 4/8/1
f 6/8/1 2/8/1 5/8/1
f 7/8/1 3/8/1 1/8/1
f 7/1/1 4/1/1 3/1/1
f 8/6/1 5/6/1 4/6/1
f 8/1/1 4/1/1 7/1/1
f 9/5/1 6/5/1 5/5/1
f 9/6/1 5/6/1 8/6/1
f 10/5/1 6/5/1 9/5/1
f 11/2/1 8/2/1 7/2/1
f 11/8/1 7/8/1 1/8/1
f 11/2/1 9/2/1 8/2/1
f 12/6/1 10/6/1 9/6/1
f 12/2/1 9/2/1 11/2/1
f 13/5/1 6/5/1 10/5/1
f 13/6/1 10/6/1 12/6/1
f 14/5/1 6/5/1 13/5/1
f 15/5/1 6/5/1 14/5/1
f 16/5/1 6/5/1 15/5/1
f 17/1/1 12/1/1 11/1/1
f 17/8/1 11/8/1 1/8/1
f 17/1/1 13/1/1 12/1/1
f 18/6/1 14/6/1 13/6/1
f 18/1/1 13/1/1 17/1/1
f 19/6/1 16/6/1 15/6/1
f 20/6/1 16/6/1 19/6/1
f 21/8/1 17/8/1 1/8/1
f 21/2/1 18/2/1 17/2/1
f 22/6/1 14/6/1 18/6/1
f 22/2/1 18/2/1 21/2/1
f 23/8/1 21/8/1 1/8/1
f 23/1/1 22/1/1 21/1/1
f 24/6/1 14/6/1 22/6/1
f 24/1/1 22/1/1 23/1/1
f 25/8/1 23/8/1 1/8/1
f 25/2/1 24/2/1 23/2/1
f 26/2/1 24/2/1 25/2/1
f 27/6/1 14/6/1 24/6/1
f 27/2/1 24/2/1 26/2/1
f 28/5/1 15/5/1 14/5/1
f 28/6/1 14/6/1 27/6/1
f 29/1/1 26/1/1 25/1/1
f 29/8/1 25/8/1 1/8/1
f 30/1/1 26/1/1 29/1/1
f 31/6/1 27/6/1 26/6/1
f 31/1/1 26/1/1 30/1/1
f 32/5/1 28/5/1 27/5/1
f 32/6/1 27/6/1 31/6/1
f 33/2/1 30/2/1 29/2/1
f 33/8/1 29/8/1 1/8/1
f 34/6/1 31/6/1 30/6/1
f 34/2/1 30/2/1 33/2/1
f 35/5/1 32/5/1 31/5/1
f 35/6/1 31/6/1 34/6/1
f 36/8/1 33/8/1 1/8/1
f 36/6/1 34/6/1 33/6/1
f 37/5/1 35/5/1 34/5/1
f 37/6/1 34/6/1 36/6/1
f 38/8/1 36/8/1 1/8/1
f 38/5/1 37/5/1 36/5/1
f 39/5/1 37/5/1 38/5/1
f 40/5/1 37/5/1 39/5/1
f 41/5/1 37/5/1 40/5/1
f 42/5/1 37/5/1 41/5/1
f 43/5/1 37/5/1 42/5/1
f 44/5/1 35/5/1 37/5/1
f 44/5/1 37/5/1 43/5/1
f 45/5/1 32/5/1 35/5/1
f 45/5/1 35/5/1 44/5/1
f 46/8/1 38/8/1 1/8/1
f 46/4/1 39/4/1 38/4/1
f 47/6/1 40/6/1 39/6/1
f 47/4/1 39/4/1 46/4/1
f 48/4/1 41/4/1 40/4/1
f 48/6/1 40/6/1 47/6/1
f 49/6/1 42/6/1 41/6/1
f 49/4/1 41/4/1 48/4/1
f 50/4/1 43/4/1 42/4/1
f 50/6/1 42/6/1 49/6/1
f 51/6/1 44/6/1 43/6/1
f 51/4/1 43/4/1 50/4/1
f 52/4/1 45/4/1 44/4/1
f 52/6/1 44/6/1 51/6/1
f 53/5/1 32/5/1 45/5/1
f 53/4/1 45/4/1 52/4/1
f 54/5/1 15/5/1 28/5/1
f 54/5/1 32/5/1 53/5/1
f 54/5/1 28/5/1 32/5/1
f 54/6/1 19/6/1 15/6/1
f 55/5/1 20/5/1 19/5/1
f 55/6/1 19/6/1 54/6/1
f 56/6/1 47/6/1 46/6/1
f 56/8/1 46/8/1 1/8/1
f 57/1/1 48/1/1 47/1/1
f 57/6/1 47/6/1 56/6/1
f 57/1/1 50/1/1 49/1/1
f 57/1/1 49/1/1 48/1/1
f 57/1/1 51/1/1 50/1/1
f 57/1/1 52/1/1 51/1/1
f 58/6/1 53/6/1 52/6/1
f 58/1/1 52/1/1 57/1/1
f 59/5/1 54/5/1 53/5/1
f 59/6/1 53/6/1 58/6/1
f 59/5/1 55/5/1 54/5/1
f 60/4/1 57/4/1 56/4/1
f 60/8/1 56/8/1 1/8/1
f 61/1/1 58/1/1 57/1/1
f 61/4/1 57/4/1 60/4/1
f 62/1/1 58/1/1 61/1/1
f 63/4/1 59/4/1 58/4/1
f 63/1/1 58/1/1 62/1/1
f 64/5/1 55/5/1 59/5/1
f 64/4/1 59/4/1 63/4/1
f 65/6/1 16/6/1 20/6/1
f 65/5/1 55/5/1 64/5/1
f 65/5/1 20/5/1 55/5/1
f 66/5/1 6/5/1 16/5/1
f 66/6/1 16/6/1 65/6/1
f 67/8/1 60/8/1 1/8/1
f 67/6/1 61/6/1 60/6/1
f 68/2/1 62/2/1 61/2/1
f 68/6/1 61/6/1 67/6/1
f 69/1/1 63/1/1 62/1/1
f 69/2/1 62/2/1 68/2/1
f 70/1/1 63/1/1 69/1/1
f 71/6/1 64/6/1 63/6/1
f 71/1/1 63/1/1 70/1/1
f 72/5/1 65/5/1 64/5/1
f 72/6/1 64/6/1 71/6/1
f 72/5/1 66/5/1 65/5/1
f 73/4/1 68/4/1 67/4/1
f 73/8/1 67/8/1 1/8/1
f 74/2/1 70/2/1 69/2/1
f 74/4/1 68/4/1 73/4/1
f 74/2/1 69/2/1 68/2/1
f 75/2/1 70/2/1 74/2/1
f 76/1/1 71/1/1 70/1/1
f 76/4/1 72/4/1 71/4/1
f 77/5/1 66/5/1 72/5/1
f 77/4/1 72/4/1 76/4/1
f 78/8/1 73/8/1 1/8/1
f 78/6/1 74/6/1 73/6/1
f 79/1/1 75/1/1 74/1/1
f 79/6/1 74/6/1 78/6/1
f 80/2/1 70/2/1 75/2/1
f 80/1/1 75/1/1 79/1/1
f 81/2/1 70/2/1 80/2/1
f 82/1/1 76/1/1 70/1/1
f 82/2/1 70/2/1 81/2/1
f 83/1/1 76/1/1 82/1/1
f 84/6/1 77/6/1 76/6/1
f 84/1/1 76/1/1 83/1/1
f 85/5/1 66/5/1 77/5/1
f 85/6/1 77/6/1 84/6/1
f 87/8/1 78/8/1 1/8/1
f 88/4/1 79/4/1 78/4/1
f 88/8/1 78/8/1 87/8/1
f 89/6/1 80/6/1 79/6/1
f 89/4/1 79/4/1 88/4/1
f 90/4/1 81/4/1 80/4/1
f 90/6/1 80/6/1 89/6/1
f 91/6/1 82/6/1 81/6/1
f 91/4/1 81/4/1 90/4/1
f 92/4/1 83/4/1 82/4/1
f 92/6/1 82/6/1 91/6/1
f 93/6/1 84/6/1 83/6/1
f 93/4/1 83/4/1 92/4/1
f 94/4/1 85/4/1 84/4/1
f 94/6/1 84/6/1 93/6/1
f 95/5/1 66/5/1 85/5/1
f 95/4/1 85/4/1 94/4/1
f 96/5/1 66/5/1 95/5/1
f 97/7/1 87/7/1 86/7/1
f 97/7/1 89/7/1 88/7/1
f 97/7/1 96/7/1 95/7/1
f 97/7/1 95/7/1 94/7/1
f 97/7/1 94/7/1 93/7/1
f 97/7/1 93/7/1 92/7/1
f 97/7/1 90/7/1 89/7/1
f 97/7/1 88/7/1 87/7/1
f 97/7/1 91/7/1 90/7/1
f 97/7/1 92/7/1 91/7/1
f 98/7/1 96/7/1 97/7/1
f 99/7/1 96/7/1 98/7/1
f 100/5/1 66/5/1 96/5/1
f 100/7/1 96/7/1 99/7/1
f 101/8/1 99/8/1 98/8/1
f 101/5/1 100/5/1 99/5/1
f 102/5/1 100/5/1 101/5/1
f 103/5/1 66/5/1 100/5/1
f 103/5/1 100/5/1 102/5/1
f 104/8/1 2/8/1 6/8/1
f 104/5/1 66/5/1 103/5/1
f 104/5/1 6/5/1 66/5/1
f 105/8/1 102/8/1 101/8/1
f 105/8/1 101/8/1 98/8/1
f 106/3/1 103/3/1 102/3/1
f 106/8/1 102/8/1 105/8/1
f 107/3/1 103/3/1 106/3/1
f 108/3/1 103/3/1 107/3/1
f 109/8/1 104/8/1 103/8/1
f 109/3/1 103/3/1 108/3/1
f 110/8/1 2/8/1 104/8/1
f 110/8/1 104/8/1 109/8/1
f 111/1/1 108/1/1 107/1/1
f 112/1/1 108/1/1 111/1/1
f 113/8/1 107/8/1 106/8/1
f 113/1/1 111/1/1 107/1/1
f 114/2/1 112/2/1 111/2/1
f 114/1/1 111/1/1 113/1/1
f 115/1/1 108/1/1 112/1/1
f 115/2/1 112/2/1 114/2/1
f 116/8/1 113/8/1 106/8/1
f 117/2/1 114/2/1 113/2/1
f 117/8/1 113/8/1 116/8/1
f 118/1/1 115/1/1 114/1/1
f 118/2/1 114/2/1 117/2/1
f 119/8/1 109/8/1 108/8/1
f 119/1/1 115/1/1 118/1/1
f 119/1/1 108/1/1 115/1/1
f 120/8/1 109/8/1 119/8/1
f 121/8/1 118/8/1 117/8/1
f 121/8/1 119/8/1 118/8/1
f 122/8/1 119/8/1 121/8/1
f 123/8/2 124/8/2 125/8/2
f 125/8/2 124/8/2 126/8/2
f 126/8/2 124/8/2 127/8/2
f 127/8/2 124/8/2 128/8/2
f 123/8/2 125/8/2 129/8/2
f 125/1/2 126/1/2 129/1/2
f 126/6/2 127/6/2 130/6/2
f 129/1/2 126/1/2 130/1/2
f 127/5/2 128/5/2 131/5/2
f 130/6/2 127/6/2 131/6/2
f 131/5/2 128/5/2 132/5/2
f 129/2/2 130/2/2 133/2/2
f 123/8/2 129/8/2 133/8/2
f 130/2/2 131/2/2 133/2/2
f 131/6/2 132/6/2 134/6/2
f 133/2/2 131/2/2 134/2/2
f 132/5/2 128/5/2 135/5/2
f 134/6/2 132/6/2 135/6/2
f 135/5/2 128/5/2 136/5/2
f 136/5/2 128/5/2 137/5/2
f 137/5/2 128/5/2 138/5/2
f 133/1/2 134/1/2 139/1/2
f 123/8/2 133/8/2 139/8/2
f 134/1/2 135/1/2 139/1/2
f 135/6/2 136/6/2 140/6/2
f 139/1/2 135/1/2 140/1/2
f 137/6/2 138/6/2 141/6/2
f 141/6/2 138/6/2 142/6/2
f 123/8/2 139/8/2 143/8/2
f 139/2/2 140/2/2 143/2/2
f 140/6/2 136/6/2 144/6/2
f 143/2/2 140/2/2 144/2/2
f 123/8/2 143/8/2 145/8/2
f 143/1/2 144/1/2 145/1/2
f 144/6/2 136/6/2 146/6/2
f 145/1/2 144/1/2 146/1/2
f 123/8/2 145/8/2 147/8/2
f 145/2/2 146/2/2 147/2/2
f 147/2/2 146/2/2 148/2/2
f 146/6/2 136/6/2 149/6/2
f 148/2/2 146/2/2 149/2/2
f 136/5/2 137/5/2 150/5/2
f 149/6/2 136/6/2 150/6/2
f 147/1/2 148/1/2 151/1/2
f 123/8/2 147/8/2 151/8/2
f 151/1/2 148/1/2 152/1/2
f 148/6/2 149/6/2 153/6/2
f 152/1/2 148/1/2 153/1/2
f 149/5/2 150/5/2 154/5/2
f 153/6/2 149/6/2 154/6/2
f 151/2/2 152/2/2 155/2/2
f 123/8/2 151/8/2 155/8/2
f 152/6/2 153/6/2 156/6/2
f 155/2/2 152/2/2 156/2/2
f 153/5/2 154/5/2 157/5/2
f 156/6/2 153/6/2 157/6/2
f 123/8/2 155/8/2 158/8/2
f 155/6/2 156/6/2 158/6/2
f 156/5/2 157/5/2 159/5/2
f 158/6/2 156/6/2 159/6/2
f 123/8/2 158/8/2 160/8/2
f 158/5/2 159/5/2 160/5/2
f 160/5/2 159/5/2 161/5/2
f 161/5/2 159/5/2 162/5/2
f 162/5/2 159/5/2 163/5/2
f 163/5/2 159/5/2 164/5/2
f 164/5/2 159/5/2 165/5/2
f 159/5/2 157/5/2 166/5/2
f 165/5/2 159/5/2 166/5/2
f 157/5/2 154/5/2 167/5/2
f 166/5/2 157/5/2 167/5/2
f 123/8/2 160/8/2 168/8/2
f 160/4/2 161/4/2 168/4/2
f 161/6/2 162/6/2 169/6/2
f 168/4/2 161/4/2 169/4/2
f 162/4/2 163/4/2 170/4/2
f 169/6/2 162/6/2 170/6/2
f 163/6/2 164/6/2 171/6/2
f 170/4/2 163/4/2 171/4/2
f 164/4/2 165/4/2 172/4/2
f 171/6/2 164/6/2 172/6/2
f 165/6/2 166/6/2 173/6/2
f 172/4/2 165/4/2 173/4/2
f 166/4/2 167/4/2 174/4/2
f 173/6/2 166/6/2 174/6/2
f 167/5/2 154/5/2 175/5/2
f 174/4/2 167/4/2 175/4/2
f 150/5/2 137/5/2 176/5/2
f 175/5/2 154/5/2 176/5/2
f 154/5/2 150/5/2 176/5/2
f 137/6/2 141/6/2 176/6/2
f 141/5/2 142/5/2 177/5/2
f 176/6/2 141/6/2 177/6/2
f 168/6/2 169/6/2 178/6/2
f 123/8/2 168/8/2 178/8/2
f 169/1/2 170/1/2 179/1/2
f 178/6/2 169/6/2 179/6/2
f 171/1/2 172/1/2 179/1/2
f 170/1/2 171/1/2 179/1/2
f 172/1/2 173/1/2 179/1/2
f 173/1/2 174/1/2 179/1/2
f 174/6/2 175/6/2 180/6/2
f 179/1/2 174/1/2 180/1/2
f 175/5/2 176/5/2 181/5/2
f 180/6/2 175/6/2 181/6/2
f 176/5/2 177/5/2 181/5/2
f 178/4/2 179/4/2 182/4/2
f 123/8/2 178/8/2 182/8/2
f 179/1/2 180/1/2 183/1/2
f 182/4/2 179/4/2 183/4/2
f 183/1/2 180/1/2 184/1/2
f 180/4/2 181/4/2 185/4/2
f 184/1/2 180/1/2 185/1/2
f 181/5/2 177/5/2 186/5/2
f 185/4/2 181/4/2 186/4/2
f 142/6/2 138/6/2 187/6/2
f 186/5/2 177/5/2 187/5/2
f 177/5/2 142/5/2 187/5/2
f 138/5/2 128/5/2 188/5/2
f 187/6/2 138/6/2 188/6/2
f 123/8/2 182/8/2 189/8/2
f 182/6/2 183/6/2 189/6/2
f 183/2/2 184/2/2 190/2/2
f 189/6/2 183/6/2 190/6/2
f 184/1/2 185/1/2 191/1/2
f 190/2/2 184/2/2 191/2/2
f 191/1/2 185/1/2 192/1/2
f 185/6/2 186/6/2 193/6/2
f 192/1/2 185/1/2 193/1/2
f 186/5/2 187/5/2 194/5/2
f 193/6/2 186/6/2 194/6/2
f 187/5/2 188/5/2 194/5/2
f 189/4/2 190/4/2 195/4/2
f 123/8/2 189/8/2 195/8/2
f 191/2/2 192/2/2 196/2/2
f 195/4/2 190/4/2 196/4/2
f 190/2/2 191/2/2 196/2/2
f 196/2/2 192/2/2 197/2/2
f 192/1/2 193/1/2 198/1/2
f 193/4/2 194/4/2 198/4/2
f 194/5/2 188/5/2 199/5/2
f 198/4/2 194/4/2 199/4/2
f 123/8/2 195/8/2 200/8/2
f 195/6/2 196/6/2 200/6/2
f 196/1/2 197/1/2 201/1/2
f 200/6/2 196/6/2 201/6/2
f 197/2/2 192/2/2 202/2/2
f 201/1/2 197/1/2 202/1/2
f 202/2/2 192/2/2 203/2/2
f 192/1/2 198/1/2 204/1/2
f 203/2/2 192/2/2 204/2/2
f 204/1/2 198/1/2 205/1/2
f 198/6/2 199/6/2 206/6/2
f 205/1/2 198/1/2 206/1/2
f 199/5/2 188/5/2 207/5/2
f 206/6/2 199/6/2 207/6/2
f 123/8/2 200/8/2 209/8/2
f 200/4/2 201/4/2 210/4/2
f 209/8/2 200/8/2 210/8/2
f 201/6/2 202/6/2 211/6/2
f 210/4/2 201/4/2 211/4/2
f 202/4/2 203/4/2 212/4/2
f 211/6/2 202/6/2 212/6/2
f 203/6/2 204/6/2 213/6/2
f 212/4/2 203/4/2 213/4/2
f 204/4/2 205/4/2 214/4/2
f 213/6/2 204/6/2 214/6/2
f 205/6/2 206/6/2 215/6/2
f 214/4/2 205/4/2 215/4/2
f 206/4/2 207/4/2 216/4/2
f 215/6/2 206/6/2 216/6/2
f 207/5/2 188/5/2 217/5/2
f 216/4/2 207/4/2 217/4/2
f 217/5/2 188/5/2 218/5/2
f 208/7/2 209/7/2 219/7/2
f 210/7/2 211/7/2 219/7/2
f 217/7/2 218/7/2 219/7/2
f 216/7/2 217/7/2 219/7/2
f 215/7/2 216/7/2 219/7/2
f 214/7/2 215/7/2 219/7/2
f 211/7/2 212/7/2 219/7/2
f 209/7/2 210/7/2 219/7/2
f 212/7/2 213/7/2 219/7/2
f 213/7/2 214/7/2 219/7/2
f 219/7/2 218/7/2 220/7/2
f 220/7/2 218/7/2 221/7/2
f 218/5/2 188/5/2 222/5/2
f 221/7/2 218/7/2 222/7/2
f 220/8/2 221/8/2 223/8/2
f 221/5/2 222/5/2 223/5/2
f 223/5/2 222/5/2 224/5/2
f 222/5/2 188/5/2 225/5/2
f 224/5/2 222/5/2 225/5/2
f 128/8/2 124/8/2 226/8/2
f 225/5/2 188/5/2 226/5/2
f 188/5/2 128/5/2 226/5/2
f 223/8/2 224/8/2 227/8/2
f 220/8/2 223/8/2 227/8/2
f 224/3/2 225/3/2 228/3/2
f 227/8/2 224/8/2 228/8/2
f 228/3/2 225/3/2 229/3/2
f 229/3/2 225/3/2 230/3/2
f 225/8/2 226/8/2 231/8/2
f 230/3/2 225/3/2 231/3/2
f 226/8/2 124/8/2 232/8/2
f 231/8/2 226/8/2 232/8/2
f 229/1/2 230/1/2 233/1/2
f 233/1/2 230/1/2 234/1/2
f 228/8/2 229/8/2 235/8/2
f 229/1/2 233/1/2 235/1/2
f 233/2/2 234/2/2 236/2/2
f 235/1/2 233/1/2 236/1/2
f 234/1/2 230/1/2 237/1/2
f 236/2/2 234/2/2 237/2/2
f 228/8/2 235/8/2 238/8/2
f 235/2/2 236/2/2 239/2/2
f 238/8/2 235/8/2 239/8/2
f 236/1/2 237/1/2 240/1/2
f 239/2/2 236/2/2 240/2/2
f 230/8/2 231/8/2 241/8/2
f 240/1/2 237/1/2 241/1/2
f 237/1/2 230/1/2 241/1/2
f 241/8/2 231/8/2 242/8/2
f 239/8/2 240/8/2 243/8/2
f 240/8/2 241/8/2 243/8/2
f 243/8/2 241/8/2 244/8/2
f 247/7/3 246/7/3 245/7/3
f 248/7/3 246/7/3 247/7/3
f 253/8/3 250/8/3 249/8/3
f 254/8/3 250/8/3 253/8/3
f 255/8/3 252/8/3 251/8/3
f 256/8/3 252/8/3 255/8/3
f 259/8/3 258/8/3 257/8/3
f 260/8/3 258/8/3 259/8/3
f 263/8/3 262/8/3 261/8/3
f 264/8/3 262/8/3 263/8/3
f 265/8/4 266/8/4 267/8/4
f 267/8/4 266/8/4 268/8/4
f 269/8/4 270/8/4 271/8/4
f 271/8/4 270/8/4 272/8/4
f 273/8/4 274/8/4 275/8/4
f 275/8/4 274/8/4 276/8/4
f 279/8/5 278/8/5 277/8/5
f 280/8/5 278/8/5 279/8/5
f 283/7/5 282/7/5 281/7/5
f 284/7/5 282/7/5 283/7/5
f 285/7/6 286/7/6 287/7/6
f 287/7/6 286/7/6 288/7/6
f 289/8/6 290/8/6 291/8/6
f 291/8/6 290/8/6 292/8/6
f 293/8/6 294/8/6 295/8/6
f 295/8/6 294/8/6 296/8/6
f 297/8/6 298/8/6 299/8/6
f 299/8/6 298/8/6 300/8/6
f 301/8/6 302/8/6 303/8/6
f 303/8/6 302/8/6 304/8/6
f 305/8/6 306/8/6 307/8/6
f 307/8/6 306/8/6 308/8/6
