# MagicaVoxel @ Ephtracy

# group
o 

# material
mtllib ChaseBotActive2D.mtl
usemtl palette

# normals
vn -1 0 0
vn 1 0 0
vn 0 0 1
vn 0 0 -1
vn 0 -1 0
vn 0 1 0

# texcoords
vt 0.841797 0.5
vt 0.958984 0.5
vt 0.962891 0.5
vt 0.966797 0.5
vt 0.974609 0.5
vt 0.982422 0.5
vt 0.986328 0.5
vt 0.994141 0.5

# verts
v 0.8 3 0
v 0.8 3 -0.1
v 0.8 3.2 0
v 0.8 3.2 -0.1
v 0.9 1 0
v 0.9 1 -0.1
v 0.9 3 0
v 0.9 3 -0.1
v 0.9 3.2 0
v 0.9 3.2 -0.1
v 0.9 3.4 0
v 0.9 3.4 -0.1
v 1.5 3.4 0
v 1.5 3.4 -0.1
v 1.5 3.7 0
v 1.5 3.7 -0.1
v 1.6 3.7 0
v 1.6 3.7 -0.1
v 1.6 3.8 0
v 1.6 3.8 -0.1
v 2.7 3.7 0
v 2.7 3.7 -0.1
v 2.7 3.8 0
v 2.7 3.8 -0.1
v 2.8 3.4 0
v 2.8 3.4 -0.1
v 2.8 3.7 0
v 2.8 3.7 -0.1
v 3.3 1 0
v 3.3 1 -0.1
v 3.3 3.4 0
v 3.3 3.4 -0.1
v 0.8 3 0
v 0.8 3.2 0
v 0.9 1 0
v 0.9 3 0
v 0.9 3.2 0
v 0.9 3.4 0
v 1 1.1 0
v 1 1.2 0
v 1 1.3 0
v 1 1.4 0
v 1 1.5 0
v 1 1.6 0
v 1 1.7 0
v 1 1.8 0
v 1 1.9 0
v 1 2 0
v 1 2.3 0
v 1 2.4 0
v 1 2.5 0
v 1 2.6 0
v 1 2.7 0
v 1 2.8 0
v 1 2.9 0
v 1 3 0
v 1 3.2 0
v 1 3.3 0
v 1.1 2.3 0
v 1.1 2.4 0
v 1.1 2.5 0
v 1.1 2.6 0
v 1.1 2.7 0
v 1.1 2.8 0
v 1.1 2.9 0
v 1.1 3 0
v 1.2 2.3 0
v 1.2 2.4 0
v 1.2 2.8 0
v 1.2 2.9 0
v 1.2 3 0
v 1.3 2.3 0
v 1.3 2.4 0
v 1.3 2.6 0
v 1.3 2.7 0
v 1.3 2.9 0
v 1.3 3 0
v 1.4 2.3 0
v 1.4 2.4 0
v 1.4 2.7 0
v 1.4 2.9 0
v 1.4 3 0
v 1.5 2.3 0
v 1.5 2.4 0
v 1.5 2.9 0
v 1.5 3 0
v 1.5 3.3 0
v 1.5 3.4 0
v 1.5 3.7 0
v 1.6 1.1 0
v 1.6 1.2 0
v 1.6 1.8 0
v 1.6 1.9 0
v 1.6 2 0
v 1.6 2.3 0
v 1.6 2.4 0
v 1.6 2.5 0
v 1.6 2.6 0
v 1.6 2.7 0
v 1.6 2.8 0
v 1.6 2.9 0
v 1.6 3 0
v 1.6 3.4 0
v 1.6 3.6 0
v 1.6 3.7 0
v 1.6 3.8 0
v 1.7 1.1 0
v 1.7 1.2 0
v 1.7 1.3 0
v 1.7 1.7 0
v 1.7 1.8 0
v 1.7 1.9 0
v 1.7 2.3 0
v 1.7 2.4 0
v 1.7 2.5 0
v 1.7 2.6 0
v 1.7 2.7 0
v 1.7 2.8 0
v 1.7 2.9 0
v 1.7 3 0
v 1.7 3.5 0
v 1.7 3.6 0
v 1.7 3.7 0
v 1.8 1.2 0
v 1.8 1.3 0
v 1.8 1.4 0
v 1.8 1.5 0
v 1.8 1.6 0
v 1.8 1.7 0
v 1.8 1.8 0
v 1.8 3.5 0
v 1.8 3.6 0
v 1.9 1.3 0
v 1.9 1.7 0
v 1.9 3 0
v 1.9 3.2 0
v 2.1 1.3 0
v 2.1 2.4 0
v 2.2 1.4 0
v 2.2 2.4 0
v 2.7 3.4 0
v 2.7 3.7 0
v 2.7 3.8 0
v 2.8 3.3 0
v 2.8 3.4 0
v 2.8 3.7 0
v 3 1.4 0
v 3 2.6 0
v 3.1 1.3 0
v 3.1 2.6 0
v 3.2 1.1 0
v 3.2 3.3 0
v 3.3 1 0
v 3.3 3.4 0
v 0.8 3 -0.1
v 0.8 3.2 -0.1
v 0.9 1 -0.1
v 0.9 3 -0.1
v 0.9 3.2 -0.1
v 0.9 3.4 -0.1
v 1 1.1 -0.1
v 1 1.2 -0.1
v 1 1.3 -0.1
v 1 1.4 -0.1
v 1 1.5 -0.1
v 1 1.6 -0.1
v 1 1.7 -0.1
v 1 1.8 -0.1
v 1 1.9 -0.1
v 1 2 -0.1
v 1 2.3 -0.1
v 1 2.4 -0.1
v 1 2.5 -0.1
v 1 2.6 -0.1
v 1 2.7 -0.1
v 1 2.8 -0.1
v 1 2.9 -0.1
v 1 3 -0.1
v 1 3.2 -0.1
v 1 3.3 -0.1
v 1.1 2.3 -0.1
v 1.1 2.4 -0.1
v 1.1 2.5 -0.1
v 1.1 2.6 -0.1
v 1.1 2.7 -0.1
v 1.1 2.8 -0.1
v 1.1 2.9 -0.1
v 1.1 3 -0.1
v 1.2 2.3 -0.1
v 1.2 2.4 -0.1
v 1.2 2.8 -0.1
v 1.2 2.9 -0.1
v 1.2 3 -0.1
v 1.3 2.3 -0.1
v 1.3 2.4 -0.1
v 1.3 2.6 -0.1
v 1.3 2.7 -0.1
v 1.3 2.9 -0.1
v 1.3 3 -0.1
v 1.4 2.3 -0.1
v 1.4 2.4 -0.1
v 1.4 2.7 -0.1
v 1.4 2.9 -0.1
v 1.4 3 -0.1
v 1.5 2.3 -0.1
v 1.5 2.4 -0.1
v 1.5 2.9 -0.1
v 1.5 3 -0.1
v 1.5 3.3 -0.1
v 1.5 3.4 -0.1
v 1.5 3.7 -0.1
v 1.6 1.1 -0.1
v 1.6 1.2 -0.1
v 1.6 1.8 -0.1
v 1.6 1.9 -0.1
v 1.6 2 -0.1
v 1.6 2.3 -0.1
v 1.6 2.4 -0.1
v 1.6 2.5 -0.1
v 1.6 2.6 -0.1
v 1.6 2.7 -0.1
v 1.6 2.8 -0.1
v 1.6 2.9 -0.1
v 1.6 3 -0.1
v 1.6 3.4 -0.1
v 1.6 3.6 -0.1
v 1.6 3.7 -0.1
v 1.6 3.8 -0.1
v 1.7 1.1 -0.1
v 1.7 1.2 -0.1
v 1.7 1.3 -0.1
v 1.7 1.7 -0.1
v 1.7 1.8 -0.1
v 1.7 1.9 -0.1
v 1.7 2.3 -0.1
v 1.7 2.4 -0.1
v 1.7 2.5 -0.1
v 1.7 2.6 -0.1
v 1.7 2.7 -0.1
v 1.7 2.8 -0.1
v 1.7 2.9 -0.1
v 1.7 3 -0.1
v 1.7 3.5 -0.1
v 1.7 3.6 -0.1
v 1.7 3.7 -0.1
v 1.8 1.2 -0.1
v 1.8 1.3 -0.1
v 1.8 1.4 -0.1
v 1.8 1.5 -0.1
v 1.8 1.6 -0.1
v 1.8 1.7 -0.1
v 1.8 1.8 -0.1
v 1.8 3.5 -0.1
v 1.8 3.6 -0.1
v 1.9 1.3 -0.1
v 1.9 1.7 -0.1
v 1.9 3 -0.1
v 1.9 3.2 -0.1
v 2.1 1.3 -0.1
v 2.1 2.4 -0.1
v 2.2 1.4 -0.1
v 2.2 2.4 -0.1
v 2.7 3.4 -0.1
v 2.7 3.7 -0.1
v 2.7 3.8 -0.1
v 2.8 3.3 -0.1
v 2.8 3.4 -0.1
v 2.8 3.7 -0.1
v 3 1.4 -0.1
v 3 2.6 -0.1
v 3.1 1.3 -0.1
v 3.1 2.6 -0.1
v 3.2 1.1 -0.1
v 3.2 3.3 -0.1
v 3.3 1 -0.1
v 3.3 3.4 -0.1
v 0.9 1 0
v 3.3 1 0
v 0.9 1 -0.1
v 3.3 1 -0.1
v 0.8 3 0
v 0.9 3 0
v 0.8 3 -0.1
v 0.9 3 -0.1
v 0.8 3.2 0
v 0.9 3.2 0
v 0.8 3.2 -0.1
v 0.9 3.2 -0.1
v 0.9 3.4 0
v 1.5 3.4 0
v 2.8 3.4 0
v 3.3 3.4 0
v 0.9 3.4 -0.1
v 1.5 3.4 -0.1
v 2.8 3.4 -0.1
v 3.3 3.4 -0.1
v 1.5 3.7 0
v 1.6 3.7 0
v 2.7 3.7 0
v 2.8 3.7 0
v 1.5 3.7 -0.1
v 1.6 3.7 -0.1
v 2.7 3.7 -0.1
v 2.8 3.7 -0.1
v 1.6 3.8 0
v 2.7 3.8 0
v 1.6 3.8 -0.1
v 2.7 3.8 -0.1

# faces
f 3/7/1 2/7/1 1/7/1
f 4/7/1 2/7/1 3/7/1
f 7/8/1 6/8/1 5/8/1
f 8/8/1 6/8/1 7/8/1
f 11/8/1 10/8/1 9/8/1
f 12/8/1 10/8/1 11/8/1
f 15/8/1 14/8/1 13/8/1
f 16/8/1 14/8/1 15/8/1
f 19/8/1 18/8/1 17/8/1
f 20/8/1 18/8/1 19/8/1
f 21/8/2 22/8/2 23/8/2
f 23/8/2 22/8/2 24/8/2
f 25/8/2 26/8/2 27/8/2
f 27/8/2 26/8/2 28/8/2
f 29/8/2 30/8/2 31/8/2
f 31/8/2 30/8/2 32/8/2
f 36/7/3 34/7/3 33/7/3
f 37/7/3 34/7/3 36/7/3
f 39/8/3 36/8/3 35/8/3
f 40/8/3 36/8/3 39/8/3
f 41/8/3 36/8/3 40/8/3
f 42/8/3 36/8/3 41/8/3
f 43/8/3 36/8/3 42/8/3
f 44/8/3 36/8/3 43/8/3
f 45/8/3 36/8/3 44/8/3
f 46/8/3 36/8/3 45/8/3
f 47/8/3 36/8/3 46/8/3
f 48/8/3 36/8/3 47/8/3
f 49/8/3 36/8/3 48/8/3
f 50/8/3 36/8/3 49/8/3
f 51/8/3 36/8/3 50/8/3
f 52/8/3 36/8/3 51/8/3
f 53/8/3 36/8/3 52/8/3
f 54/8/3 36/8/3 53/8/3
f 55/8/3 36/8/3 54/8/3
f 56/7/3 37/7/3 36/7/3
f 56/8/3 36/8/3 55/8/3
f 57/8/3 38/8/3 37/8/3
f 57/7/3 37/7/3 56/7/3
f 58/8/3 38/8/3 57/8/3
f 59/5/3 49/5/3 48/5/3
f 59/4/3 50/4/3 49/4/3
f 60/6/3 51/6/3 50/6/3
f 60/4/3 50/4/3 59/4/3
f 61/4/3 52/4/3 51/4/3
f 61/6/3 51/6/3 60/6/3
f 62/6/3 53/6/3 52/6/3
f 62/4/3 52/4/3 61/4/3
f 63/4/3 54/4/3 53/4/3
f 63/6/3 53/6/3 62/6/3
f 64/6/3 55/6/3 54/6/3
f 64/4/3 54/4/3 63/4/3
f 65/4/3 56/4/3 55/4/3
f 65/6/3 55/6/3 64/6/3
f 66/7/3 57/7/3 56/7/3
f 66/4/3 56/4/3 65/4/3
f 67/5/3 59/5/3 48/5/3
f 67/6/3 60/6/3 59/6/3
f 68/1/3 61/1/3 60/1/3
f 68/6/3 60/6/3 67/6/3
f 68/1/3 62/1/3 61/1/3
f 69/2/3 64/2/3 63/2/3
f 69/2/3 63/2/3 62/2/3
f 69/1/3 65/1/3 64/1/3
f 70/6/3 66/6/3 65/6/3
f 70/1/3 65/1/3 69/1/3
f 71/7/3 57/7/3 66/7/3
f 71/6/3 66/6/3 70/6/3
f 72/4/3 68/4/3 67/4/3
f 72/5/3 67/5/3 48/5/3
f 73/1/3 62/1/3 68/1/3
f 73/4/3 68/4/3 72/4/3
f 74/2/3 70/2/3 69/2/3
f 74/1/3 62/1/3 73/1/3
f 74/2/3 69/2/3 62/2/3
f 75/2/3 70/2/3 74/2/3
f 76/4/3 71/4/3 70/4/3
f 76/2/3 70/2/3 75/2/3
f 77/7/3 57/7/3 71/7/3
f 77/4/3 71/4/3 76/4/3
f 78/5/3 72/5/3 48/5/3
f 78/6/3 73/6/3 72/6/3
f 79/1/3 75/1/3 74/1/3
f 79/6/3 73/6/3 78/6/3
f 79/1/3 74/1/3 73/1/3
f 80/2/3 76/2/3 75/2/3
f 80/1/3 75/1/3 79/1/3
f 81/6/3 77/6/3 76/6/3
f 81/2/3 76/2/3 80/2/3
f 82/7/3 57/7/3 77/7/3
f 82/6/3 77/6/3 81/6/3
f 83/4/3 79/4/3 78/4/3
f 83/5/3 78/5/3 48/5/3
f 84/1/3 81/1/3 80/1/3
f 84/4/3 79/4/3 83/4/3
f 84/1/3 80/1/3 79/1/3
f 85/4/3 82/4/3 81/4/3
f 85/1/3 81/1/3 84/1/3
f 86/7/3 57/7/3 82/7/3
f 86/4/3 82/4/3 85/4/3
f 87/8/3 38/8/3 58/8/3
f 87/5/3 58/5/3 57/5/3
f 88/8/3 38/8/3 87/8/3
f 90/8/3 39/8/3 35/8/3
f 90/1/3 40/1/3 39/1/3
f 91/2/3 41/2/3 40/2/3
f 91/1/3 40/1/3 90/1/3
f 92/1/3 46/1/3 45/1/3
f 92/2/3 47/2/3 46/2/3
f 93/6/3 48/6/3 47/6/3
f 93/2/3 47/2/3 92/2/3
f 94/5/3 83/5/3 48/5/3
f 94/6/3 48/6/3 93/6/3
f 95/6/3 84/6/3 83/6/3
f 95/5/3 83/5/3 94/5/3
f 96/1/3 85/1/3 84/1/3
f 96/6/3 84/6/3 95/6/3
f 97/1/3 85/1/3 96/1/3
f 98/1/3 85/1/3 97/1/3
f 99/1/3 85/1/3 98/1/3
f 100/1/3 85/1/3 99/1/3
f 101/6/3 86/6/3 85/6/3
f 101/1/3 85/1/3 100/1/3
f 102/7/3 57/7/3 86/7/3
f 102/6/3 86/6/3 101/6/3
f 103/8/3 89/8/3 88/8/3
f 103/3/3 88/3/3 87/3/3
f 104/8/3 89/8/3 103/8/3
f 105/8/3 89/8/3 104/8/3
f 107/8/3 90/8/3 35/8/3
f 107/6/3 91/6/3 90/6/3
f 108/2/3 41/2/3 91/2/3
f 108/6/3 91/6/3 107/6/3
f 109/1/3 42/1/3 41/1/3
f 109/2/3 41/2/3 108/2/3
f 110/2/3 45/2/3 44/2/3
f 110/1/3 92/1/3 45/1/3
f 111/6/3 93/6/3 92/6/3
f 111/1/3 92/1/3 110/1/3
f 112/5/3 95/5/3 94/5/3
f 112/6/3 93/6/3 111/6/3
f 112/5/3 94/5/3 93/5/3
f 113/4/3 96/4/3 95/4/3
f 113/5/3 95/5/3 112/5/3
f 114/6/3 97/6/3 96/6/3
f 114/4/3 96/4/3 113/4/3
f 115/4/3 98/4/3 97/4/3
f 115/6/3 97/6/3 114/6/3
f 116/6/3 99/6/3 98/6/3
f 116/4/3 98/4/3 115/4/3
f 117/4/3 100/4/3 99/4/3
f 117/6/3 99/6/3 116/6/3
f 118/6/3 101/6/3 100/6/3
f 118/4/3 100/4/3 117/4/3
f 119/4/3 102/4/3 101/4/3
f 119/6/3 101/6/3 118/6/3
f 120/7/3 57/7/3 102/7/3
f 120/4/3 102/4/3 119/4/3
f 121/1/3 104/1/3 103/1/3
f 122/2/3 105/2/3 104/2/3
f 122/1/3 104/1/3 121/1/3
f 123/8/3 106/8/3 105/8/3
f 123/2/3 105/2/3 122/2/3
f 124/5/3 108/5/3 107/5/3
f 124/6/3 109/6/3 108/6/3
f 125/1/3 42/1/3 109/1/3
f 125/6/3 109/6/3 124/6/3
f 126/2/3 43/2/3 42/2/3
f 126/1/3 42/1/3 125/1/3
f 127/1/3 44/1/3 43/1/3
f 127/2/3 43/2/3 126/2/3
f 128/2/3 110/2/3 44/2/3
f 128/1/3 44/1/3 127/1/3
f 129/6/3 111/6/3 110/6/3
f 129/2/3 110/2/3 128/2/3
f 130/5/3 119/5/3 118/5/3
f 130/6/3 111/6/3 129/6/3
f 130/5/3 118/5/3 117/5/3
f 130/5/3 120/5/3 119/5/3
f 130/5/3 117/5/3 116/5/3
f 130/5/3 115/5/3 114/5/3
f 130/5/3 114/5/3 113/5/3
f 130/5/3 113/5/3 112/5/3
f 130/5/3 112/5/3 111/5/3
f 130/5/3 116/5/3 115/5/3
f 131/2/3 122/2/3 121/2/3
f 131/1/3 121/1/3 103/1/3
f 132/1/3 123/1/3 122/1/3
f 132/2/3 122/2/3 131/2/3
f 133/6/3 127/6/3 126/6/3
f 133/6/3 128/6/3 127/6/3
f 133/6/3 129/6/3 128/6/3
f 133/5/3 125/5/3 124/5/3
f 133/6/3 126/6/3 125/6/3
f 134/5/3 130/5/3 129/5/3
f 134/6/3 129/6/3 133/6/3
f 135/7/3 57/7/3 120/7/3
f 135/5/3 130/5/3 134/5/3
f 135/5/3 120/5/3 130/5/3
f 136/5/3 87/5/3 57/5/3
f 136/7/3 57/7/3 135/7/3
f 137/5/3 134/5/3 133/5/3
f 137/5/3 133/5/3 124/5/3
f 137/5/3 136/5/3 135/5/3
f 137/5/3 135/5/3 134/5/3
f 138/5/3 136/5/3 137/5/3
f 139/6/3 138/6/3 137/6/3
f 140/5/3 136/5/3 138/5/3
f 140/6/3 138/6/3 139/6/3
f 141/1/3 132/1/3 131/1/3
f 141/3/3 103/3/3 87/3/3
f 141/1/3 131/1/3 103/1/3
f 142/1/3 123/1/3 132/1/3
f 142/1/3 132/1/3 141/1/3
f 142/8/3 106/8/3 123/8/3
f 143/8/3 106/8/3 142/8/3
f 144/3/3 141/3/3 87/3/3
f 144/5/3 136/5/3 140/5/3
f 144/5/3 87/5/3 136/5/3
f 144/5/3 140/5/3 139/5/3
f 145/8/3 142/8/3 141/8/3
f 145/3/3 141/3/3 144/3/3
f 146/8/3 142/8/3 145/8/3
f 147/5/3 144/5/3 139/5/3
f 147/6/3 139/6/3 137/6/3
f 148/5/3 144/5/3 147/5/3
f 149/5/3 137/5/3 124/5/3
f 149/6/3 147/6/3 137/6/3
f 149/6/3 148/6/3 147/6/3
f 150/5/3 144/5/3 148/5/3
f 150/6/3 148/6/3 149/6/3
f 151/5/3 124/5/3 107/5/3
f 151/8/3 107/8/3 35/8/3
f 151/5/3 150/5/3 149/5/3
f 151/5/3 149/5/3 124/5/3
f 152/8/3 145/8/3 144/8/3
f 152/5/3 150/5/3 151/5/3
f 152/5/3 144/5/3 150/5/3
f 153/8/3 151/8/3 35/8/3
f 153/8/3 152/8/3 151/8/3
f 154/8/3 145/8/3 152/8/3
f 154/8/3 152/8/3 153/8/3
f 155/7/4 156/7/4 158/7/4
f 158/7/4 156/7/4 159/7/4
f 157/8/4 158/8/4 161/8/4
f 161/8/4 158/8/4 162/8/4
f 162/8/4 158/8/4 163/8/4
f 163/8/4 158/8/4 164/8/4
f 164/8/4 158/8/4 165/8/4
f 165/8/4 158/8/4 166/8/4
f 166/8/4 158/8/4 167/8/4
f 167/8/4 158/8/4 168/8/4
f 168/8/4 158/8/4 169/8/4
f 169/8/4 158/8/4 170/8/4
f 170/8/4 158/8/4 171/8/4
f 171/8/4 158/8/4 172/8/4
f 172/8/4 158/8/4 173/8/4
f 173/8/4 158/8/4 174/8/4
f 174/8/4 158/8/4 175/8/4
f 175/8/4 158/8/4 176/8/4
f 176/8/4 158/8/4 177/8/4
f 158/7/4 159/7/4 178/7/4
f 177/8/4 158/8/4 178/8/4
f 159/8/4 160/8/4 179/8/4
f 178/7/4 159/7/4 179/7/4
f 179/8/4 160/8/4 180/8/4
f 170/5/4 171/5/4 181/5/4
f 171/4/4 172/4/4 181/4/4
f 172/6/4 173/6/4 182/6/4
f 181/4/4 172/4/4 182/4/4
f 173/4/4 174/4/4 183/4/4
f 182/6/4 173/6/4 183/6/4
f 174/6/4 175/6/4 184/6/4
f 183/4/4 174/4/4 184/4/4
f 175/4/4 176/4/4 185/4/4
f 184/6/4 175/6/4 185/6/4
f 176/6/4 177/6/4 186/6/4
f 185/4/4 176/4/4 186/4/4
f 177/4/4 178/4/4 187/4/4
f 186/6/4 177/6/4 187/6/4
f 178/7/4 179/7/4 188/7/4
f 187/4/4 178/4/4 188/4/4
f 170/5/4 181/5/4 189/5/4
f 181/6/4 182/6/4 189/6/4
f 182/1/4 183/1/4 190/1/4
f 189/6/4 182/6/4 190/6/4
f 183/1/4 184/1/4 190/1/4
f 185/2/4 186/2/4 191/2/4
f 184/2/4 185/2/4 191/2/4
f 186/1/4 187/1/4 191/1/4
f 187/6/4 188/6/4 192/6/4
f 191/1/4 187/1/4 192/1/4
f 188/7/4 179/7/4 193/7/4
f 192/6/4 188/6/4 193/6/4
f 189/4/4 190/4/4 194/4/4
f 170/5/4 189/5/4 194/5/4
f 190/1/4 184/1/4 195/1/4
f 194/4/4 190/4/4 195/4/4
f 191/2/4 192/2/4 196/2/4
f 195/1/4 184/1/4 196/1/4
f 184/2/4 191/2/4 196/2/4
f 196/2/4 192/2/4 197/2/4
f 192/4/4 193/4/4 198/4/4
f 197/2/4 192/2/4 198/2/4
f 193/7/4 179/7/4 199/7/4
f 198/4/4 193/4/4 199/4/4
f 170/5/4 194/5/4 200/5/4
f 194/6/4 195/6/4 200/6/4
f 196/1/4 197/1/4 201/1/4
f 200/6/4 195/6/4 201/6/4
f 195/1/4 196/1/4 201/1/4
f 197/2/4 198/2/4 202/2/4
f 201/1/4 197/1/4 202/1/4
f 198/6/4 199/6/4 203/6/4
f 202/2/4 198/2/4 203/2/4
f 199/7/4 179/7/4 204/7/4
f 203/6/4 199/6/4 204/6/4
f 200/4/4 201/4/4 205/4/4
f 170/5/4 200/5/4 205/5/4
f 202/1/4 203/1/4 206/1/4
f 205/4/4 201/4/4 206/4/4
f 201/1/4 202/1/4 206/1/4
f 203/4/4 204/4/4 207/4/4
f 206/1/4 203/1/4 207/1/4
f 204/7/4 179/7/4 208/7/4
f 207/4/4 204/4/4 208/4/4
f 180/8/4 160/8/4 209/8/4
f 179/5/4 180/5/4 209/5/4
f 209/8/4 160/8/4 210/8/4
f 157/8/4 161/8/4 212/8/4
f 161/1/4 162/1/4 212/1/4
f 162/2/4 163/2/4 213/2/4
f 212/1/4 162/1/4 213/1/4
f 167/1/4 168/1/4 214/1/4
f 168/2/4 169/2/4 214/2/4
f 169/6/4 170/6/4 215/6/4
f 214/2/4 169/2/4 215/2/4
f 170/5/4 205/5/4 216/5/4
f 215/6/4 170/6/4 216/6/4
f 205/6/4 206/6/4 217/6/4
f 216/5/4 205/5/4 217/5/4
f 206/1/4 207/1/4 218/1/4
f 217/6/4 206/6/4 218/6/4
f 218/1/4 207/1/4 219/1/4
f 219/1/4 207/1/4 220/1/4
f 220/1/4 207/1/4 221/1/4
f 221/1/4 207/1/4 222/1/4
f 207/6/4 208/6/4 223/6/4
f 222/1/4 207/1/4 223/1/4
f 208/7/4 179/7/4 224/7/4
f 223/6/4 208/6/4 224/6/4
f 210/8/4 211/8/4 225/8/4
f 209/3/4 210/3/4 225/3/4
f 225/8/4 211/8/4 226/8/4
f 226/8/4 211/8/4 227/8/4
f 157/8/4 212/8/4 229/8/4
f 212/6/4 213/6/4 229/6/4
f 213/2/4 163/2/4 230/2/4
f 229/6/4 213/6/4 230/6/4
f 163/1/4 164/1/4 231/1/4
f 230/2/4 163/2/4 231/2/4
f 166/2/4 167/2/4 232/2/4
f 167/1/4 214/1/4 232/1/4
f 214/6/4 215/6/4 233/6/4
f 232/1/4 214/1/4 233/1/4
f 216/5/4 217/5/4 234/5/4
f 233/6/4 215/6/4 234/6/4
f 215/5/4 216/5/4 234/5/4
f 217/4/4 218/4/4 235/4/4
f 234/5/4 217/5/4 235/5/4
f 218/6/4 219/6/4 236/6/4
f 235/4/4 218/4/4 236/4/4
f 219/4/4 220/4/4 237/4/4
f 236/6/4 219/6/4 237/6/4
f 220/6/4 221/6/4 238/6/4
f 237/4/4 220/4/4 238/4/4
f 221/4/4 222/4/4 239/4/4
f 238/6/4 221/6/4 239/6/4
f 222/6/4 223/6/4 240/6/4
f 239/4/4 222/4/4 240/4/4
f 223/4/4 224/4/4 241/4/4
f 240/6/4 223/6/4 241/6/4
f 224/7/4 179/7/4 242/7/4
f 241/4/4 224/4/4 242/4/4
f 225/1/4 226/1/4 243/1/4
f 226/2/4 227/2/4 244/2/4
f 243/1/4 226/1/4 244/1/4
f 227/8/4 228/8/4 245/8/4
f 244/2/4 227/2/4 245/2/4
f 229/5/4 230/5/4 246/5/4
f 230/6/4 231/6/4 246/6/4
f 231/1/4 164/1/4 247/1/4
f 246/6/4 231/6/4 247/6/4
f 164/2/4 165/2/4 248/2/4
f 247/1/4 164/1/4 248/1/4
f 165/1/4 166/1/4 249/1/4
f 248/2/4 165/2/4 249/2/4
f 166/2/4 232/2/4 250/2/4
f 249/1/4 166/1/4 250/1/4
f 232/6/4 233/6/4 251/6/4
f 250/2/4 232/2/4 251/2/4
f 240/5/4 241/5/4 252/5/4
f 251/6/4 233/6/4 252/6/4
f 239/5/4 240/5/4 252/5/4
f 241/5/4 242/5/4 252/5/4
f 238/5/4 239/5/4 252/5/4
f 236/5/4 237/5/4 252/5/4
f 235/5/4 236/5/4 252/5/4
f 234/5/4 235/5/4 252/5/4
f 233/5/4 234/5/4 252/5/4
f 237/5/4 238/5/4 252/5/4
f 243/2/4 244/2/4 253/2/4
f 225/1/4 243/1/4 253/1/4
f 244/1/4 245/1/4 254/1/4
f 253/2/4 244/2/4 254/2/4
f 248/6/4 249/6/4 255/6/4
f 249/6/4 250/6/4 255/6/4
f 250/6/4 251/6/4 255/6/4
f 246/5/4 247/5/4 255/5/4
f 247/6/4 248/6/4 255/6/4
f 251/5/4 252/5/4 256/5/4
f 255/6/4 251/6/4 256/6/4
f 242/7/4 179/7/4 257/7/4
f 256/5/4 252/5/4 257/5/4
f 252/5/4 242/5/4 257/5/4
f 179/5/4 209/5/4 258/5/4
f 257/7/4 179/7/4 258/7/4
f 255/5/4 256/5/4 259/5/4
f 246/5/4 255/5/4 259/5/4
f 257/5/4 258/5/4 259/5/4
f 256/5/4 257/5/4 259/5/4
f 259/5/4 258/5/4 260/5/4
f 259/6/4 260/6/4 261/6/4
f 260/5/4 258/5/4 262/5/4
f 261/6/4 260/6/4 262/6/4
f 253/1/4 254/1/4 263/1/4
f 209/3/4 225/3/4 263/3/4
f 225/1/4 253/1/4 263/1/4
f 254/1/4 245/1/4 264/1/4
f 263/1/4 254/1/4 264/1/4
f 245/8/4 228/8/4 264/8/4
f 264/8/4 228/8/4 265/8/4
f 209/3/4 263/3/4 266/3/4
f 262/5/4 258/5/4 266/5/4
f 258/5/4 209/5/4 266/5/4
f 261/5/4 262/5/4 266/5/4
f 263/8/4 264/8/4 267/8/4
f 266/3/4 263/3/4 267/3/4
f 267/8/4 264/8/4 268/8/4
f 261/5/4 266/5/4 269/5/4
f 259/6/4 261/6/4 269/6/4
f 269/5/4 266/5/4 270/5/4
f 246/5/4 259/5/4 271/5/4
f 259/6/4 269/6/4 271/6/4
f 269/6/4 270/6/4 271/6/4
f 270/5/4 266/5/4 272/5/4
f 271/6/4 270/6/4 272/6/4
f 229/5/4 246/5/4 273/5/4
f 157/8/4 229/8/4 273/8/4
f 271/5/4 272/5/4 273/5/4
f 246/5/4 271/5/4 273/5/4
f 266/8/4 267/8/4 274/8/4
f 273/5/4 272/5/4 274/5/4
f 272/5/4 266/5/4 274/5/4
f 157/8/4 273/8/4 275/8/4
f 273/8/4 274/8/4 275/8/4
f 274/8/4 267/8/4 276/8/4
f 275/8/4 274/8/4 276/8/4
f 279/8/5 278/8/5 277/8/5
f 280/8/5 278/8/5 279/8/5
f 283/7/5 282/7/5 281/7/5
f 284/7/5 282/7/5 283/7/5
f 285/7/6 286/7/6 287/7/6
f 287/7/6 286/7/6 288/7/6
f 289/8/6 290/8/6 293/8/6
f 293/8/6 290/8/6 294/8/6
f 291/8/6 292/8/6 295/8/6
f 295/8/6 292/8/6 296/8/6
f 297/8/6 298/8/6 301/8/6
f 301/8/6 298/8/6 302/8/6
f 299/8/6 300/8/6 303/8/6
f 303/8/6 300/8/6 304/8/6
f 305/8/6 306/8/6 307/8/6
f 307/8/6 306/8/6 308/8/6
