# MagicaVoxel @ Ephtracy

# group
o 

# material
mtllib FollowBossBullet.mtl
usemtl palette

# normals
vn -1 0 0
vn 1 0 0
vn 0 0 1
vn 0 0 -1
vn 0 -1 0
vn 0 1 0

# texcoords
vt 0.841797 0.5
vt 0.845703 0.5
vt 0.857422 0.5
vt 0.865234 0.5
vt 0.873047 0.5
vt 0.994141 0.5

# verts
v 0.6 3.4 0
v 0.6 3.4 -0.1
v 0.6 3.5 0
v 0.6 3.5 -0.1
v 0.7 3.3 0
v 0.7 3.3 -0.1
v 0.7 3.4 0
v 0.7 3.4 -0.1
v 0.7 3.5 0
v 0.7 3.5 -0.1
v 0.7 3.6 0
v 0.7 3.6 -0.1
v 0.8 3.2 0
v 0.8 3.2 -0.1
v 0.8 3.3 0
v 0.8 3.3 -0.1
v 0.8 3.6 0
v 0.8 3.6 -0.1
v 0.8 3.7 0
v 0.8 3.7 -0.1
v 0.9 3.1 0
v 0.9 3.1 -0.1
v 0.9 3.2 0
v 0.9 3.2 -0.1
v 0.9 3.7 0
v 0.9 3.7 -0.1
v 0.9 3.8 0
v 0.9 3.8 -0.1
v 1 3 0
v 1 3 -0.1
v 1 3.1 0
v 1 3.1 -0.1
v 1 3.8 0
v 1 3.8 -0.1
v 1 3.9 0
v 1 3.9 -0.1
v 1.7 3.8 0
v 1.7 3.8 -0.1
v 1.7 3.9 0
v 1.7 3.9 -0.1
v 1.8 3 0
v 1.8 3 -0.1
v 1.8 3.1 0
v 1.8 3.1 -0.1
v 2 3.8 0
v 2 3.8 -0.1
v 2 3.9 0
v 2 3.9 -0.1
v 2.2 2.9 0
v 2.2 2.9 -0.1
v 2.2 3 0
v 2.2 3 -0.1
v 2.4 3.1 0
v 2.4 3.1 -0.1
v 2.4 3.2 0
v 2.4 3.2 -0.1
v 2.4 3.7 0
v 2.4 3.7 -0.1
v 2.4 3.8 0
v 2.4 3.8 -0.1
v 2.5 3.5 0
v 2.5 3.5 -0.1
v 2.5 3.6 0
v 2.5 3.6 -0.1
v 2.6 3.3 0
v 2.6 3.3 -0.1
v 2.6 3.4 0
v 2.6 3.4 -0.1
v 2.6 3.8 0
v 2.6 3.8 -0.1
v 2.6 3.9 0
v 2.6 3.9 -0.1
v 2.8 2.9 0
v 2.8 2.9 -0.1
v 2.8 3 0
v 2.8 3 -0.1
v 2.9 3.4 0
v 2.9 3.4 -0.1
v 2.9 3.5 0
v 2.9 3.5 -0.1
v 2.9 3.6 0
v 2.9 3.6 -0.1
v 2.9 3.7 0
v 2.9 3.7 -0.1
v 3 3.1 0
v 3 3.1 -0.1
v 3 3.2 0
v 3 3.2 -0.1
v 3.2 3.3 0
v 3.2 3.3 -0.1
v 3.2 3.4 0
v 3.2 3.4 -0.1
v 1.1 3 0
v 1.1 3 -0.1
v 1.1 3.1 0
v 1.1 3.1 -0.1
v 1.1 3.8 0
v 1.1 3.8 -0.1
v 1.1 3.9 0
v 1.1 3.9 -0.1
v 1.7 3.1 0
v 1.7 3.1 -0.1
v 1.7 3.2 0
v 1.7 3.2 -0.1
v 1.7 3.7 0
v 1.7 3.7 -0.1
v 1.7 3.8 0
v 1.7 3.8 -0.1
v 1.8 3.8 0
v 1.8 3.8 -0.1
v 1.8 3.9 0
v 1.8 3.9 -0.1
v 1.9 3 0
v 1.9 3 -0.1
v 1.9 3.1 0
v 1.9 3.1 -0.1
v 2.1 3.6 0
v 2.1 3.6 -0.1
v 2.1 3.7 0
v 2.1 3.7 -0.1
v 2.1 3.8 0
v 2.1 3.8 -0.1
v 2.1 3.9 0
v 2.1 3.9 -0.1
v 2.2 3.2 0
v 2.2 3.2 -0.1
v 2.2 3.3 0
v 2.2 3.3 -0.1
v 2.3 2.9 0
v 2.3 2.9 -0.1
v 2.3 3 0
v 2.3 3 -0.1
v 2.3 3.3 0
v 2.3 3.3 -0.1
v 2.3 3.4 0
v 2.3 3.4 -0.1
v 2.3 3.5 0
v 2.3 3.5 -0.1
v 2.3 3.6 0
v 2.3 3.6 -0.1
v 2.4 3.4 0
v 2.4 3.4 -0.1
v 2.4 3.5 0
v 2.4 3.5 -0.1
v 2.5 3.1 0
v 2.5 3.1 -0.1
v 2.5 3.2 0
v 2.5 3.2 -0.1
v 2.5 3.7 0
v 2.5 3.7 -0.1
v 2.5 3.8 0
v 2.5 3.8 -0.1
v 2.6 3.5 0
v 2.6 3.5 -0.1
v 2.6 3.6 0
v 2.6 3.6 -0.1
v 2.7 3.3 0
v 2.7 3.3 -0.1
v 2.7 3.4 0
v 2.7 3.4 -0.1
v 2.7 3.8 0
v 2.7 3.8 -0.1
v 2.7 3.9 0
v 2.7 3.9 -0.1
v 2.9 2.9 0
v 2.9 2.9 -0.1
v 2.9 3 0
v 2.9 3 -0.1
v 3 3.4 0
v 3 3.4 -0.1
v 3 3.5 0
v 3 3.5 -0.1
v 3 3.6 0
v 3 3.6 -0.1
v 3 3.7 0
v 3 3.7 -0.1
v 3.1 3.1 0
v 3.1 3.1 -0.1
v 3.1 3.2 0
v 3.1 3.2 -0.1
v 3.3 3.3 0
v 3.3 3.3 -0.1
v 3.3 3.4 0
v 3.3 3.4 -0.1
v 0.6 3.4 0
v 0.6 3.5 0
v 0.7 3.3 0
v 0.7 3.4 0
v 0.7 3.5 0
v 0.7 3.6 0
v 0.8 3.2 0
v 0.8 3.3 0
v 0.8 3.4 0
v 0.8 3.5 0
v 0.8 3.6 0
v 0.8 3.7 0
v 0.9 3.1 0
v 0.9 3.2 0
v 0.9 3.3 0
v 0.9 3.6 0
v 0.9 3.7 0
v 0.9 3.8 0
v 1 3 0
v 1 3.1 0
v 1 3.2 0
v 1 3.7 0
v 1 3.8 0
v 1 3.9 0
v 1.1 3 0
v 1.1 3.1 0
v 1.1 3.2 0
v 1.1 3.3 0
v 1.1 3.4 0
v 1.1 3.5 0
v 1.1 3.6 0
v 1.1 3.7 0
v 1.1 3.8 0
v 1.1 3.9 0
v 1.6 3.4 0
v 1.6 3.5 0
v 1.7 3.1 0
v 1.7 3.2 0
v 1.7 3.3 0
v 1.7 3.6 0
v 1.7 3.7 0
v 1.7 3.8 0
v 1.7 3.9 0
v 1.8 3 0
v 1.8 3.1 0
v 1.8 3.2 0
v 1.8 3.3 0
v 1.8 3.6 0
v 1.8 3.7 0
v 1.8 3.8 0
v 1.8 3.9 0
v 1.9 3 0
v 1.9 3.1 0
v 1.9 3.3 0
v 1.9 3.4 0
v 1.9 3.5 0
v 1.9 3.6 0
v 2 3.8 0
v 2 3.9 0
v 2.1 3.4 0
v 2.1 3.5 0
v 2.1 3.6 0
v 2.1 3.7 0
v 2.1 3.8 0
v 2.1 3.9 0
v 2.2 2.9 0
v 2.2 3 0
v 2.2 3.2 0
v 2.2 3.3 0
v 2.2 3.4 0
v 2.3 2.9 0
v 2.3 3 0
v 2.3 3.3 0
v 2.3 3.4 0
v 2.3 3.5 0
v 2.3 3.6 0
v 2.4 3.1 0
v 2.4 3.2 0
v 2.4 3.4 0
v 2.4 3.5 0
v 2.4 3.7 0
v 2.4 3.8 0
v 2.5 3.1 0
v 2.5 3.2 0
v 2.5 3.5 0
v 2.5 3.6 0
v 2.5 3.7 0
v 2.5 3.8 0
v 2.6 3.3 0
v 2.6 3.4 0
v 2.6 3.5 0
v 2.6 3.6 0
v 2.6 3.8 0
v 2.6 3.9 0
v 2.7 3.3 0
v 2.7 3.4 0
v 2.7 3.8 0
v 2.7 3.9 0
v 2.8 2.9 0
v 2.8 3 0
v 2.9 2.9 0
v 2.9 3 0
v 2.9 3.4 0
v 2.9 3.5 0
v 2.9 3.6 0
v 2.9 3.7 0
v 3 3.1 0
v 3 3.2 0
v 3 3.4 0
v 3 3.5 0
v 3 3.6 0
v 3 3.7 0
v 3.1 3.1 0
v 3.1 3.2 0
v 3.2 3.3 0
v 3.2 3.4 0
v 3.3 3.3 0
v 3.3 3.4 0
v 0.6 3.4 -0.1
v 0.6 3.5 -0.1
v 0.7 3.3 -0.1
v 0.7 3.4 -0.1
v 0.7 3.5 -0.1
v 0.7 3.6 -0.1
v 0.8 3.2 -0.1
v 0.8 3.3 -0.1
v 0.8 3.4 -0.1
v 0.8 3.5 -0.1
v 0.8 3.6 -0.1
v 0.8 3.7 -0.1
v 0.9 3.1 -0.1
v 0.9 3.2 -0.1
v 0.9 3.3 -0.1
v 0.9 3.6 -0.1
v 0.9 3.7 -0.1
v 0.9 3.8 -0.1
v 1 3 -0.1
v 1 3.1 -0.1
v 1 3.2 -0.1
v 1 3.7 -0.1
v 1 3.8 -0.1
v 1 3.9 -0.1
v 1.1 3 -0.1
v 1.1 3.1 -0.1
v 1.1 3.2 -0.1
v 1.1 3.3 -0.1
v 1.1 3.4 -0.1
v 1.1 3.5 -0.1
v 1.1 3.6 -0.1
v 1.1 3.7 -0.1
v 1.1 3.8 -0.1
v 1.1 3.9 -0.1
v 1.6 3.4 -0.1
v 1.6 3.5 -0.1
v 1.7 3.1 -0.1
v 1.7 3.2 -0.1
v 1.7 3.3 -0.1
v 1.7 3.6 -0.1
v 1.7 3.7 -0.1
v 1.7 3.8 -0.1
v 1.7 3.9 -0.1
v 1.8 3 -0.1
v 1.8 3.1 -0.1
v 1.8 3.2 -0.1
v 1.8 3.3 -0.1
v 1.8 3.6 -0.1
v 1.8 3.7 -0.1
v 1.8 3.8 -0.1
v 1.8 3.9 -0.1
v 1.9 3 -0.1
v 1.9 3.1 -0.1
v 1.9 3.3 -0.1
v 1.9 3.4 -0.1
v 1.9 3.5 -0.1
v 1.9 3.6 -0.1
v 2 3.8 -0.1
v 2 3.9 -0.1
v 2.1 3.4 -0.1
v 2.1 3.5 -0.1
v 2.1 3.6 -0.1
v 2.1 3.7 -0.1
v 2.1 3.8 -0.1
v 2.1 3.9 -0.1
v 2.2 2.9 -0.1
v 2.2 3 -0.1
v 2.2 3.2 -0.1
v 2.2 3.3 -0.1
v 2.2 3.4 -0.1
v 2.3 2.9 -0.1
v 2.3 3 -0.1
v 2.3 3.3 -0.1
v 2.3 3.4 -0.1
v 2.3 3.5 -0.1
v 2.3 3.6 -0.1
v 2.4 3.1 -0.1
v 2.4 3.2 -0.1
v 2.4 3.4 -0.1
v 2.4 3.5 -0.1
v 2.4 3.7 -0.1
v 2.4 3.8 -0.1
v 2.5 3.1 -0.1
v 2.5 3.2 -0.1
v 2.5 3.5 -0.1
v 2.5 3.6 -0.1
v 2.5 3.7 -0.1
v 2.5 3.8 -0.1
v 2.6 3.3 -0.1
v 2.6 3.4 -0.1
v 2.6 3.5 -0.1
v 2.6 3.6 -0.1
v 2.6 3.8 -0.1
v 2.6 3.9 -0.1
v 2.7 3.3 -0.1
v 2.7 3.4 -0.1
v 2.7 3.8 -0.1
v 2.7 3.9 -0.1
v 2.8 2.9 -0.1
v 2.8 3 -0.1
v 2.9 2.9 -0.1
v 2.9 3 -0.1
v 2.9 3.4 -0.1
v 2.9 3.5 -0.1
v 2.9 3.6 -0.1
v 2.9 3.7 -0.1
v 3 3.1 -0.1
v 3 3.2 -0.1
v 3 3.4 -0.1
v 3 3.5 -0.1
v 3 3.6 -0.1
v 3 3.7 -0.1
v 3.1 3.1 -0.1
v 3.1 3.2 -0.1
v 3.2 3.3 -0.1
v 3.2 3.4 -0.1
v 3.3 3.3 -0.1
v 3.3 3.4 -0.1
v 2.2 2.9 0
v 2.3 2.9 0
v 2.8 2.9 0
v 2.9 2.9 0
v 2.2 2.9 -0.1
v 2.3 2.9 -0.1
v 2.8 2.9 -0.1
v 2.9 2.9 -0.1
v 1 3 0
v 1.1 3 0
v 1.8 3 0
v 1.9 3 0
v 1 3 -0.1
v 1.1 3 -0.1
v 1.8 3 -0.1
v 1.9 3 -0.1
v 0.9 3.1 0
v 1 3.1 0
v 1.1 3.1 0
v 1.7 3.1 0
v 2.4 3.1 0
v 2.5 3.1 0
v 3 3.1 0
v 3.1 3.1 0
v 0.9 3.1 -0.1
v 1 3.1 -0.1
v 1.1 3.1 -0.1
v 1.7 3.1 -0.1
v 2.4 3.1 -0.1
v 2.5 3.1 -0.1
v 3 3.1 -0.1
v 3.1 3.1 -0.1
v 0.8 3.2 0
v 0.9 3.2 0
v 1.7 3.2 0
v 1.8 3.2 0
v 2.2 3.2 0
v 0.8 3.2 -0.1
v 0.9 3.2 -0.1
v 1.7 3.2 -0.1
v 1.8 3.2 -0.1
v 2.2 3.2 -0.1
v 0.7 3.3 0
v 0.8 3.3 0
v 2.2 3.3 0
v 2.3 3.3 0
v 2.6 3.3 0
v 2.7 3.3 0
v 3.2 3.3 0
v 3.3 3.3 0
v 0.7 3.3 -0.1
v 0.8 3.3 -0.1
v 2.2 3.3 -0.1
v 2.3 3.3 -0.1
v 2.6 3.3 -0.1
v 2.7 3.3 -0.1
v 3.2 3.3 -0.1
v 3.3 3.3 -0.1
v 0.6 3.4 0
v 0.7 3.4 0
v 2.3 3.4 0
v 2.4 3.4 0
v 2.9 3.4 0
v 3 3.4 0
v 0.6 3.4 -0.1
v 0.7 3.4 -0.1
v 2.3 3.4 -0.1
v 2.4 3.4 -0.1
v 2.9 3.4 -0.1
v 3 3.4 -0.1
v 2.5 3.5 0
v 2.6 3.5 0
v 2.5 3.5 -0.1
v 2.6 3.5 -0.1
v 2.9 3.6 0
v 3 3.6 0
v 2.9 3.6 -0.1
v 3 3.6 -0.1
v 2.4 3.7 0
v 2.5 3.7 0
v 2.4 3.7 -0.1
v 2.5 3.7 -0.1
v 1.7 3.8 0
v 1.8 3.8 0
v 2 3.8 0
v 2.1 3.8 0
v 2.6 3.8 0
v 2.7 3.8 0
v 1.7 3.8 -0.1
v 1.8 3.8 -0.1
v 2 3.8 -0.1
v 2.1 3.8 -0.1
v 2.6 3.8 -0.1
v 2.7 3.8 -0.1
v 2.2 3 0
v 2.3 3 0
v 2.8 3 0
v 2.9 3 0
v 2.2 3 -0.1
v 2.3 3 -0.1
v 2.8 3 -0.1
v 2.9 3 -0.1
v 1.8 3.1 0
v 1.9 3.1 0
v 1.8 3.1 -0.1
v 1.9 3.1 -0.1
v 2.4 3.2 0
v 2.5 3.2 0
v 3 3.2 0
v 3.1 3.2 0
v 2.4 3.2 -0.1
v 2.5 3.2 -0.1
v 3 3.2 -0.1
v 3.1 3.2 -0.1
v 2.6 3.4 0
v 2.7 3.4 0
v 3.2 3.4 0
v 3.3 3.4 0
v 2.6 3.4 -0.1
v 2.7 3.4 -0.1
v 3.2 3.4 -0.1
v 3.3 3.4 -0.1
v 0.6 3.5 0
v 0.7 3.5 0
v 2.3 3.5 0
v 2.4 3.5 0
v 2.9 3.5 0
v 3 3.5 0
v 0.6 3.5 -0.1
v 0.7 3.5 -0.1
v 2.3 3.5 -0.1
v 2.4 3.5 -0.1
v 2.9 3.5 -0.1
v 3 3.5 -0.1
v 0.7 3.6 0
v 0.8 3.6 0
v 2.1 3.6 0
v 2.3 3.6 0
v 2.5 3.6 0
v 2.6 3.6 0
v 0.7 3.6 -0.1
v 0.8 3.6 -0.1
v 2.1 3.6 -0.1
v 2.3 3.6 -0.1
v 2.5 3.6 -0.1
v 2.6 3.6 -0.1
v 0.8 3.7 0
v 0.9 3.7 0
v 1.7 3.7 0
v 1.8 3.7 0
v 2.1 3.7 0
v 2.9 3.7 0
v 3 3.7 0
v 0.8 3.7 -0.1
v 0.9 3.7 -0.1
v 1.7 3.7 -0.1
v 1.8 3.7 -0.1
v 2.1 3.7 -0.1
v 2.9 3.7 -0.1
v 3 3.7 -0.1
v 0.9 3.8 0
v 1 3.8 0
v 1.1 3.8 0
v 1.7 3.8 0
v 2.4 3.8 0
v 2.5 3.8 0
v 0.9 3.8 -0.1
v 1 3.8 -0.1
v 1.1 3.8 -0.1
v 1.7 3.8 -0.1
v 2.4 3.8 -0.1
v 2.5 3.8 -0.1
v 1 3.9 0
v 1.1 3.9 0
v 1.7 3.9 0
v 1.8 3.9 0
v 2 3.9 0
v 2.1 3.9 0
v 2.6 3.9 0
v 2.7 3.9 0
v 1 3.9 -0.1
v 1.1 3.9 -0.1
v 1.7 3.9 -0.1
v 1.8 3.9 -0.1
v 2 3.9 -0.1
v 2.1 3.9 -0.1
v 2.6 3.9 -0.1
v 2.7 3.9 -0.1

# faces
f 3/6/1 2/6/1 1/6/1
f 4/6/1 2/6/1 3/6/1
f 7/6/1 6/6/1 5/6/1
f 8/6/1 6/6/1 7/6/1
f 11/6/1 10/6/1 9/6/1
f 12/6/1 10/6/1 11/6/1
f 15/6/1 14/6/1 13/6/1
f 16/6/1 14/6/1 15/6/1
f 19/6/1 18/6/1 17/6/1
f 20/6/1 18/6/1 19/6/1
f 23/6/1 22/6/1 21/6/1
f 24/6/1 22/6/1 23/6/1
f 27/6/1 26/6/1 25/6/1
f 28/6/1 26/6/1 27/6/1
f 31/6/1 30/6/1 29/6/1
f 32/6/1 30/6/1 31/6/1
f 35/6/1 34/6/1 33/6/1
f 36/6/1 34/6/1 35/6/1
f 39/5/1 38/5/1 37/5/1
f 40/5/1 38/5/1 39/5/1
f 43/5/1 42/5/1 41/5/1
f 44/5/1 42/5/1 43/5/1
f 47/5/1 46/5/1 45/5/1
f 48/5/1 46/5/1 47/5/1
f 51/5/1 50/5/1 49/5/1
f 52/5/1 50/5/1 51/5/1
f 55/5/1 54/5/1 53/5/1
f 56/5/1 54/5/1 55/5/1
f 59/5/1 58/5/1 57/5/1
f 60/5/1 58/5/1 59/5/1
f 63/5/1 62/5/1 61/5/1
f 64/5/1 62/5/1 63/5/1
f 67/5/1 66/5/1 65/5/1
f 68/5/1 66/5/1 67/5/1
f 71/5/1 70/5/1 69/5/1
f 72/5/1 70/5/1 71/5/1
f 75/5/1 74/5/1 73/5/1
f 76/5/1 74/5/1 75/5/1
f 79/5/1 78/5/1 77/5/1
f 80/5/1 78/5/1 79/5/1
f 83/5/1 82/5/1 81/5/1
f 84/5/1 82/5/1 83/5/1
f 87/5/1 86/5/1 85/5/1
f 88/5/1 86/5/1 87/5/1
f 91/5/1 90/5/1 89/5/1
f 92/5/1 90/5/1 91/5/1
f 93/6/2 94/6/2 95/6/2
f 95/6/2 94/6/2 96/6/2
f 97/6/2 98/6/2 99/6/2
f 99/6/2 98/6/2 100/6/2
f 101/6/2 102/6/2 103/6/2
f 103/6/2 102/6/2 104/6/2
f 105/6/2 106/6/2 107/6/2
f 107/6/2 106/6/2 108/6/2
f 109/5/2 110/5/2 111/5/2
f 111/5/2 110/5/2 112/5/2
f 113/5/2 114/5/2 115/5/2
f 115/5/2 114/5/2 116/5/2
f 117/1/2 118/1/2 119/1/2
f 119/1/2 118/1/2 120/1/2
f 121/5/2 122/5/2 123/5/2
f 123/5/2 122/5/2 124/5/2
f 125/1/2 126/1/2 127/1/2
f 127/1/2 126/1/2 128/1/2
f 129/5/2 130/5/2 131/5/2
f 131/5/2 130/5/2 132/5/2
f 133/1/2 134/1/2 135/1/2
f 135/1/2 134/1/2 136/1/2
f 137/1/2 138/1/2 139/1/2
f 139/1/2 138/1/2 140/1/2
f 141/1/2 142/1/2 143/1/2
f 143/1/2 142/1/2 144/1/2
f 145/5/2 146/5/2 147/5/2
f 147/5/2 146/5/2 148/5/2
f 149/5/2 150/5/2 151/5/2
f 151/5/2 150/5/2 152/5/2
f 153/5/2 154/5/2 155/5/2
f 155/5/2 154/5/2 156/5/2
f 157/5/2 158/5/2 159/5/2
f 159/5/2 158/5/2 160/5/2
f 161/5/2 162/5/2 163/5/2
f 163/5/2 162/5/2 164/5/2
f 165/5/2 166/5/2 167/5/2
f 167/5/2 166/5/2 168/5/2
f 169/5/2 170/5/2 171/5/2
f 171/5/2 170/5/2 172/5/2
f 173/5/2 174/5/2 175/5/2
f 175/5/2 174/5/2 176/5/2
f 177/5/2 178/5/2 179/5/2
f 179/5/2 178/5/2 180/5/2
f 181/5/2 182/5/2 183/5/2
f 183/5/2 182/5/2 184/5/2
f 188/6/3 186/6/3 185/6/3
f 189/6/3 186/6/3 188/6/3
f 192/6/3 188/6/3 187/6/3
f 193/3/3 189/3/3 188/3/3
f 193/6/3 188/6/3 192/6/3
f 194/6/3 190/6/3 189/6/3
f 194/3/3 189/3/3 193/3/3
f 195/6/3 190/6/3 194/6/3
f 198/6/3 192/6/3 191/6/3
f 199/3/3 193/3/3 192/3/3
f 199/3/3 194/3/3 193/3/3
f 199/6/3 192/6/3 198/6/3
f 199/3/3 195/3/3 194/3/3
f 200/6/3 196/6/3 195/6/3
f 200/3/3 195/3/3 199/3/3
f 201/6/3 196/6/3 200/6/3
f 204/6/3 198/6/3 197/6/3
f 205/3/3 199/3/3 198/3/3
f 205/3/3 200/3/3 199/3/3
f 205/6/3 198/6/3 204/6/3
f 205/3/3 201/3/3 200/3/3
f 206/6/3 202/6/3 201/6/3
f 206/3/3 201/3/3 205/3/3
f 207/6/3 202/6/3 206/6/3
f 209/6/3 204/6/3 203/6/3
f 210/3/3 205/3/3 204/3/3
f 210/6/3 204/6/3 209/6/3
f 210/3/3 206/3/3 205/3/3
f 210/3/3 207/3/3 206/3/3
f 211/3/3 207/3/3 210/3/3
f 212/3/3 207/3/3 211/3/3
f 213/3/3 207/3/3 212/3/3
f 214/3/3 207/3/3 213/3/3
f 215/3/3 207/3/3 214/3/3
f 216/3/3 207/3/3 215/3/3
f 217/6/3 208/6/3 207/6/3
f 217/3/3 207/3/3 216/3/3
f 218/6/3 208/6/3 217/6/3
f 219/4/3 213/4/3 212/4/3
f 219/3/3 214/3/3 213/3/3
f 220/4/3 215/4/3 214/4/3
f 220/3/3 214/3/3 219/3/3
f 221/6/3 211/6/3 210/6/3
f 222/5/3 212/5/3 211/5/3
f 222/6/3 211/6/3 221/6/3
f 223/4/3 219/4/3 212/4/3
f 223/5/3 212/5/3 222/5/3
f 223/4/3 220/4/3 219/4/3
f 224/5/3 216/5/3 215/5/3
f 224/4/3 220/4/3 223/4/3
f 224/4/3 215/4/3 220/4/3
f 225/6/3 217/6/3 216/6/3
f 225/5/3 216/5/3 224/5/3
f 226/6/3 217/6/3 225/6/3
f 230/6/3 223/6/3 222/6/3
f 231/5/3 224/5/3 223/5/3
f 231/6/3 223/6/3 230/6/3
f 232/6/3 225/6/3 224/6/3
f 232/5/3 224/5/3 231/5/3
f 233/6/3 225/6/3 232/6/3
f 234/5/3 227/5/3 226/5/3
f 235/5/3 227/5/3 234/5/3
f 236/5/3 229/5/3 228/5/3
f 237/5/3 229/5/3 236/5/3
f 238/1/3 231/1/3 230/1/3
f 238/6/3 232/6/3 231/6/3
f 239/6/3 232/6/3 238/6/3
f 240/6/3 232/6/3 239/6/3
f 241/1/3 233/1/3 232/1/3
f 241/6/3 232/6/3 240/6/3
f 244/2/3 240/2/3 239/2/3
f 244/4/3 239/4/3 238/4/3
f 245/4/3 241/4/3 240/4/3
f 245/2/3 240/2/3 244/2/3
f 246/1/3 233/1/3 241/1/3
f 246/4/3 241/4/3 245/4/3
f 247/1/3 233/1/3 246/1/3
f 248/5/3 243/5/3 242/5/3
f 249/5/3 243/5/3 248/5/3
f 252/1/3 238/1/3 230/1/3
f 253/4/3 245/4/3 244/4/3
f 253/1/3 238/1/3 252/1/3
f 253/4/3 244/4/3 238/4/3
f 254/4/3 245/4/3 253/4/3
f 255/5/3 251/5/3 250/5/3
f 256/5/3 251/5/3 255/5/3
f 257/1/3 254/1/3 253/1/3
f 258/4/3 245/4/3 254/4/3
f 258/1/3 254/1/3 257/1/3
f 259/1/3 246/1/3 245/1/3
f 259/4/3 245/4/3 258/4/3
f 260/1/3 246/1/3 259/1/3
f 263/1/3 259/1/3 258/1/3
f 264/1/3 259/1/3 263/1/3
f 267/5/3 262/5/3 261/5/3
f 268/5/3 262/5/3 267/5/3
f 271/5/3 266/5/3 265/5/3
f 272/5/3 266/5/3 271/5/3
f 275/5/3 270/5/3 269/5/3
f 276/5/3 270/5/3 275/5/3
f 279/5/3 274/5/3 273/5/3
f 280/5/3 274/5/3 279/5/3
f 281/5/3 278/5/3 277/5/3
f 282/5/3 278/5/3 281/5/3
f 285/5/3 284/5/3 283/5/3
f 286/5/3 284/5/3 285/5/3
f 293/5/3 288/5/3 287/5/3
f 294/5/3 288/5/3 293/5/3
f 295/5/3 290/5/3 289/5/3
f 296/5/3 290/5/3 295/5/3
f 297/5/3 292/5/3 291/5/3
f 298/5/3 292/5/3 297/5/3
f 301/5/3 300/5/3 299/5/3
f 302/5/3 300/5/3 301/5/3
f 303/6/4 304/6/4 306/6/4
f 306/6/4 304/6/4 307/6/4
f 305/6/4 306/6/4 310/6/4
f 306/3/4 307/3/4 311/3/4
f 310/6/4 306/6/4 311/6/4
f 307/6/4 308/6/4 312/6/4
f 311/3/4 307/3/4 312/3/4
f 312/6/4 308/6/4 313/6/4
f 309/6/4 310/6/4 316/6/4
f 310/3/4 311/3/4 317/3/4
f 311/3/4 312/3/4 317/3/4
f 316/6/4 310/6/4 317/6/4
f 312/3/4 313/3/4 317/3/4
f 313/6/4 314/6/4 318/6/4
f 317/3/4 313/3/4 318/3/4
f 318/6/4 314/6/4 319/6/4
f 315/6/4 316/6/4 322/6/4
f 316/3/4 317/3/4 323/3/4
f 317/3/4 318/3/4 323/3/4
f 322/6/4 316/6/4 323/6/4
f 318/3/4 319/3/4 323/3/4
f 319/6/4 320/6/4 324/6/4
f 323/3/4 319/3/4 324/3/4
f 324/6/4 320/6/4 325/6/4
f 321/6/4 322/6/4 327/6/4
f 322/3/4 323/3/4 328/3/4
f 327/6/4 322/6/4 328/6/4
f 323/3/4 324/3/4 328/3/4
f 324/3/4 325/3/4 328/3/4
f 328/3/4 325/3/4 329/3/4
f 329/3/4 325/3/4 330/3/4
f 330/3/4 325/3/4 331/3/4
f 331/3/4 325/3/4 332/3/4
f 332/3/4 325/3/4 333/3/4
f 333/3/4 325/3/4 334/3/4
f 325/6/4 326/6/4 335/6/4
f 334/3/4 325/3/4 335/3/4
f 335/6/4 326/6/4 336/6/4
f 330/4/4 331/4/4 337/4/4
f 331/3/4 332/3/4 337/3/4
f 332/4/4 333/4/4 338/4/4
f 337/3/4 332/3/4 338/3/4
f 328/6/4 329/6/4 339/6/4
f 329/5/4 330/5/4 340/5/4
f 339/6/4 329/6/4 340/6/4
f 330/4/4 337/4/4 341/4/4
f 340/5/4 330/5/4 341/5/4
f 337/4/4 338/4/4 341/4/4
f 333/5/4 334/5/4 342/5/4
f 341/4/4 338/4/4 342/4/4
f 338/4/4 333/4/4 342/4/4
f 334/6/4 335/6/4 343/6/4
f 342/5/4 334/5/4 343/5/4
f 343/6/4 335/6/4 344/6/4
f 340/6/4 341/6/4 348/6/4
f 341/5/4 342/5/4 349/5/4
f 348/6/4 341/6/4 349/6/4
f 342/6/4 343/6/4 350/6/4
f 349/5/4 342/5/4 350/5/4
f 350/6/4 343/6/4 351/6/4
f 344/5/4 345/5/4 352/5/4
f 352/5/4 345/5/4 353/5/4
f 346/5/4 347/5/4 354/5/4
f 354/5/4 347/5/4 355/5/4
f 348/1/4 349/1/4 356/1/4
f 349/6/4 350/6/4 356/6/4
f 356/6/4 350/6/4 357/6/4
f 357/6/4 350/6/4 358/6/4
f 350/1/4 351/1/4 359/1/4
f 358/6/4 350/6/4 359/6/4
f 357/2/4 358/2/4 362/2/4
f 356/4/4 357/4/4 362/4/4
f 358/4/4 359/4/4 363/4/4
f 362/2/4 358/2/4 363/2/4
f 359/1/4 351/1/4 364/1/4
f 363/4/4 359/4/4 364/4/4
f 364/1/4 351/1/4 365/1/4
f 360/5/4 361/5/4 366/5/4
f 366/5/4 361/5/4 367/5/4
f 348/1/4 356/1/4 370/1/4
f 362/4/4 363/4/4 371/4/4
f 370/1/4 356/1/4 371/1/4
f 356/4/4 362/4/4 371/4/4
f 371/4/4 363/4/4 372/4/4
f 368/5/4 369/5/4 373/5/4
f 373/5/4 369/5/4 374/5/4
f 371/1/4 372/1/4 375/1/4
f 372/4/4 363/4/4 376/4/4
f 375/1/4 372/1/4 376/1/4
f 363/1/4 364/1/4 377/1/4
f 376/4/4 363/4/4 377/4/4
f 377/1/4 364/1/4 378/1/4
f 376/1/4 377/1/4 381/1/4
f 381/1/4 377/1/4 382/1/4
f 379/5/4 380/5/4 385/5/4
f 385/5/4 380/5/4 386/5/4
f 383/5/4 384/5/4 389/5/4
f 389/5/4 384/5/4 390/5/4
f 387/5/4 388/5/4 393/5/4
f 393/5/4 388/5/4 394/5/4
f 391/5/4 392/5/4 397/5/4
f 397/5/4 392/5/4 398/5/4
f 395/5/4 396/5/4 399/5/4
f 399/5/4 396/5/4 400/5/4
f 401/5/4 402/5/4 403/5/4
f 403/5/4 402/5/4 404/5/4
f 405/5/4 406/5/4 411/5/4
f 411/5/4 406/5/4 412/5/4
f 407/5/4 408/5/4 413/5/4
f 413/5/4 408/5/4 414/5/4
f 409/5/4 410/5/4 415/5/4
f 415/5/4 410/5/4 416/5/4
f 417/5/4 418/5/4 419/5/4
f 419/5/4 418/5/4 420/5/4
f 425/5/5 422/5/5 421/5/5
f 426/5/5 422/5/5 425/5/5
f 427/5/5 424/5/5 423/5/5
f 428/5/5 424/5/5 427/5/5
f 433/6/5 430/6/5 429/6/5
f 434/6/5 430/6/5 433/6/5
f 435/5/5 432/5/5 431/5/5
f 436/5/5 432/5/5 435/5/5
f 445/6/5 438/6/5 437/6/5
f 446/6/5 438/6/5 445/6/5
f 447/6/5 440/6/5 439/6/5
f 448/6/5 440/6/5 447/6/5
f 449/5/5 442/5/5 441/5/5
f 450/5/5 442/5/5 449/5/5
f 451/5/5 444/5/5 443/5/5
f 452/5/5 444/5/5 451/5/5
f 458/6/5 454/6/5 453/6/5
f 459/6/5 454/6/5 458/6/5
f 460/6/5 456/6/5 455/6/5
f 461/1/5 457/1/5 456/1/5
f 461/6/5 456/6/5 460/6/5
f 462/1/5 457/1/5 461/1/5
f 471/6/5 464/6/5 463/6/5
f 472/6/5 464/6/5 471/6/5
f 473/1/5 466/1/5 465/1/5
f 474/1/5 466/1/5 473/1/5
f 475/5/5 468/5/5 467/5/5
f 476/5/5 468/5/5 475/5/5
f 477/5/5 470/5/5 469/5/5
f 478/5/5 470/5/5 477/5/5
f 485/6/5 480/6/5 479/6/5
f 486/6/5 480/6/5 485/6/5
f 487/1/5 482/1/5 481/1/5
f 488/1/5 482/1/5 487/1/5
f 489/5/5 484/5/5 483/5/5
f 490/5/5 484/5/5 489/5/5
f 493/5/5 492/5/5 491/5/5
f 494/5/5 492/5/5 493/5/5
f 497/5/5 496/5/5 495/5/5
f 498/5/5 496/5/5 497/5/5
f 501/5/5 500/5/5 499/5/5
f 502/5/5 500/5/5 501/5/5
f 509/5/5 504/5/5 503/5/5
f 510/5/5 504/5/5 509/5/5
f 511/5/5 506/5/5 505/5/5
f 512/5/5 506/5/5 511/5/5
f 513/5/5 508/5/5 507/5/5
f 514/5/5 508/5/5 513/5/5
f 515/5/6 516/5/6 519/5/6
f 519/5/6 516/5/6 520/5/6
f 517/5/6 518/5/6 521/5/6
f 521/5/6 518/5/6 522/5/6
f 523/5/6 524/5/6 525/5/6
f 525/5/6 524/5/6 526/5/6
f 527/5/6 528/5/6 531/5/6
f 531/5/6 528/5/6 532/5/6
f 529/5/6 530/5/6 533/5/6
f 533/5/6 530/5/6 534/5/6
f 535/5/6 536/5/6 539/5/6
f 539/5/6 536/5/6 540/5/6
f 537/5/6 538/5/6 541/5/6
f 541/5/6 538/5/6 542/5/6
f 543/6/6 544/6/6 549/6/6
f 549/6/6 544/6/6 550/6/6
f 545/1/6 546/1/6 551/1/6
f 551/1/6 546/1/6 552/1/6
f 547/5/6 548/5/6 553/5/6
f 553/5/6 548/5/6 554/5/6
f 555/6/6 556/6/6 561/6/6
f 561/6/6 556/6/6 562/6/6
f 557/1/6 558/1/6 563/1/6
f 563/1/6 558/1/6 564/1/6
f 559/5/6 560/5/6 565/5/6
f 565/5/6 560/5/6 566/5/6
f 567/6/6 568/6/6 574/6/6
f 574/6/6 568/6/6 575/6/6
f 569/6/6 570/6/6 576/6/6
f 570/1/6 571/1/6 577/1/6
f 576/6/6 570/6/6 577/6/6
f 577/1/6 571/1/6 578/1/6
f 572/5/6 573/5/6 579/5/6
f 579/5/6 573/5/6 580/5/6
f 581/6/6 582/6/6 587/6/6
f 587/6/6 582/6/6 588/6/6
f 583/6/6 584/6/6 589/6/6
f 589/6/6 584/6/6 590/6/6
f 585/5/6 586/5/6 591/5/6
f 591/5/6 586/5/6 592/5/6
f 593/6/6 594/6/6 601/6/6
f 601/6/6 594/6/6 602/6/6
f 595/5/6 596/5/6 603/5/6
f 603/5/6 596/5/6 604/5/6
f 597/5/6 598/5/6 605/5/6
f 605/5/6 598/5/6 606/5/6
f 599/5/6 600/5/6 607/5/6
f 607/5/6 600/5/6 608/5/6
