# MagicaVoxel @ Ephtracy

# group
o 

# material
mtllib MoveRobot2D.mtl
usemtl palette

# normals
vn -1 0 0
vn 1 0 0
vn 0 0 1
vn 0 0 -1
vn 0 -1 0
vn 0 1 0

# texcoords
vt 0.841797 0.5
vt 0.958984 0.5
vt 0.962891 0.5
vt 0.966797 0.5
vt 0.974609 0.5
vt 0.978516 0.5
vt 0.982422 0.5
vt 0.986328 0.5
vt 0.994141 0.5

# verts
v -0.9 0.7 0
v -0.9 0.7 -0.1
v -0.9 1 0
v -0.9 1 -0.1
v -0.8 0.4 0
v -0.8 0.4 -0.1
v -0.8 0.7 0
v -0.8 0.7 -0.1
v -0.8 1 0
v -0.8 1 -0.1
v -0.8 1.1 0
v -0.8 1.1 -0.1
v -0.7 0.3 0
v -0.7 0.3 -0.1
v -0.7 0.4 0
v -0.7 0.4 -0.1
v -0.7 1.5 0
v -0.7 1.5 -0.1
v -0.7 1.7 0
v -0.7 1.7 -0.1
v -0.6 -0.5 0
v -0.6 -0.5 -0.1
v -0.6 0.3 0
v -0.6 0.3 -0.1
v -0.6 1.1 0
v -0.6 1.1 -0.1
v -0.6 1.5 0
v -0.6 1.5 -0.1
v -0.6 1.7 0
v -0.6 1.7 -0.1
v -0.6 1.9 0
v -0.6 1.9 -0.1
v 0 1.9 0
v 0 1.9 -0.1
v 0 2.2 0
v 0 2.2 -0.1
v 0.1 2.2 0
v 0.1 2.2 -0.1
v 0.1 2.3 0
v 0.1 2.3 -0.1
v 1.2 2.2 0
v 1.2 2.2 -0.1
v 1.2 2.3 0
v 1.2 2.3 -0.1
v 1.3 1.9 0
v 1.3 1.9 -0.1
v 1.3 2.2 0
v 1.3 2.2 -0.1
v 1.8 -0.5 0
v 1.8 -0.5 -0.1
v 1.8 1.9 0
v 1.8 1.9 -0.1
v -0.9 0.7 0
v -0.9 1 0
v -0.8 0.4 0
v -0.8 0.7 0
v -0.8 1 0
v -0.8 1.1 0
v -0.7 0.3 0
v -0.7 0.4 0
v -0.7 0.7 0
v -0.7 0.8 0
v -0.7 1.5 0
v -0.7 1.7 0
v -0.6 -0.5 0
v -0.6 0.3 0
v -0.6 0.8 0
v -0.6 1 0
v -0.6 1.1 0
v -0.6 1.5 0
v -0.6 1.7 0
v -0.6 1.9 0
v -0.5 -0.4 0
v -0.5 -0.3 0
v -0.5 0.3 0
v -0.5 0.8 0
v -0.5 0.9 0
v -0.5 1 0
v -0.5 1.1 0
v -0.5 1.2 0
v -0.5 1.3 0
v -0.5 1.4 0
v -0.5 1.5 0
v -0.5 1.7 0
v -0.5 1.8 0
v -0.4 -0.3 0
v -0.4 0.3 0
v -0.4 0.8 0
v -0.4 0.9 0
v -0.4 1 0
v -0.4 1.1 0
v -0.4 1.2 0
v -0.4 1.3 0
v -0.4 1.4 0
v -0.4 1.5 0
v -0.3 0.8 0
v -0.3 0.9 0
v -0.3 1.3 0
v -0.3 1.4 0
v -0.3 1.5 0
v -0.2 -0.3 0
v -0.2 0.3 0
v -0.2 0.8 0
v -0.2 0.9 0
v -0.2 1.1 0
v -0.2 1.2 0
v -0.2 1.4 0
v -0.2 1.5 0
v -0.1 -0.3 0
v -0.1 0.3 0
v -0.1 0.8 0
v -0.1 0.9 0
v -0.1 1.2 0
v -0.1 1.4 0
v -0.1 1.5 0
v 0 0.8 0
v 0 0.9 0
v 0 1.4 0
v 0 1.5 0
v 0 1.8 0
v 0 1.9 0
v 0 2.2 0
v 0.1 -0.3 0
v 0.1 0.3 0
v 0.1 0.8 0
v 0.1 0.9 0
v 0.1 1 0
v 0.1 1.1 0
v 0.1 1.2 0
v 0.1 1.3 0
v 0.1 1.4 0
v 0.1 1.5 0
v 0.1 1.9 0
v 0.1 2.1 0
v 0.1 2.2 0
v 0.1 2.3 0
v 0.2 -0.3 0
v 0.2 0.3 0
v 0.2 0.8 0
v 0.2 0.9 0
v 0.2 1 0
v 0.2 1.1 0
v 0.2 1.2 0
v 0.2 1.3 0
v 0.2 1.4 0
v 0.2 1.5 0
v 0.2 2 0
v 0.2 2.1 0
v 0.2 2.2 0
v 0.3 0 0
v 0.3 0.3 0
v 0.3 2 0
v 0.3 2.1 0
v 0.4 -0.3 0
v 0.4 0 0
v 0.4 0.3 0
v 0.4 1.5 0
v 0.4 1.7 0
v 0.5 -0.4 0
v 0.5 0 0
v 0.8 0.3 0
v 0.8 0.4 0
v 0.9 0.7 0
v 0.9 0.8 0
v 1.2 1.9 0
v 1.2 2.2 0
v 1.2 2.3 0
v 1.3 1.8 0
v 1.3 1.9 0
v 1.3 2.2 0
v 1.7 -0.4 0
v 1.7 1.8 0
v 1.8 -0.5 0
v 1.8 1.9 0
v -0.9 0.7 -0.1
v -0.9 1 -0.1
v -0.8 0.4 -0.1
v -0.8 0.7 -0.1
v -0.8 1 -0.1
v -0.8 1.1 -0.1
v -0.7 0.3 -0.1
v -0.7 0.4 -0.1
v -0.7 0.7 -0.1
v -0.7 0.8 -0.1
v -0.7 1.5 -0.1
v -0.7 1.7 -0.1
v -0.6 -0.5 -0.1
v -0.6 0.3 -0.1
v -0.6 0.8 -0.1
v -0.6 1 -0.1
v -0.6 1.1 -0.1
v -0.6 1.5 -0.1
v -0.6 1.7 -0.1
v -0.6 1.9 -0.1
v -0.5 -0.4 -0.1
v -0.5 -0.3 -0.1
v -0.5 0.3 -0.1
v -0.5 0.8 -0.1
v -0.5 0.9 -0.1
v -0.5 1 -0.1
v -0.5 1.1 -0.1
v -0.5 1.2 -0.1
v -0.5 1.3 -0.1
v -0.5 1.4 -0.1
v -0.5 1.5 -0.1
v -0.5 1.7 -0.1
v -0.5 1.8 -0.1
v -0.4 -0.3 -0.1
v -0.4 0.3 -0.1
v -0.4 0.8 -0.1
v -0.4 0.9 -0.1
v -0.4 1 -0.1
v -0.4 1.1 -0.1
v -0.4 1.2 -0.1
v -0.4 1.3 -0.1
v -0.4 1.4 -0.1
v -0.4 1.5 -0.1
v -0.3 0.8 -0.1
v -0.3 0.9 -0.1
v -0.3 1.3 -0.1
v -0.3 1.4 -0.1
v -0.3 1.5 -0.1
v -0.2 -0.3 -0.1
v -0.2 0.3 -0.1
v -0.2 0.8 -0.1
v -0.2 0.9 -0.1
v -0.2 1.1 -0.1
v -0.2 1.2 -0.1
v -0.2 1.4 -0.1
v -0.2 1.5 -0.1
v -0.1 -0.3 -0.1
v -0.1 0.3 -0.1
v -0.1 0.8 -0.1
v -0.1 0.9 -0.1
v -0.1 1.2 -0.1
v -0.1 1.4 -0.1
v -0.1 1.5 -0.1
v 0 0.8 -0.1
v 0 0.9 -0.1
v 0 1.4 -0.1
v 0 1.5 -0.1
v 0 1.8 -0.1
v 0 1.9 -0.1
v 0 2.2 -0.1
v 0.1 -0.3 -0.1
v 0.1 0.3 -0.1
v 0.1 0.8 -0.1
v 0.1 0.9 -0.1
v 0.1 1 -0.1
v 0.1 1.1 -0.1
v 0.1 1.2 -0.1
v 0.1 1.3 -0.1
v 0.1 1.4 -0.1
v 0.1 1.5 -0.1
v 0.1 1.9 -0.1
v 0.1 2.1 -0.1
v 0.1 2.2 -0.1
v 0.1 2.3 -0.1
v 0.2 -0.3 -0.1
v 0.2 0.3 -0.1
v 0.2 0.8 -0.1
v 0.2 0.9 -0.1
v 0.2 1 -0.1
v 0.2 1.1 -0.1
v 0.2 1.2 -0.1
v 0.2 1.3 -0.1
v 0.2 1.4 -0.1
v 0.2 1.5 -0.1
v 0.2 2 -0.1
v 0.2 2.1 -0.1
v 0.2 2.2 -0.1
v 0.3 0 -0.1
v 0.3 0.3 -0.1
v 0.3 2 -0.1
v 0.3 2.1 -0.1
v 0.4 -0.3 -0.1
v 0.4 0 -0.1
v 0.4 0.3 -0.1
v 0.4 1.5 -0.1
v 0.4 1.7 -0.1
v 0.5 -0.4 -0.1
v 0.5 0 -0.1
v 0.8 0.3 -0.1
v 0.8 0.4 -0.1
v 0.9 0.7 -0.1
v 0.9 0.8 -0.1
v 1.2 1.9 -0.1
v 1.2 2.2 -0.1
v 1.2 2.3 -0.1
v 1.3 1.8 -0.1
v 1.3 1.9 -0.1
v 1.3 2.2 -0.1
v 1.7 -0.4 -0.1
v 1.7 1.8 -0.1
v 1.8 -0.5 -0.1
v 1.8 1.9 -0.1
v -0.6 -0.5 0
v 1.8 -0.5 0
v -0.6 -0.5 -0.1
v 1.8 -0.5 -0.1
v -0.7 0.3 0
v -0.6 0.3 0
v -0.7 0.3 -0.1
v -0.6 0.3 -0.1
v -0.8 0.4 0
v -0.7 0.4 0
v -0.8 0.4 -0.1
v -0.7 0.4 -0.1
v -0.9 0.7 0
v -0.8 0.7 0
v -0.9 0.7 -0.1
v -0.8 0.7 -0.1
v -0.7 1.5 0
v -0.6 1.5 0
v -0.7 1.5 -0.1
v -0.6 1.5 -0.1
v -0.9 1 0
v -0.8 1 0
v -0.9 1 -0.1
v -0.8 1 -0.1
v -0.8 1.1 0
v -0.6 1.1 0
v -0.8 1.1 -0.1
v -0.6 1.1 -0.1
v -0.7 1.7 0
v -0.6 1.7 0
v -0.7 1.7 -0.1
v -0.6 1.7 -0.1
v -0.6 1.9 0
v 0 1.9 0
v 1.3 1.9 0
v 1.8 1.9 0
v -0.6 1.9 -0.1
v 0 1.9 -0.1
v 1.3 1.9 -0.1
v 1.8 1.9 -0.1
v 0 2.2 0
v 0.1 2.2 0
v 1.2 2.2 0
v 1.3 2.2 0
v 0 2.2 -0.1
v 0.1 2.2 -0.1
v 1.2 2.2 -0.1
v 1.3 2.2 -0.1
v 0.1 2.3 0
v 1.2 2.3 0
v 0.1 2.3 -0.1
v 1.2 2.3 -0.1

# faces
f 3/7/1 2/7/1 1/7/1
f 4/7/1 2/7/1 3/7/1
f 7/7/1 6/7/1 5/7/1
f 8/7/1 6/7/1 7/7/1
f 11/7/1 10/7/1 9/7/1
f 12/7/1 10/7/1 11/7/1
f 15/7/1 14/7/1 13/7/1
f 16/7/1 14/7/1 15/7/1
f 19/8/1 18/8/1 17/8/1
f 20/8/1 18/8/1 19/8/1
f 23/9/1 22/9/1 21/9/1
f 24/9/1 22/9/1 23/9/1
f 27/9/1 26/9/1 25/9/1
f 28/9/1 26/9/1 27/9/1
f 31/9/1 30/9/1 29/9/1
f 32/9/1 30/9/1 31/9/1
f 35/9/1 34/9/1 33/9/1
f 36/9/1 34/9/1 35/9/1
f 39/9/1 38/9/1 37/9/1
f 40/9/1 38/9/1 39/9/1
f 41/9/2 42/9/2 43/9/2
f 43/9/2 42/9/2 44/9/2
f 45/9/2 46/9/2 47/9/2
f 47/9/2 46/9/2 48/9/2
f 49/9/2 50/9/2 51/9/2
f 51/9/2 50/9/2 52/9/2
f 56/7/3 54/7/3 53/7/3
f 57/7/3 54/7/3 56/7/3
f 60/7/3 56/7/3 55/7/3
f 61/5/3 57/5/3 56/5/3
f 61/7/3 56/7/3 60/7/3
f 62/5/3 57/5/3 61/5/3
f 66/7/3 60/7/3 59/7/3
f 67/7/3 62/7/3 61/7/3
f 67/5/3 57/5/3 62/5/3
f 68/7/3 58/7/3 57/7/3
f 68/5/3 57/5/3 67/5/3
f 69/7/3 58/7/3 68/7/3
f 70/8/3 64/8/3 63/8/3
f 71/8/3 64/8/3 70/8/3
f 73/9/3 66/9/3 65/9/3
f 74/9/3 66/9/3 73/9/3
f 75/7/3 60/7/3 66/7/3
f 75/9/3 66/9/3 74/9/3
f 76/7/3 67/7/3 61/7/3
f 76/9/3 69/9/3 68/9/3
f 76/9/3 68/9/3 67/9/3
f 76/9/3 70/9/3 69/9/3
f 77/9/3 70/9/3 76/9/3
f 78/9/3 70/9/3 77/9/3
f 79/9/3 70/9/3 78/9/3
f 80/9/3 70/9/3 79/9/3
f 81/9/3 70/9/3 80/9/3
f 82/9/3 70/9/3 81/9/3
f 83/8/3 71/8/3 70/8/3
f 83/9/3 70/9/3 82/9/3
f 84/9/3 72/9/3 71/9/3
f 84/8/3 71/8/3 83/8/3
f 85/9/3 72/9/3 84/9/3
f 86/2/3 75/2/3 74/2/3
f 86/6/3 74/6/3 73/6/3
f 87/7/3 60/7/3 75/7/3
f 87/2/3 75/2/3 86/2/3
f 88/7/3 76/7/3 61/7/3
f 88/4/3 77/4/3 76/4/3
f 89/7/3 78/7/3 77/7/3
f 89/4/3 77/4/3 88/4/3
f 90/4/3 79/4/3 78/4/3
f 90/7/3 78/7/3 89/7/3
f 91/7/3 80/7/3 79/7/3
f 91/4/3 79/4/3 90/4/3
f 92/4/3 81/4/3 80/4/3
f 92/7/3 80/7/3 91/7/3
f 93/7/3 82/7/3 81/7/3
f 93/4/3 81/4/3 92/4/3
f 94/4/3 83/4/3 82/4/3
f 94/7/3 82/7/3 93/7/3
f 95/8/3 84/8/3 83/8/3
f 95/4/3 83/4/3 94/4/3
f 96/7/3 88/7/3 61/7/3
f 96/7/3 89/7/3 88/7/3
f 97/1/3 90/1/3 89/1/3
f 97/7/3 89/7/3 96/7/3
f 97/1/3 91/1/3 90/1/3
f 98/2/3 93/2/3 92/2/3
f 98/2/3 92/2/3 91/2/3
f 98/1/3 94/1/3 93/1/3
f 99/7/3 95/7/3 94/7/3
f 99/1/3 94/1/3 98/1/3
f 100/8/3 84/8/3 95/8/3
f 100/7/3 95/7/3 99/7/3
f 101/6/3 86/6/3 73/6/3
f 101/5/3 87/5/3 86/5/3
f 102/7/3 60/7/3 87/7/3
f 102/5/3 87/5/3 101/5/3
f 103/4/3 97/4/3 96/4/3
f 103/7/3 96/7/3 61/7/3
f 104/1/3 91/1/3 97/1/3
f 104/4/3 97/4/3 103/4/3
f 105/2/3 99/2/3 98/2/3
f 105/1/3 91/1/3 104/1/3
f 105/2/3 98/2/3 91/2/3
f 106/2/3 99/2/3 105/2/3
f 107/4/3 100/4/3 99/4/3
f 107/2/3 99/2/3 106/2/3
f 108/8/3 84/8/3 100/8/3
f 108/4/3 100/4/3 107/4/3
f 109/6/3 101/6/3 73/6/3
f 109/2/3 102/2/3 101/2/3
f 110/7/3 60/7/3 102/7/3
f 110/2/3 102/2/3 109/2/3
f 111/7/3 103/7/3 61/7/3
f 111/7/3 104/7/3 103/7/3
f 112/1/3 106/1/3 105/1/3
f 112/7/3 104/7/3 111/7/3
f 112/1/3 105/1/3 104/1/3
f 113/2/3 107/2/3 106/2/3
f 113/1/3 106/1/3 112/1/3
f 114/7/3 108/7/3 107/7/3
f 114/2/3 107/2/3 113/2/3
f 115/8/3 84/8/3 108/8/3
f 115/7/3 108/7/3 114/7/3
f 116/4/3 112/4/3 111/4/3
f 116/7/3 111/7/3 61/7/3
f 117/1/3 114/1/3 113/1/3
f 117/4/3 112/4/3 116/4/3
f 117/1/3 113/1/3 112/1/3
f 118/4/3 115/4/3 114/4/3
f 118/1/3 114/1/3 117/1/3
f 119/8/3 84/8/3 115/8/3
f 119/4/3 115/4/3 118/4/3
f 120/9/3 72/9/3 85/9/3
f 120/5/3 85/5/3 84/5/3
f 121/9/3 72/9/3 120/9/3
f 123/6/3 109/6/3 73/6/3
f 123/5/3 110/5/3 109/5/3
f 124/7/3 60/7/3 110/7/3
f 124/5/3 110/5/3 123/5/3
f 125/7/3 116/7/3 61/7/3
f 125/7/3 117/7/3 116/7/3
f 126/1/3 118/1/3 117/1/3
f 126/7/3 117/7/3 125/7/3
f 127/1/3 118/1/3 126/1/3
f 128/1/3 118/1/3 127/1/3
f 129/1/3 118/1/3 128/1/3
f 130/1/3 118/1/3 129/1/3
f 131/7/3 119/7/3 118/7/3
f 131/1/3 118/1/3 130/1/3
f 132/8/3 84/8/3 119/8/3
f 132/7/3 119/7/3 131/7/3
f 133/9/3 122/9/3 121/9/3
f 133/3/3 121/3/3 120/3/3
f 134/9/3 122/9/3 133/9/3
f 135/9/3 122/9/3 134/9/3
f 137/6/3 123/6/3 73/6/3
f 137/2/3 124/2/3 123/2/3
f 138/7/3 60/7/3 124/7/3
f 138/2/3 124/2/3 137/2/3
f 139/7/3 125/7/3 61/7/3
f 139/4/3 126/4/3 125/4/3
f 140/7/3 127/7/3 126/7/3
f 140/4/3 126/4/3 139/4/3
f 141/4/3 128/4/3 127/4/3
f 141/7/3 127/7/3 140/7/3
f 142/7/3 129/7/3 128/7/3
f 142/4/3 128/4/3 141/4/3
f 143/4/3 130/4/3 129/4/3
f 143/7/3 129/7/3 142/7/3
f 144/7/3 131/7/3 130/7/3
f 144/4/3 130/4/3 143/4/3
f 145/4/3 132/4/3 131/4/3
f 145/7/3 131/7/3 144/7/3
f 146/8/3 84/8/3 132/8/3
f 146/4/3 132/4/3 145/4/3
f 147/1/3 134/1/3 133/1/3
f 148/2/3 135/2/3 134/2/3
f 148/1/3 134/1/3 147/1/3
f 149/9/3 136/9/3 135/9/3
f 149/2/3 135/2/3 148/2/3
f 150/5/3 138/5/3 137/5/3
f 151/7/3 60/7/3 138/7/3
f 151/5/3 138/5/3 150/5/3
f 152/2/3 148/2/3 147/2/3
f 152/1/3 147/1/3 133/1/3
f 153/1/3 149/1/3 148/1/3
f 153/2/3 148/2/3 152/2/3
f 154/5/3 150/5/3 137/5/3
f 154/6/3 137/6/3 73/6/3
f 155/6/3 151/6/3 150/6/3
f 155/5/3 150/5/3 154/5/3
f 156/7/3 60/7/3 151/7/3
f 156/6/3 151/6/3 155/6/3
f 157/5/3 143/5/3 142/5/3
f 157/5/3 142/5/3 141/5/3
f 157/5/3 145/5/3 144/5/3
f 157/5/3 144/5/3 143/5/3
f 157/5/3 146/5/3 145/5/3
f 157/8/3 84/8/3 146/8/3
f 157/5/3 140/5/3 139/5/3
f 157/5/3 141/5/3 140/5/3
f 158/5/3 120/5/3 84/5/3
f 158/8/3 84/8/3 157/8/3
f 159/6/3 155/6/3 154/6/3
f 159/9/3 73/9/3 65/9/3
f 159/6/3 154/6/3 73/6/3
f 160/5/3 156/5/3 155/5/3
f 160/6/3 155/6/3 159/6/3
f 161/7/3 60/7/3 156/7/3
f 161/5/3 156/5/3 160/5/3
f 161/5/3 160/5/3 159/5/3
f 162/5/3 61/5/3 60/5/3
f 162/7/3 60/7/3 161/7/3
f 163/7/3 139/7/3 61/7/3
f 163/5/3 61/5/3 162/5/3
f 163/5/3 162/5/3 161/5/3
f 164/5/3 158/5/3 157/5/3
f 164/7/3 139/7/3 163/7/3
f 164/5/3 157/5/3 139/5/3
f 165/1/3 152/1/3 133/1/3
f 165/1/3 153/1/3 152/1/3
f 165/3/3 133/3/3 120/3/3
f 166/1/3 149/1/3 153/1/3
f 166/1/3 153/1/3 165/1/3
f 166/9/3 136/9/3 149/9/3
f 167/9/3 136/9/3 166/9/3
f 168/3/3 165/3/3 120/3/3
f 168/5/3 164/5/3 163/5/3
f 168/5/3 120/5/3 158/5/3
f 168/5/3 158/5/3 164/5/3
f 169/9/3 166/9/3 165/9/3
f 169/3/3 165/3/3 168/3/3
f 170/9/3 166/9/3 169/9/3
f 171/5/3 168/5/3 163/5/3
f 171/5/3 161/5/3 159/5/3
f 171/9/3 159/9/3 65/9/3
f 171/5/3 163/5/3 161/5/3
f 172/9/3 169/9/3 168/9/3
f 172/5/3 168/5/3 171/5/3
f 173/9/3 171/9/3 65/9/3
f 173/9/3 172/9/3 171/9/3
f 174/9/3 169/9/3 172/9/3
f 174/9/3 172/9/3 173/9/3
f 175/7/4 176/7/4 178/7/4
f 178/7/4 176/7/4 179/7/4
f 177/7/4 178/7/4 182/7/4
f 178/5/4 179/5/4 183/5/4
f 182/7/4 178/7/4 183/7/4
f 183/5/4 179/5/4 184/5/4
f 181/7/4 182/7/4 188/7/4
f 183/7/4 184/7/4 189/7/4
f 184/5/4 179/5/4 189/5/4
f 179/7/4 180/7/4 190/7/4
f 189/5/4 179/5/4 190/5/4
f 190/7/4 180/7/4 191/7/4
f 185/8/4 186/8/4 192/8/4
f 192/8/4 186/8/4 193/8/4
f 187/9/4 188/9/4 195/9/4
f 195/9/4 188/9/4 196/9/4
f 188/7/4 182/7/4 197/7/4
f 196/9/4 188/9/4 197/9/4
f 183/7/4 189/7/4 198/7/4
f 190/9/4 191/9/4 198/9/4
f 189/9/4 190/9/4 198/9/4
f 191/9/4 192/9/4 198/9/4
f 198/9/4 192/9/4 199/9/4
f 199/9/4 192/9/4 200/9/4
f 200/9/4 192/9/4 201/9/4
f 201/9/4 192/9/4 202/9/4
f 202/9/4 192/9/4 203/9/4
f 203/9/4 192/9/4 204/9/4
f 192/8/4 193/8/4 205/8/4
f 204/9/4 192/9/4 205/9/4
f 193/9/4 194/9/4 206/9/4
f 205/8/4 193/8/4 206/8/4
f 206/9/4 194/9/4 207/9/4
f 196/2/4 197/2/4 208/2/4
f 195/6/4 196/6/4 208/6/4
f 197/7/4 182/7/4 209/7/4
f 208/2/4 197/2/4 209/2/4
f 183/7/4 198/7/4 210/7/4
f 198/4/4 199/4/4 210/4/4
f 199/7/4 200/7/4 211/7/4
f 210/4/4 199/4/4 211/4/4
f 200/4/4 201/4/4 212/4/4
f 211/7/4 200/7/4 212/7/4
f 201/7/4 202/7/4 213/7/4
f 212/4/4 201/4/4 213/4/4
f 202/4/4 203/4/4 214/4/4
f 213/7/4 202/7/4 214/7/4
f 203/7/4 204/7/4 215/7/4
f 214/4/4 203/4/4 215/4/4
f 204/4/4 205/4/4 216/4/4
f 215/7/4 204/7/4 216/7/4
f 205/8/4 206/8/4 217/8/4
f 216/4/4 205/4/4 217/4/4
f 183/7/4 210/7/4 218/7/4
f 210/7/4 211/7/4 218/7/4
f 211/1/4 212/1/4 219/1/4
f 218/7/4 211/7/4 219/7/4
f 212/1/4 213/1/4 219/1/4
f 214/2/4 215/2/4 220/2/4
f 213/2/4 214/2/4 220/2/4
f 215/1/4 216/1/4 220/1/4
f 216/7/4 217/7/4 221/7/4
f 220/1/4 216/1/4 221/1/4
f 217/8/4 206/8/4 222/8/4
f 221/7/4 217/7/4 222/7/4
f 195/6/4 208/6/4 223/6/4
f 208/5/4 209/5/4 223/5/4
f 209/7/4 182/7/4 224/7/4
f 223/5/4 209/5/4 224/5/4
f 218/4/4 219/4/4 225/4/4
f 183/7/4 218/7/4 225/7/4
f 219/1/4 213/1/4 226/1/4
f 225/4/4 219/4/4 226/4/4
f 220/2/4 221/2/4 227/2/4
f 226/1/4 213/1/4 227/1/4
f 213/2/4 220/2/4 227/2/4
f 227/2/4 221/2/4 228/2/4
f 221/4/4 222/4/4 229/4/4
f 228/2/4 221/2/4 229/2/4
f 222/8/4 206/8/4 230/8/4
f 229/4/4 222/4/4 230/4/4
f 195/6/4 223/6/4 231/6/4
f 223/2/4 224/2/4 231/2/4
f 224/7/4 182/7/4 232/7/4
f 231/2/4 224/2/4 232/2/4
f 183/7/4 225/7/4 233/7/4
f 225/7/4 226/7/4 233/7/4
f 227/1/4 228/1/4 234/1/4
f 233/7/4 226/7/4 234/7/4
f 226/1/4 227/1/4 234/1/4
f 228/2/4 229/2/4 235/2/4
f 234/1/4 228/1/4 235/1/4
f 229/7/4 230/7/4 236/7/4
f 235/2/4 229/2/4 236/2/4
f 230/8/4 206/8/4 237/8/4
f 236/7/4 230/7/4 237/7/4
f 233/4/4 234/4/4 238/4/4
f 183/7/4 233/7/4 238/7/4
f 235/1/4 236/1/4 239/1/4
f 238/4/4 234/4/4 239/4/4
f 234/1/4 235/1/4 239/1/4
f 236/4/4 237/4/4 240/4/4
f 239/1/4 236/1/4 240/1/4
f 237/8/4 206/8/4 241/8/4
f 240/4/4 237/4/4 241/4/4
f 207/9/4 194/9/4 242/9/4
f 206/5/4 207/5/4 242/5/4
f 242/9/4 194/9/4 243/9/4
f 195/6/4 231/6/4 245/6/4
f 231/5/4 232/5/4 245/5/4
f 232/7/4 182/7/4 246/7/4
f 245/5/4 232/5/4 246/5/4
f 183/7/4 238/7/4 247/7/4
f 238/7/4 239/7/4 247/7/4
f 239/1/4 240/1/4 248/1/4
f 247/7/4 239/7/4 248/7/4
f 248/1/4 240/1/4 249/1/4
f 249/1/4 240/1/4 250/1/4
f 250/1/4 240/1/4 251/1/4
f 251/1/4 240/1/4 252/1/4
f 240/7/4 241/7/4 253/7/4
f 252/1/4 240/1/4 253/1/4
f 241/8/4 206/8/4 254/8/4
f 253/7/4 241/7/4 254/7/4
f 243/9/4 244/9/4 255/9/4
f 242/3/4 243/3/4 255/3/4
f 255/9/4 244/9/4 256/9/4
f 256/9/4 244/9/4 257/9/4
f 195/6/4 245/6/4 259/6/4
f 245/2/4 246/2/4 259/2/4
f 246/7/4 182/7/4 260/7/4
f 259/2/4 246/2/4 260/2/4
f 183/7/4 247/7/4 261/7/4
f 247/4/4 248/4/4 261/4/4
f 248/7/4 249/7/4 262/7/4
f 261/4/4 248/4/4 262/4/4
f 249/4/4 250/4/4 263/4/4
f 262/7/4 249/7/4 263/7/4
f 250/7/4 251/7/4 264/7/4
f 263/4/4 250/4/4 264/4/4
f 251/4/4 252/4/4 265/4/4
f 264/7/4 251/7/4 265/7/4
f 252/7/4 253/7/4 266/7/4
f 265/4/4 252/4/4 266/4/4
f 253/4/4 254/4/4 267/4/4
f 266/7/4 253/7/4 267/7/4
f 254/8/4 206/8/4 268/8/4
f 267/4/4 254/4/4 268/4/4
f 255/1/4 256/1/4 269/1/4
f 256/2/4 257/2/4 270/2/4
f 269/1/4 256/1/4 270/1/4
f 257/9/4 258/9/4 271/9/4
f 270/2/4 257/2/4 271/2/4
f 259/5/4 260/5/4 272/5/4
f 260/7/4 182/7/4 273/7/4
f 272/5/4 260/5/4 273/5/4
f 269/2/4 270/2/4 274/2/4
f 255/1/4 269/1/4 274/1/4
f 270/1/4 271/1/4 275/1/4
f 274/2/4 270/2/4 275/2/4
f 259/5/4 272/5/4 276/5/4
f 195/6/4 259/6/4 276/6/4
f 272/6/4 273/6/4 277/6/4
f 276/5/4 272/5/4 277/5/4
f 273/7/4 182/7/4 278/7/4
f 277/6/4 273/6/4 278/6/4
f 264/5/4 265/5/4 279/5/4
f 263/5/4 264/5/4 279/5/4
f 266/5/4 267/5/4 279/5/4
f 265/5/4 266/5/4 279/5/4
f 267/5/4 268/5/4 279/5/4
f 268/8/4 206/8/4 279/8/4
f 261/5/4 262/5/4 279/5/4
f 262/5/4 263/5/4 279/5/4
f 206/5/4 242/5/4 280/5/4
f 279/8/4 206/8/4 280/8/4
f 276/6/4 277/6/4 281/6/4
f 187/9/4 195/9/4 281/9/4
f 195/6/4 276/6/4 281/6/4
f 277/5/4 278/5/4 282/5/4
f 281/6/4 277/6/4 282/6/4
f 278/7/4 182/7/4 283/7/4
f 282/5/4 278/5/4 283/5/4
f 281/5/4 282/5/4 283/5/4
f 182/5/4 183/5/4 284/5/4
f 283/7/4 182/7/4 284/7/4
f 183/7/4 261/7/4 285/7/4
f 284/5/4 183/5/4 285/5/4
f 283/5/4 284/5/4 285/5/4
f 279/5/4 280/5/4 286/5/4
f 285/7/4 261/7/4 286/7/4
f 261/5/4 279/5/4 286/5/4
f 255/1/4 274/1/4 287/1/4
f 274/1/4 275/1/4 287/1/4
f 242/3/4 255/3/4 287/3/4
f 275/1/4 271/1/4 288/1/4
f 287/1/4 275/1/4 288/1/4
f 271/9/4 258/9/4 288/9/4
f 288/9/4 258/9/4 289/9/4
f 242/3/4 287/3/4 290/3/4
f 285/5/4 286/5/4 290/5/4
f 280/5/4 242/5/4 290/5/4
f 286/5/4 280/5/4 290/5/4
f 287/9/4 288/9/4 291/9/4
f 290/3/4 287/3/4 291/3/4
f 291/9/4 288/9/4 292/9/4
f 285/5/4 290/5/4 293/5/4
f 281/5/4 283/5/4 293/5/4
f 187/9/4 281/9/4 293/9/4
f 283/5/4 285/5/4 293/5/4
f 290/9/4 291/9/4 294/9/4
f 293/5/4 290/5/4 294/5/4
f 187/9/4 293/9/4 295/9/4
f 293/9/4 294/9/4 295/9/4
f 294/9/4 291/9/4 296/9/4
f 295/9/4 294/9/4 296/9/4
f 299/9/5 298/9/5 297/9/5
f 300/9/5 298/9/5 299/9/5
f 303/7/5 302/7/5 301/7/5
f 304/7/5 302/7/5 303/7/5
f 307/7/5 306/7/5 305/7/5
f 308/7/5 306/7/5 307/7/5
f 311/7/5 310/7/5 309/7/5
f 312/7/5 310/7/5 311/7/5
f 315/8/5 314/8/5 313/8/5
f 316/8/5 314/8/5 315/8/5
f 317/7/6 318/7/6 319/7/6
f 319/7/6 318/7/6 320/7/6
f 321/7/6 322/7/6 323/7/6
f 323/7/6 322/7/6 324/7/6
f 325/8/6 326/8/6 327/8/6
f 327/8/6 326/8/6 328/8/6
f 329/9/6 330/9/6 333/9/6
f 333/9/6 330/9/6 334/9/6
f 331/9/6 332/9/6 335/9/6
f 335/9/6 332/9/6 336/9/6
f 337/9/6 338/9/6 341/9/6
f 341/9/6 338/9/6 342/9/6
f 339/9/6 340/9/6 343/9/6
f 343/9/6 340/9/6 344/9/6
f 345/9/6 346/9/6 347/9/6
f 347/9/6 346/9/6 348/9/6
