# MagicaVoxel @ Ephtracy

# group
o 

# material
mtllib ShooterRobot2D.mtl
usemtl palette

# normals
vn -1 0 0
vn 1 0 0
vn 0 0 1
vn 0 0 -1
vn 0 -1 0
vn 0 1 0

# texcoords
vt 0.0878906 0.5
vt 0.841797 0.5
vt 0.958984 0.5
vt 0.962891 0.5
vt 0.966797 0.5
vt 0.974609 0.5
vt 0.982422 0.5
vt 0.986328 0.5
vt 0.994141 0.5

# verts
v 0.5 1.1 0
v 0.5 1.1 -0.1
v 0.5 2.1 0
v 0.5 2.1 -0.1
v 0.6 1 0
v 0.6 1 -0.1
v 0.6 1.1 0
v 0.6 1.1 -0.1
v 0.6 2.1 0
v 0.6 2.1 -0.1
v 0.6 2.2 0
v 0.6 2.2 -0.1
v 0.8 3 0
v 0.8 3 -0.1
v 0.8 3.2 0
v 0.8 3.2 -0.1
v 0.9 1 0
v 0.9 1 -0.1
v 0.9 1.1 0
v 0.9 1.1 -0.1
v 0.9 2.1 0
v 0.9 2.1 -0.1
v 0.9 3 0
v 0.9 3 -0.1
v 0.9 3.2 0
v 0.9 3.2 -0.1
v 0.9 3.4 0
v 0.9 3.4 -0.1
v 1.5 3.4 0
v 1.5 3.4 -0.1
v 1.5 3.7 0
v 1.5 3.7 -0.1
v 1.6 3.7 0
v 1.6 3.7 -0.1
v 1.6 3.8 0
v 1.6 3.8 -0.1
v 0.8 1 0
v 0.8 1 -0.1
v 0.8 1.1 0
v 0.8 1.1 -0.1
v 0.8 2.1 0
v 0.8 2.1 -0.1
v 0.8 2.2 0
v 0.8 2.2 -0.1
v 2.7 3.7 0
v 2.7 3.7 -0.1
v 2.7 3.8 0
v 2.7 3.8 -0.1
v 2.8 3.4 0
v 2.8 3.4 -0.1
v 2.8 3.7 0
v 2.8 3.7 -0.1
v 3.3 1 0
v 3.3 1 -0.1
v 3.3 3.4 0
v 3.3 3.4 -0.1
v 0.5 1.1 0
v 0.5 2.1 0
v 0.6 1 0
v 0.6 1.1 0
v 0.6 2.1 0
v 0.6 2.2 0
v 0.8 1 0
v 0.8 1.1 0
v 0.8 1.2 0
v 0.8 2 0
v 0.8 2.1 0
v 0.8 2.2 0
v 0.8 3 0
v 0.8 3.2 0
v 0.9 1 0
v 0.9 1.1 0
v 0.9 2.1 0
v 0.9 3 0
v 0.9 3.2 0
v 0.9 3.4 0
v 1 1.1 0
v 1 1.2 0
v 1 2 0
v 1 2.3 0
v 1 2.4 0
v 1 2.5 0
v 1 2.6 0
v 1 2.7 0
v 1 2.8 0
v 1 2.9 0
v 1 3 0
v 1 3.2 0
v 1 3.3 0
v 1.1 2.3 0
v 1.1 2.4 0
v 1.1 2.5 0
v 1.1 2.6 0
v 1.1 2.7 0
v 1.1 2.8 0
v 1.1 2.9 0
v 1.1 3 0
v 1.2 2.3 0
v 1.2 2.4 0
v 1.2 2.8 0
v 1.2 2.9 0
v 1.2 3 0
v 1.3 2.3 0
v 1.3 2.4 0
v 1.3 2.6 0
v 1.3 2.7 0
v 1.3 2.9 0
v 1.3 3 0
v 1.4 2.3 0
v 1.4 2.4 0
v 1.4 2.7 0
v 1.4 2.9 0
v 1.4 3 0
v 1.5 2.3 0
v 1.5 2.4 0
v 1.5 2.9 0
v 1.5 3 0
v 1.5 3.3 0
v 1.5 3.4 0
v 1.5 3.7 0
v 1.6 2.3 0
v 1.6 2.4 0
v 1.6 2.5 0
v 1.6 2.6 0
v 1.6 2.7 0
v 1.6 2.8 0
v 1.6 2.9 0
v 1.6 3 0
v 1.6 3.4 0
v 1.6 3.6 0
v 1.6 3.7 0
v 1.6 3.8 0
v 1.7 2.3 0
v 1.7 2.4 0
v 1.7 2.5 0
v 1.7 2.6 0
v 1.7 2.7 0
v 1.7 2.8 0
v 1.7 2.9 0
v 1.7 3 0
v 1.7 3.5 0
v 1.7 3.6 0
v 1.7 3.7 0
v 1.8 3.5 0
v 1.8 3.6 0
v 1.9 1.3 0
v 1.9 2.3 0
v 1.9 3 0
v 1.9 3.2 0
v 2 1.4 0
v 2 2.3 0
v 2.7 1.4 0
v 2.7 2.5 0
v 2.7 3.4 0
v 2.7 3.7 0
v 2.7 3.8 0
v 2.8 1.3 0
v 2.8 2.5 0
v 2.8 3.3 0
v 2.8 3.4 0
v 2.8 3.7 0
v 3.2 1.1 0
v 3.2 3.3 0
v 3.3 1 0
v 3.3 3.4 0
v 0.5 1.1 -0.1
v 0.5 2.1 -0.1
v 0.6 1 -0.1
v 0.6 1.1 -0.1
v 0.6 2.1 -0.1
v 0.6 2.2 -0.1
v 0.8 1 -0.1
v 0.8 1.1 -0.1
v 0.8 1.2 -0.1
v 0.8 2 -0.1
v 0.8 2.1 -0.1
v 0.8 2.2 -0.1
v 0.8 3 -0.1
v 0.8 3.2 -0.1
v 0.9 1 -0.1
v 0.9 1.1 -0.1
v 0.9 2.1 -0.1
v 0.9 3 -0.1
v 0.9 3.2 -0.1
v 0.9 3.4 -0.1
v 1 1.1 -0.1
v 1 1.2 -0.1
v 1 2 -0.1
v 1 2.3 -0.1
v 1 2.4 -0.1
v 1 2.5 -0.1
v 1 2.6 -0.1
v 1 2.7 -0.1
v 1 2.8 -0.1
v 1 2.9 -0.1
v 1 3 -0.1
v 1 3.2 -0.1
v 1 3.3 -0.1
v 1.1 2.3 -0.1
v 1.1 2.4 -0.1
v 1.1 2.5 -0.1
v 1.1 2.6 -0.1
v 1.1 2.7 -0.1
v 1.1 2.8 -0.1
v 1.1 2.9 -0.1
v 1.1 3 -0.1
v 1.2 2.3 -0.1
v 1.2 2.4 -0.1
v 1.2 2.8 -0.1
v 1.2 2.9 -0.1
v 1.2 3 -0.1
v 1.3 2.3 -0.1
v 1.3 2.4 -0.1
v 1.3 2.6 -0.1
v 1.3 2.7 -0.1
v 1.3 2.9 -0.1
v 1.3 3 -0.1
v 1.4 2.3 -0.1
v 1.4 2.4 -0.1
v 1.4 2.7 -0.1
v 1.4 2.9 -0.1
v 1.4 3 -0.1
v 1.5 2.3 -0.1
v 1.5 2.4 -0.1
v 1.5 2.9 -0.1
v 1.5 3 -0.1
v 1.5 3.3 -0.1
v 1.5 3.4 -0.1
v 1.5 3.7 -0.1
v 1.6 2.3 -0.1
v 1.6 2.4 -0.1
v 1.6 2.5 -0.1
v 1.6 2.6 -0.1
v 1.6 2.7 -0.1
v 1.6 2.8 -0.1
v 1.6 2.9 -0.1
v 1.6 3 -0.1
v 1.6 3.4 -0.1
v 1.6 3.6 -0.1
v 1.6 3.7 -0.1
v 1.6 3.8 -0.1
v 1.7 2.3 -0.1
v 1.7 2.4 -0.1
v 1.7 2.5 -0.1
v 1.7 2.6 -0.1
v 1.7 2.7 -0.1
v 1.7 2.8 -0.1
v 1.7 2.9 -0.1
v 1.7 3 -0.1
v 1.7 3.5 -0.1
v 1.7 3.6 -0.1
v 1.7 3.7 -0.1
v 1.8 3.5 -0.1
v 1.8 3.6 -0.1
v 1.9 1.3 -0.1
v 1.9 2.3 -0.1
v 1.9 3 -0.1
v 1.9 3.2 -0.1
v 2 1.4 -0.1
v 2 2.3 -0.1
v 2.7 1.4 -0.1
v 2.7 2.5 -0.1
v 2.7 3.4 -0.1
v 2.7 3.7 -0.1
v 2.7 3.8 -0.1
v 2.8 1.3 -0.1
v 2.8 2.5 -0.1
v 2.8 3.3 -0.1
v 2.8 3.4 -0.1
v 2.8 3.7 -0.1
v 3.2 1.1 -0.1
v 3.2 3.3 -0.1
v 3.3 1 -0.1
v 3.3 3.4 -0.1
v 0.6 1 0
v 0.8 1 0
v 0.9 1 0
v 3.3 1 0
v 0.6 1 -0.1
v 0.8 1 -0.1
v 0.9 1 -0.1
v 3.3 1 -0.1
v 0.5 1.1 0
v 0.6 1.1 0
v 0.8 1.1 0
v 0.9 1.1 0
v 0.5 1.1 -0.1
v 0.6 1.1 -0.1
v 0.8 1.1 -0.1
v 0.9 1.1 -0.1
v 0.8 3 0
v 0.9 3 0
v 0.8 3 -0.1
v 0.9 3 -0.1
v 0.5 2.1 0
v 0.6 2.1 0
v 0.8 2.1 0
v 0.9 2.1 0
v 0.5 2.1 -0.1
v 0.6 2.1 -0.1
v 0.8 2.1 -0.1
v 0.9 2.1 -0.1
v 0.6 2.2 0
v 0.8 2.2 0
v 0.6 2.2 -0.1
v 0.8 2.2 -0.1
v 0.8 3.2 0
v 0.9 3.2 0
v 0.8 3.2 -0.1
v 0.9 3.2 -0.1
v 0.9 3.4 0
v 1.5 3.4 0
v 2.8 3.4 0
v 3.3 3.4 0
v 0.9 3.4 -0.1
v 1.5 3.4 -0.1
v 2.8 3.4 -0.1
v 3.3 3.4 -0.1
v 1.5 3.7 0
v 1.6 3.7 0
v 2.7 3.7 0
v 2.8 3.7 0
v 1.5 3.7 -0.1
v 1.6 3.7 -0.1
v 2.7 3.7 -0.1
v 2.8 3.7 -0.1
v 1.6 3.8 0
v 2.7 3.8 0
v 1.6 3.8 -0.1
v 2.7 3.8 -0.1

# faces
f 3/9/1 2/9/1 1/9/1
f 4/9/1 2/9/1 3/9/1
f 7/9/1 6/9/1 5/9/1
f 8/9/1 6/9/1 7/9/1
f 11/9/1 10/9/1 9/9/1
f 12/9/1 10/9/1 11/9/1
f 15/8/1 14/8/1 13/8/1
f 16/8/1 14/8/1 15/8/1
f 19/9/1 18/9/1 17/9/1
f 20/9/1 18/9/1 19/9/1
f 23/9/1 22/9/1 21/9/1
f 24/9/1 22/9/1 23/9/1
f 27/9/1 26/9/1 25/9/1
f 28/9/1 26/9/1 27/9/1
f 31/9/1 30/9/1 29/9/1
f 32/9/1 30/9/1 31/9/1
f 35/9/1 34/9/1 33/9/1
f 36/9/1 34/9/1 35/9/1
f 37/9/2 38/9/2 39/9/2
f 39/9/2 38/9/2 40/9/2
f 41/9/2 42/9/2 43/9/2
f 43/9/2 42/9/2 44/9/2
f 45/9/2 46/9/2 47/9/2
f 47/9/2 46/9/2 48/9/2
f 49/9/2 50/9/2 51/9/2
f 51/9/2 50/9/2 52/9/2
f 53/9/2 54/9/2 55/9/2
f 55/9/2 54/9/2 56/9/2
f 60/9/3 58/9/3 57/9/3
f 61/9/3 58/9/3 60/9/3
f 63/9/3 60/9/3 59/9/3
f 64/1/3 61/1/3 60/1/3
f 64/9/3 60/9/3 63/9/3
f 65/1/3 61/1/3 64/1/3
f 66/1/3 61/1/3 65/1/3
f 67/9/3 62/9/3 61/9/3
f 67/1/3 61/1/3 66/1/3
f 68/9/3 62/9/3 67/9/3
f 72/9/3 65/9/3 64/9/3
f 73/9/3 67/9/3 66/9/3
f 74/8/3 70/8/3 69/8/3
f 75/8/3 70/8/3 74/8/3
f 77/9/3 72/9/3 71/9/3
f 77/9/3 65/9/3 72/9/3
f 78/6/3 66/6/3 65/6/3
f 78/9/3 65/9/3 77/9/3
f 79/9/3 73/9/3 66/9/3
f 79/6/3 66/6/3 78/6/3
f 79/9/3 74/9/3 73/9/3
f 80/9/3 74/9/3 79/9/3
f 81/9/3 74/9/3 80/9/3
f 82/9/3 74/9/3 81/9/3
f 83/9/3 74/9/3 82/9/3
f 84/9/3 74/9/3 83/9/3
f 85/9/3 74/9/3 84/9/3
f 86/9/3 74/9/3 85/9/3
f 87/8/3 75/8/3 74/8/3
f 87/9/3 74/9/3 86/9/3
f 88/9/3 76/9/3 75/9/3
f 88/8/3 75/8/3 87/8/3
f 89/9/3 76/9/3 88/9/3
f 90/6/3 78/6/3 77/6/3
f 90/6/3 79/6/3 78/6/3
f 90/6/3 80/6/3 79/6/3
f 90/5/3 81/5/3 80/5/3
f 91/7/3 82/7/3 81/7/3
f 91/5/3 81/5/3 90/5/3
f 92/5/3 83/5/3 82/5/3
f 92/7/3 82/7/3 91/7/3
f 93/7/3 84/7/3 83/7/3
f 93/5/3 83/5/3 92/5/3
f 94/5/3 85/5/3 84/5/3
f 94/7/3 84/7/3 93/7/3
f 95/7/3 86/7/3 85/7/3
f 95/5/3 85/5/3 94/5/3
f 96/5/3 87/5/3 86/5/3
f 96/7/3 86/7/3 95/7/3
f 97/8/3 88/8/3 87/8/3
f 97/5/3 87/5/3 96/5/3
f 98/6/3 90/6/3 77/6/3
f 98/7/3 91/7/3 90/7/3
f 99/2/3 93/2/3 92/2/3
f 99/7/3 91/7/3 98/7/3
f 99/2/3 92/2/3 91/2/3
f 100/3/3 95/3/3 94/3/3
f 100/3/3 94/3/3 93/3/3
f 100/2/3 96/2/3 95/2/3
f 101/7/3 97/7/3 96/7/3
f 101/2/3 96/2/3 100/2/3
f 102/8/3 88/8/3 97/8/3
f 102/7/3 97/7/3 101/7/3
f 103/5/3 99/5/3 98/5/3
f 103/6/3 98/6/3 77/6/3
f 104/2/3 93/2/3 99/2/3
f 104/5/3 99/5/3 103/5/3
f 105/3/3 100/3/3 93/3/3
f 105/2/3 93/2/3 104/2/3
f 105/3/3 101/3/3 100/3/3
f 106/3/3 101/3/3 105/3/3
f 107/5/3 102/5/3 101/5/3
f 107/3/3 101/3/3 106/3/3
f 108/8/3 88/8/3 102/8/3
f 108/5/3 102/5/3 107/5/3
f 109/6/3 103/6/3 77/6/3
f 109/7/3 104/7/3 103/7/3
f 110/2/3 106/2/3 105/2/3
f 110/7/3 104/7/3 109/7/3
f 110/2/3 105/2/3 104/2/3
f 111/3/3 107/3/3 106/3/3
f 111/2/3 106/2/3 110/2/3
f 112/7/3 108/7/3 107/7/3
f 112/3/3 107/3/3 111/3/3
f 113/8/3 88/8/3 108/8/3
f 113/7/3 108/7/3 112/7/3
f 114/5/3 110/5/3 109/5/3
f 114/6/3 109/6/3 77/6/3
f 115/2/3 112/2/3 111/2/3
f 115/5/3 110/5/3 114/5/3
f 115/2/3 111/2/3 110/2/3
f 116/5/3 113/5/3 112/5/3
f 116/2/3 112/2/3 115/2/3
f 117/8/3 88/8/3 113/8/3
f 117/5/3 113/5/3 116/5/3
f 118/9/3 76/9/3 89/9/3
f 118/6/3 89/6/3 88/6/3
f 119/9/3 76/9/3 118/9/3
f 121/6/3 114/6/3 77/6/3
f 121/7/3 115/7/3 114/7/3
f 122/2/3 116/2/3 115/2/3
f 122/7/3 115/7/3 121/7/3
f 123/2/3 116/2/3 122/2/3
f 124/2/3 116/2/3 123/2/3
f 125/2/3 116/2/3 124/2/3
f 126/2/3 116/2/3 125/2/3
f 127/7/3 117/7/3 116/7/3
f 127/2/3 116/2/3 126/2/3
f 128/8/3 88/8/3 117/8/3
f 128/7/3 117/7/3 127/7/3
f 129/9/3 120/9/3 119/9/3
f 129/4/3 119/4/3 118/4/3
f 130/9/3 120/9/3 129/9/3
f 131/9/3 120/9/3 130/9/3
f 133/6/3 121/6/3 77/6/3
f 133/5/3 122/5/3 121/5/3
f 134/7/3 123/7/3 122/7/3
f 134/5/3 122/5/3 133/5/3
f 135/5/3 124/5/3 123/5/3
f 135/7/3 123/7/3 134/7/3
f 136/7/3 125/7/3 124/7/3
f 136/5/3 124/5/3 135/5/3
f 137/5/3 126/5/3 125/5/3
f 137/7/3 125/7/3 136/7/3
f 138/7/3 127/7/3 126/7/3
f 138/5/3 126/5/3 137/5/3
f 139/5/3 128/5/3 127/5/3
f 139/7/3 127/7/3 138/7/3
f 140/8/3 88/8/3 128/8/3
f 140/5/3 128/5/3 139/5/3
f 141/2/3 130/2/3 129/2/3
f 142/3/3 131/3/3 130/3/3
f 142/2/3 130/2/3 141/2/3
f 143/9/3 132/9/3 131/9/3
f 143/3/3 131/3/3 142/3/3
f 144/3/3 142/3/3 141/3/3
f 144/2/3 141/2/3 129/2/3
f 145/2/3 143/2/3 142/2/3
f 145/3/3 142/3/3 144/3/3
f 146/6/3 137/6/3 136/6/3
f 146/6/3 139/6/3 138/6/3
f 146/6/3 136/6/3 135/6/3
f 146/6/3 140/6/3 139/6/3
f 146/6/3 138/6/3 137/6/3
f 146/6/3 133/6/3 77/6/3
f 146/6/3 135/6/3 134/6/3
f 146/6/3 134/6/3 133/6/3
f 147/6/3 140/6/3 146/6/3
f 148/8/3 88/8/3 140/8/3
f 148/6/3 140/6/3 147/6/3
f 149/6/3 118/6/3 88/6/3
f 149/8/3 88/8/3 148/8/3
f 150/7/3 147/7/3 146/7/3
f 151/6/3 148/6/3 147/6/3
f 151/7/3 147/7/3 150/7/3
f 151/6/3 149/6/3 148/6/3
f 152/7/3 150/7/3 146/7/3
f 152/6/3 151/6/3 150/6/3
f 153/6/3 149/6/3 151/6/3
f 153/6/3 151/6/3 152/6/3
f 154/2/3 145/2/3 144/2/3
f 154/4/3 129/4/3 118/4/3
f 154/2/3 144/2/3 129/2/3
f 155/2/3 143/2/3 145/2/3
f 155/2/3 145/2/3 154/2/3
f 155/9/3 132/9/3 143/9/3
f 156/9/3 132/9/3 155/9/3
f 157/6/3 146/6/3 77/6/3
f 157/7/3 153/7/3 152/7/3
f 157/7/3 152/7/3 146/7/3
f 158/6/3 149/6/3 153/6/3
f 158/7/3 153/7/3 157/7/3
f 159/4/3 154/4/3 118/4/3
f 159/6/3 149/6/3 158/6/3
f 159/6/3 118/6/3 149/6/3
f 160/9/3 155/9/3 154/9/3
f 160/4/3 154/4/3 159/4/3
f 161/9/3 155/9/3 160/9/3
f 162/9/3 77/9/3 71/9/3
f 162/6/3 158/6/3 157/6/3
f 162/6/3 157/6/3 77/6/3
f 162/6/3 159/6/3 158/6/3
f 163/9/3 160/9/3 159/9/3
f 163/6/3 159/6/3 162/6/3
f 164/9/3 162/9/3 71/9/3
f 164/9/3 163/9/3 162/9/3
f 165/9/3 160/9/3 163/9/3
f 165/9/3 163/9/3 164/9/3
f 166/9/4 167/9/4 169/9/4
f 169/9/4 167/9/4 170/9/4
f 168/9/4 169/9/4 172/9/4
f 169/1/4 170/1/4 173/1/4
f 172/9/4 169/9/4 173/9/4
f 173/1/4 170/1/4 174/1/4
f 174/1/4 170/1/4 175/1/4
f 170/9/4 171/9/4 176/9/4
f 175/1/4 170/1/4 176/1/4
f 176/9/4 171/9/4 177/9/4
f 173/9/4 174/9/4 181/9/4
f 175/9/4 176/9/4 182/9/4
f 178/8/4 179/8/4 183/8/4
f 183/8/4 179/8/4 184/8/4
f 180/9/4 181/9/4 186/9/4
f 181/9/4 174/9/4 186/9/4
f 174/6/4 175/6/4 187/6/4
f 186/9/4 174/9/4 187/9/4
f 175/9/4 182/9/4 188/9/4
f 187/6/4 175/6/4 188/6/4
f 182/9/4 183/9/4 188/9/4
f 188/9/4 183/9/4 189/9/4
f 189/9/4 183/9/4 190/9/4
f 190/9/4 183/9/4 191/9/4
f 191/9/4 183/9/4 192/9/4
f 192/9/4 183/9/4 193/9/4
f 193/9/4 183/9/4 194/9/4
f 194/9/4 183/9/4 195/9/4
f 183/8/4 184/8/4 196/8/4
f 195/9/4 183/9/4 196/9/4
f 184/9/4 185/9/4 197/9/4
f 196/8/4 184/8/4 197/8/4
f 197/9/4 185/9/4 198/9/4
f 186/6/4 187/6/4 199/6/4
f 187/6/4 188/6/4 199/6/4
f 188/6/4 189/6/4 199/6/4
f 189/5/4 190/5/4 199/5/4
f 190/7/4 191/7/4 200/7/4
f 199/5/4 190/5/4 200/5/4
f 191/5/4 192/5/4 201/5/4
f 200/7/4 191/7/4 201/7/4
f 192/7/4 193/7/4 202/7/4
f 201/5/4 192/5/4 202/5/4
f 193/5/4 194/5/4 203/5/4
f 202/7/4 193/7/4 203/7/4
f 194/7/4 195/7/4 204/7/4
f 203/5/4 194/5/4 204/5/4
f 195/5/4 196/5/4 205/5/4
f 204/7/4 195/7/4 205/7/4
f 196/8/4 197/8/4 206/8/4
f 205/5/4 196/5/4 206/5/4
f 186/6/4 199/6/4 207/6/4
f 199/7/4 200/7/4 207/7/4
f 201/2/4 202/2/4 208/2/4
f 207/7/4 200/7/4 208/7/4
f 200/2/4 201/2/4 208/2/4
f 203/3/4 204/3/4 209/3/4
f 202/3/4 203/3/4 209/3/4
f 204/2/4 205/2/4 209/2/4
f 205/7/4 206/7/4 210/7/4
f 209/2/4 205/2/4 210/2/4
f 206/8/4 197/8/4 211/8/4
f 210/7/4 206/7/4 211/7/4
f 207/5/4 208/5/4 212/5/4
f 186/6/4 207/6/4 212/6/4
f 208/2/4 202/2/4 213/2/4
f 212/5/4 208/5/4 213/5/4
f 202/3/4 209/3/4 214/3/4
f 213/2/4 202/2/4 214/2/4
f 209/3/4 210/3/4 214/3/4
f 214/3/4 210/3/4 215/3/4
f 210/5/4 211/5/4 216/5/4
f 215/3/4 210/3/4 216/3/4
f 211/8/4 197/8/4 217/8/4
f 216/5/4 211/5/4 217/5/4
f 186/6/4 212/6/4 218/6/4
f 212/7/4 213/7/4 218/7/4
f 214/2/4 215/2/4 219/2/4
f 218/7/4 213/7/4 219/7/4
f 213/2/4 214/2/4 219/2/4
f 215/3/4 216/3/4 220/3/4
f 219/2/4 215/2/4 220/2/4
f 216/7/4 217/7/4 221/7/4
f 220/3/4 216/3/4 221/3/4
f 217/8/4 197/8/4 222/8/4
f 221/7/4 217/7/4 222/7/4
f 218/5/4 219/5/4 223/5/4
f 186/6/4 218/6/4 223/6/4
f 220/2/4 221/2/4 224/2/4
f 223/5/4 219/5/4 224/5/4
f 219/2/4 220/2/4 224/2/4
f 221/5/4 222/5/4 225/5/4
f 224/2/4 221/2/4 225/2/4
f 222/8/4 197/8/4 226/8/4
f 225/5/4 222/5/4 226/5/4
f 198/9/4 185/9/4 227/9/4
f 197/6/4 198/6/4 227/6/4
f 227/9/4 185/9/4 228/9/4
f 186/6/4 223/6/4 230/6/4
f 223/7/4 224/7/4 230/7/4
f 224/2/4 225/2/4 231/2/4
f 230/7/4 224/7/4 231/7/4
f 231/2/4 225/2/4 232/2/4
f 232/2/4 225/2/4 233/2/4
f 233/2/4 225/2/4 234/2/4
f 234/2/4 225/2/4 235/2/4
f 225/7/4 226/7/4 236/7/4
f 235/2/4 225/2/4 236/2/4
f 226/8/4 197/8/4 237/8/4
f 236/7/4 226/7/4 237/7/4
f 228/9/4 229/9/4 238/9/4
f 227/4/4 228/4/4 238/4/4
f 238/9/4 229/9/4 239/9/4
f 239/9/4 229/9/4 240/9/4
f 186/6/4 230/6/4 242/6/4
f 230/5/4 231/5/4 242/5/4
f 231/7/4 232/7/4 243/7/4
f 242/5/4 231/5/4 243/5/4
f 232/5/4 233/5/4 244/5/4
f 243/7/4 232/7/4 244/7/4
f 233/7/4 234/7/4 245/7/4
f 244/5/4 233/5/4 245/5/4
f 234/5/4 235/5/4 246/5/4
f 245/7/4 234/7/4 246/7/4
f 235/7/4 236/7/4 247/7/4
f 246/5/4 235/5/4 247/5/4
f 236/5/4 237/5/4 248/5/4
f 247/7/4 236/7/4 248/7/4
f 237/8/4 197/8/4 249/8/4
f 248/5/4 237/5/4 249/5/4
f 238/2/4 239/2/4 250/2/4
f 239/3/4 240/3/4 251/3/4
f 250/2/4 239/2/4 251/2/4
f 240/9/4 241/9/4 252/9/4
f 251/3/4 240/3/4 252/3/4
f 250/3/4 251/3/4 253/3/4
f 238/2/4 250/2/4 253/2/4
f 251/2/4 252/2/4 254/2/4
f 253/3/4 251/3/4 254/3/4
f 245/6/4 246/6/4 255/6/4
f 247/6/4 248/6/4 255/6/4
f 244/6/4 245/6/4 255/6/4
f 248/6/4 249/6/4 255/6/4
f 246/6/4 247/6/4 255/6/4
f 186/6/4 242/6/4 255/6/4
f 243/6/4 244/6/4 255/6/4
f 242/6/4 243/6/4 255/6/4
f 255/6/4 249/6/4 256/6/4
f 249/8/4 197/8/4 257/8/4
f 256/6/4 249/6/4 257/6/4
f 197/6/4 227/6/4 258/6/4
f 257/8/4 197/8/4 258/8/4
f 255/7/4 256/7/4 259/7/4
f 256/6/4 257/6/4 260/6/4
f 259/7/4 256/7/4 260/7/4
f 257/6/4 258/6/4 260/6/4
f 255/7/4 259/7/4 261/7/4
f 259/6/4 260/6/4 261/6/4
f 260/6/4 258/6/4 262/6/4
f 261/6/4 260/6/4 262/6/4
f 253/2/4 254/2/4 263/2/4
f 227/4/4 238/4/4 263/4/4
f 238/2/4 253/2/4 263/2/4
f 254/2/4 252/2/4 264/2/4
f 263/2/4 254/2/4 264/2/4
f 252/9/4 241/9/4 264/9/4
f 264/9/4 241/9/4 265/9/4
f 186/6/4 255/6/4 266/6/4
f 261/7/4 262/7/4 266/7/4
f 255/7/4 261/7/4 266/7/4
f 262/6/4 258/6/4 267/6/4
f 266/7/4 262/7/4 267/7/4
f 227/4/4 263/4/4 268/4/4
f 267/6/4 258/6/4 268/6/4
f 258/6/4 227/6/4 268/6/4
f 263/9/4 264/9/4 269/9/4
f 268/4/4 263/4/4 269/4/4
f 269/9/4 264/9/4 270/9/4
f 180/9/4 186/9/4 271/9/4
f 266/6/4 267/6/4 271/6/4
f 186/6/4 266/6/4 271/6/4
f 267/6/4 268/6/4 271/6/4
f 268/9/4 269/9/4 272/9/4
f 271/6/4 268/6/4 272/6/4
f 180/9/4 271/9/4 273/9/4
f 271/9/4 272/9/4 273/9/4
f 272/9/4 269/9/4 274/9/4
f 273/9/4 272/9/4 274/9/4
f 279/9/5 276/9/5 275/9/5
f 280/9/5 276/9/5 279/9/5
f 281/9/5 278/9/5 277/9/5
f 282/9/5 278/9/5 281/9/5
f 287/9/5 284/9/5 283/9/5
f 288/9/5 284/9/5 287/9/5
f 289/9/5 286/9/5 285/9/5
f 290/9/5 286/9/5 289/9/5
f 293/8/5 292/8/5 291/8/5
f 294/8/5 292/8/5 293/8/5
f 295/9/6 296/9/6 299/9/6
f 299/9/6 296/9/6 300/9/6
f 297/9/6 298/9/6 301/9/6
f 301/9/6 298/9/6 302/9/6
f 303/9/6 304/9/6 305/9/6
f 305/9/6 304/9/6 306/9/6
f 307/8/6 308/8/6 309/8/6
f 309/8/6 308/8/6 310/8/6
f 311/9/6 312/9/6 315/9/6
f 315/9/6 312/9/6 316/9/6
f 313/9/6 314/9/6 317/9/6
f 317/9/6 314/9/6 318/9/6
f 319/9/6 320/9/6 323/9/6
f 323/9/6 320/9/6 324/9/6
f 321/9/6 322/9/6 325/9/6
f 325/9/6 322/9/6 326/9/6
f 327/9/6 328/9/6 329/9/6
f 329/9/6 328/9/6 330/9/6
