# MagicaVoxel @ Ephtracy

# group
o 

# material
mtllib 180 sign.mtl
usemtl palette

# normals
vn -1 0 0
vn 1 0 0
vn 0 0 1
vn 0 0 -1
vn 0 -1 0
vn 0 1 0

# texcoords
vt 0.841797 0.5
vt 0.994141 0.5

# verts
v 0.4 2.1 0
v 0.4 2.1 -0.1
v 0.4 2.4 0
v 0.4 2.4 -0.1
v 0.4 2.6 0
v 0.4 2.6 -0.1
v 0.4 2.9 0
v 0.4 2.9 -0.1
v 0.5 2.9 0
v 0.5 2.9 -0.1
v 0.5 3 0
v 0.5 3 -0.1
v 0.6 2.4 0
v 0.6 2.4 -0.1
v 0.6 2.6 0
v 0.6 2.6 -0.1
v 0.7 3.3 0
v 0.7 3.3 -0.1
v 0.7 3.9 0
v 0.7 3.9 -0.1
v 0.8 3.2 0
v 0.8 3.2 -0.1
v 0.8 3.3 0
v 0.8 3.3 -0.1
v 0.8 3.9 0
v 0.8 3.9 -0.1
v 0.8 4 0
v 0.8 4 -0.1
v 0.9 3.1 0
v 0.9 3.1 -0.1
v 0.9 3.2 0
v 0.9 3.2 -0.1
v 1 2.4 0
v 1 2.4 -0.1
v 1 2.9 0
v 1 2.9 -0.1
v 1.1 2.1 0
v 1.1 2.1 -0.1
v 1.1 2.2 0
v 1.1 2.2 -0.1
v 1.1 2.9 0
v 1.1 2.9 -0.1
v 1.1 3 0
v 1.1 3 -0.1
v 1.1 3.4 0
v 1.1 3.4 -0.1
v 1.1 3.8 0
v 1.1 3.8 -0.1
v 1.2 3.8 0
v 1.2 3.8 -0.1
v 1.2 3.9 0
v 1.2 3.9 -0.1
v 1.3 3.2 0
v 1.3 3.2 -0.1
v 1.3 3.3 0
v 1.3 3.3 -0.1
v 1.4 3.1 0
v 1.4 3.1 -0.1
v 1.4 3.2 0
v 1.4 3.2 -0.1
v 1.5 3.4 0
v 1.5 3.4 -0.1
v 1.5 3.9 0
v 1.5 3.9 -0.1
v 1.6 2.1 0
v 1.6 2.1 -0.1
v 1.6 2.2 0
v 1.6 2.2 -0.1
v 1.6 2.9 0
v 1.6 2.9 -0.1
v 1.6 3 0
v 1.6 3 -0.1
v 1.6 3.9 0
v 1.6 3.9 -0.1
v 1.6 4 0
v 1.6 4 -0.1
v 2.2 3 0
v 2.2 3 -0.1
v 2.2 3.1 0
v 2.2 3.1 -0.1
v 0.8 2.9 0
v 0.8 2.9 -0.1
v 0.8 3 0
v 0.8 3 -0.1
v 0.9 2.4 0
v 0.9 2.4 -0.1
v 0.9 2.9 0
v 0.9 2.9 -0.1
v 0.9 3.9 0
v 0.9 3.9 -0.1
v 0.9 4 0
v 0.9 4 -0.1
v 1 2.1 0
v 1 2.1 -0.1
v 1 2.2 0
v 1 2.2 -0.1
v 1 3.4 0
v 1 3.4 -0.1
v 1 3.9 0
v 1 3.9 -0.1
v 1.1 3.1 0
v 1.1 3.1 -0.1
v 1.1 3.2 0
v 1.1 3.2 -0.1
v 1.2 3.2 0
v 1.2 3.2 -0.1
v 1.2 3.3 0
v 1.2 3.3 -0.1
v 1.3 3.8 0
v 1.3 3.8 -0.1
v 1.3 3.9 0
v 1.3 3.9 -0.1
v 1.4 3.4 0
v 1.4 3.4 -0.1
v 1.4 3.8 0
v 1.4 3.8 -0.1
v 1.5 2.1 0
v 1.5 2.1 -0.1
v 1.5 2.2 0
v 1.5 2.2 -0.1
v 1.5 2.9 0
v 1.5 2.9 -0.1
v 1.5 3 0
v 1.5 3 -0.1
v 1.6 3.1 0
v 1.6 3.1 -0.1
v 1.6 3.2 0
v 1.6 3.2 -0.1
v 1.7 3.2 0
v 1.7 3.2 -0.1
v 1.7 3.3 0
v 1.7 3.3 -0.1
v 1.7 3.9 0
v 1.7 3.9 -0.1
v 1.7 4 0
v 1.7 4 -0.1
v 1.8 3.3 0
v 1.8 3.3 -0.1
v 1.8 3.9 0
v 1.8 3.9 -0.1
v 2.1 2.1 0
v 2.1 2.1 -0.1
v 2.1 2.2 0
v 2.1 2.2 -0.1
v 2.2 2.2 0
v 2.2 2.2 -0.1
v 2.2 2.7 0
v 2.2 2.7 -0.1
v 2.4 2.7 0
v 2.4 2.7 -0.1
v 2.4 2.8 0
v 2.4 2.8 -0.1
v 2.4 3 0
v 2.4 3 -0.1
v 2.4 3.1 0
v 2.4 3.1 -0.1
v 2.5 2.8 0
v 2.5 2.8 -0.1
v 2.5 3 0
v 2.5 3 -0.1
v 0.4 2.1 0
v 0.4 2.4 0
v 0.4 2.6 0
v 0.4 2.9 0
v 0.5 2.2 0
v 0.5 2.3 0
v 0.5 2.7 0
v 0.5 2.8 0
v 0.5 2.9 0
v 0.5 3 0
v 0.6 2.4 0
v 0.6 2.6 0
v 0.6 2.8 0
v 0.6 2.9 0
v 0.7 2.3 0
v 0.7 2.7 0
v 0.7 3.3 0
v 0.7 3.9 0
v 0.8 2.3 0
v 0.8 2.9 0
v 0.8 3 0
v 0.8 3.2 0
v 0.8 3.3 0
v 0.8 3.9 0
v 0.8 4 0
v 0.9 2.2 0
v 0.9 2.3 0
v 0.9 2.4 0
v 0.9 2.9 0
v 0.9 3.1 0
v 0.9 3.2 0
v 0.9 3.3 0
v 0.9 3.9 0
v 0.9 4 0
v 1 2.1 0
v 1 2.2 0
v 1 2.4 0
v 1 2.9 0
v 1 3.4 0
v 1 3.9 0
v 1.1 2.1 0
v 1.1 2.2 0
v 1.1 2.3 0
v 1.1 2.5 0
v 1.1 2.6 0
v 1.1 2.8 0
v 1.1 2.9 0
v 1.1 3 0
v 1.1 3.1 0
v 1.1 3.2 0
v 1.1 3.3 0
v 1.1 3.4 0
v 1.1 3.8 0
v 1.2 2.2 0
v 1.2 2.3 0
v 1.2 2.5 0
v 1.2 2.6 0
v 1.2 2.8 0
v 1.2 2.9 0
v 1.2 3.2 0
v 1.2 3.3 0
v 1.2 3.4 0
v 1.2 3.8 0
v 1.2 3.9 0
v 1.3 3.2 0
v 1.3 3.3 0
v 1.3 3.4 0
v 1.3 3.8 0
v 1.3 3.9 0
v 1.4 2.2 0
v 1.4 2.3 0
v 1.4 2.5 0
v 1.4 2.6 0
v 1.4 2.8 0
v 1.4 2.9 0
v 1.4 3.1 0
v 1.4 3.2 0
v 1.4 3.3 0
v 1.4 3.4 0
v 1.4 3.8 0
v 1.5 2.1 0
v 1.5 2.2 0
v 1.5 2.3 0
v 1.5 2.5 0
v 1.5 2.6 0
v 1.5 2.8 0
v 1.5 2.9 0
v 1.5 3 0
v 1.5 3.4 0
v 1.5 3.9 0
v 1.6 2.1 0
v 1.6 2.2 0
v 1.6 2.3 0
v 1.6 2.8 0
v 1.6 2.9 0
v 1.6 3 0
v 1.6 3.1 0
v 1.6 3.2 0
v 1.6 3.3 0
v 1.6 3.9 0
v 1.6 4 0
v 1.7 2.2 0
v 1.7 2.3 0
v 1.7 2.8 0
v 1.7 2.9 0
v 1.7 3.2 0
v 1.7 3.3 0
v 1.7 3.9 0
v 1.7 4 0
v 1.8 3.3 0
v 1.8 3.9 0
v 2 2.2 0
v 2 2.3 0
v 2 2.8 0
v 2 2.9 0
v 2.1 2.1 0
v 2.1 2.2 0
v 2.1 2.3 0
v 2.1 2.8 0
v 2.2 2.2 0
v 2.2 2.7 0
v 2.2 2.8 0
v 2.2 3 0
v 2.2 3.1 0
v 2.4 2.7 0
v 2.4 2.8 0
v 2.4 3 0
v 2.4 3.1 0
v 2.5 2.8 0
v 2.5 3 0
v 0.4 2.1 -0.1
v 0.4 2.4 -0.1
v 0.4 2.6 -0.1
v 0.4 2.9 -0.1
v 0.5 2.2 -0.1
v 0.5 2.3 -0.1
v 0.5 2.7 -0.1
v 0.5 2.8 -0.1
v 0.5 2.9 -0.1
v 0.5 3 -0.1
v 0.6 2.4 -0.1
v 0.6 2.6 -0.1
v 0.6 2.8 -0.1
v 0.6 2.9 -0.1
v 0.7 2.3 -0.1
v 0.7 2.7 -0.1
v 0.7 3.3 -0.1
v 0.7 3.9 -0.1
v 0.8 2.3 -0.1
v 0.8 2.9 -0.1
v 0.8 3 -0.1
v 0.8 3.2 -0.1
v 0.8 3.3 -0.1
v 0.8 3.9 -0.1
v 0.8 4 -0.1
v 0.9 2.2 -0.1
v 0.9 2.3 -0.1
v 0.9 2.4 -0.1
v 0.9 2.9 -0.1
v 0.9 3.1 -0.1
v 0.9 3.2 -0.1
v 0.9 3.3 -0.1
v 0.9 3.9 -0.1
v 0.9 4 -0.1
v 1 2.1 -0.1
v 1 2.2 -0.1
v 1 2.4 -0.1
v 1 2.9 -0.1
v 1 3.4 -0.1
v 1 3.9 -0.1
v 1.1 2.1 -0.1
v 1.1 2.2 -0.1
v 1.1 2.3 -0.1
v 1.1 2.5 -0.1
v 1.1 2.6 -0.1
v 1.1 2.8 -0.1
v 1.1 2.9 -0.1
v 1.1 3 -0.1
v 1.1 3.1 -0.1
v 1.1 3.2 -0.1
v 1.1 3.3 -0.1
v 1.1 3.4 -0.1
v 1.1 3.8 -0.1
v 1.2 2.2 -0.1
v 1.2 2.3 -0.1
v 1.2 2.5 -0.1
v 1.2 2.6 -0.1
v 1.2 2.8 -0.1
v 1.2 2.9 -0.1
v 1.2 3.2 -0.1
v 1.2 3.3 -0.1
v 1.2 3.4 -0.1
v 1.2 3.8 -0.1
v 1.2 3.9 -0.1
v 1.3 3.2 -0.1
v 1.3 3.3 -0.1
v 1.3 3.4 -0.1
v 1.3 3.8 -0.1
v 1.3 3.9 -0.1
v 1.4 2.2 -0.1
v 1.4 2.3 -0.1
v 1.4 2.5 -0.1
v 1.4 2.6 -0.1
v 1.4 2.8 -0.1
v 1.4 2.9 -0.1
v 1.4 3.1 -0.1
v 1.4 3.2 -0.1
v 1.4 3.3 -0.1
v 1.4 3.4 -0.1
v 1.4 3.8 -0.1
v 1.5 2.1 -0.1
v 1.5 2.2 -0.1
v 1.5 2.3 -0.1
v 1.5 2.5 -0.1
v 1.5 2.6 -0.1
v 1.5 2.8 -0.1
v 1.5 2.9 -0.1
v 1.5 3 -0.1
v 1.5 3.4 -0.1
v 1.5 3.9 -0.1
v 1.6 2.1 -0.1
v 1.6 2.2 -0.1
v 1.6 2.3 -0.1
v 1.6 2.8 -0.1
v 1.6 2.9 -0.1
v 1.6 3 -0.1
v 1.6 3.1 -0.1
v 1.6 3.2 -0.1
v 1.6 3.3 -0.1
v 1.6 3.9 -0.1
v 1.6 4 -0.1
v 1.7 2.2 -0.1
v 1.7 2.3 -0.1
v 1.7 2.8 -0.1
v 1.7 2.9 -0.1
v 1.7 3.2 -0.1
v 1.7 3.3 -0.1
v 1.7 3.9 -0.1
v 1.7 4 -0.1
v 1.8 3.3 -0.1
v 1.8 3.9 -0.1
v 2 2.2 -0.1
v 2 2.3 -0.1
v 2 2.8 -0.1
v 2 2.9 -0.1
v 2.1 2.1 -0.1
v 2.1 2.2 -0.1
v 2.1 2.3 -0.1
v 2.1 2.8 -0.1
v 2.2 2.2 -0.1
v 2.2 2.7 -0.1
v 2.2 2.8 -0.1
v 2.2 3 -0.1
v 2.2 3.1 -0.1
v 2.4 2.7 -0.1
v 2.4 2.8 -0.1
v 2.4 3 -0.1
v 2.4 3.1 -0.1
v 2.5 2.8 -0.1
v 2.5 3 -0.1
v 0.4 2.1 0
v 1 2.1 0
v 1.1 2.1 0
v 1.5 2.1 0
v 1.6 2.1 0
v 2.1 2.1 0
v 0.4 2.1 -0.1
v 1 2.1 -0.1
v 1.1 2.1 -0.1
v 1.5 2.1 -0.1
v 1.6 2.1 -0.1
v 2.1 2.1 -0.1
v 1 2.2 0
v 1.1 2.2 0
v 1.5 2.2 0
v 1.6 2.2 0
v 2.1 2.2 0
v 2.2 2.2 0
v 1 2.2 -0.1
v 1.1 2.2 -0.1
v 1.5 2.2 -0.1
v 1.6 2.2 -0.1
v 2.1 2.2 -0.1
v 2.2 2.2 -0.1
v 0.4 2.6 0
v 0.6 2.6 0
v 0.4 2.6 -0.1
v 0.6 2.6 -0.1
v 2.2 2.7 0
v 2.4 2.7 0
v 2.2 2.7 -0.1
v 2.4 2.7 -0.1
v 2.4 2.8 0
v 2.5 2.8 0
v 2.4 2.8 -0.1
v 2.5 2.8 -0.1
v 0.9 3.1 0
v 1.1 3.1 0
v 1.4 3.1 0
v 1.6 3.1 0
v 0.9 3.1 -0.1
v 1.1 3.1 -0.1
v 1.4 3.1 -0.1
v 1.6 3.1 -0.1
v 0.8 3.2 0
v 0.9 3.2 0
v 1.1 3.2 0
v 1.2 3.2 0
v 1.3 3.2 0
v 1.4 3.2 0
v 1.6 3.2 0
v 1.7 3.2 0
v 0.8 3.2 -0.1
v 0.9 3.2 -0.1
v 1.1 3.2 -0.1
v 1.2 3.2 -0.1
v 1.3 3.2 -0.1
v 1.4 3.2 -0.1
v 1.6 3.2 -0.1
v 1.7 3.2 -0.1
v 0.7 3.3 0
v 0.8 3.3 0
v 1.2 3.3 0
v 1.3 3.3 0
v 1.7 3.3 0
v 1.8 3.3 0
v 0.7 3.3 -0.1
v 0.8 3.3 -0.1
v 1.2 3.3 -0.1
v 1.3 3.3 -0.1
v 1.7 3.3 -0.1
v 1.8 3.3 -0.1
v 0.4 2.4 0
v 0.6 2.4 0
v 0.9 2.4 0
v 1 2.4 0
v 0.4 2.4 -0.1
v 0.6 2.4 -0.1
v 0.9 2.4 -0.1
v 1 2.4 -0.1
v 0.4 2.9 0
v 0.5 2.9 0
v 0.8 2.9 0
v 0.9 2.9 0
v 1 2.9 0
v 1.1 2.9 0
v 1.5 2.9 0
v 1.6 2.9 0
v 0.4 2.9 -0.1
v 0.5 2.9 -0.1
v 0.8 2.9 -0.1
v 0.9 2.9 -0.1
v 1 2.9 -0.1
v 1.1 2.9 -0.1
v 1.5 2.9 -0.1
v 1.6 2.9 -0.1
v 0.5 3 0
v 0.8 3 0
v 1.1 3 0
v 1.5 3 0
v 1.6 3 0
v 2.2 3 0
v 2.4 3 0
v 2.5 3 0
v 0.5 3 -0.1
v 0.8 3 -0.1
v 1.1 3 -0.1
v 1.5 3 -0.1
v 1.6 3 -0.1
v 2.2 3 -0.1
v 2.4 3 -0.1
v 2.5 3 -0.1
v 2.2 3.1 0
v 2.4 3.1 0
v 2.2 3.1 -0.1
v 2.4 3.1 -0.1
v 1 3.4 0
v 1.1 3.4 0
v 1.4 3.4 0
v 1.5 3.4 0
v 1 3.4 -0.1
v 1.1 3.4 -0.1
v 1.4 3.4 -0.1
v 1.5 3.4 -0.1
v 1.1 3.8 0
v 1.2 3.8 0
v 1.3 3.8 0
v 1.4 3.8 0
v 1.1 3.8 -0.1
v 1.2 3.8 -0.1
v 1.3 3.8 -0.1
v 1.4 3.8 -0.1
v 0.7 3.9 0
v 0.8 3.9 0
v 0.9 3.9 0
v 1 3.9 0
v 1.2 3.9 0
v 1.3 3.9 0
v 1.5 3.9 0
v 1.6 3.9 0
v 1.7 3.9 0
v 1.8 3.9 0
v 0.7 3.9 -0.1
v 0.8 3.9 -0.1
v 0.9 3.9 -0.1
v 1 3.9 -0.1
v 1.2 3.9 -0.1
v 1.3 3.9 -0.1
v 1.5 3.9 -0.1
v 1.6 3.9 -0.1
v 1.7 3.9 -0.1
v 1.8 3.9 -0.1
v 0.8 4 0
v 0.9 4 0
v 1.6 4 0
v 1.7 4 0
v 0.8 4 -0.1
v 0.9 4 -0.1
v 1.6 4 -0.1
v 1.7 4 -0.1

# faces
f 3/2/1 2/2/1 1/2/1
f 4/2/1 2/2/1 3/2/1
f 7/2/1 6/2/1 5/2/1
f 8/2/1 6/2/1 7/2/1
f 11/2/1 10/2/1 9/2/1
f 12/2/1 10/2/1 11/2/1
f 15/2/1 14/2/1 13/2/1
f 16/2/1 14/2/1 15/2/1
f 19/2/1 18/2/1 17/2/1
f 20/2/1 18/2/1 19/2/1
f 23/2/1 22/2/1 21/2/1
f 24/2/1 22/2/1 23/2/1
f 27/2/1 26/2/1 25/2/1
f 28/2/1 26/2/1 27/2/1
f 31/2/1 30/2/1 29/2/1
f 32/2/1 30/2/1 31/2/1
f 35/2/1 34/2/1 33/2/1
f 36/2/1 34/2/1 35/2/1
f 39/2/1 38/2/1 37/2/1
f 40/2/1 38/2/1 39/2/1
f 43/2/1 42/2/1 41/2/1
f 44/2/1 42/2/1 43/2/1
f 47/2/1 46/2/1 45/2/1
f 48/2/1 46/2/1 47/2/1
f 51/2/1 50/2/1 49/2/1
f 52/2/1 50/2/1 51/2/1
f 55/2/1 54/2/1 53/2/1
f 56/2/1 54/2/1 55/2/1
f 59/2/1 58/2/1 57/2/1
f 60/2/1 58/2/1 59/2/1
f 63/2/1 62/2/1 61/2/1
f 64/2/1 62/2/1 63/2/1
f 67/2/1 66/2/1 65/2/1
f 68/2/1 66/2/1 67/2/1
f 71/2/1 70/2/1 69/2/1
f 72/2/1 70/2/1 71/2/1
f 75/2/1 74/2/1 73/2/1
f 76/2/1 74/2/1 75/2/1
f 79/2/1 78/2/1 77/2/1
f 80/2/1 78/2/1 79/2/1
f 81/2/2 82/2/2 83/2/2
f 83/2/2 82/2/2 84/2/2
f 85/2/2 86/2/2 87/2/2
f 87/2/2 86/2/2 88/2/2
f 89/2/2 90/2/2 91/2/2
f 91/2/2 90/2/2 92/2/2
f 93/2/2 94/2/2 95/2/2
f 95/2/2 94/2/2 96/2/2
f 97/2/2 98/2/2 99/2/2
f 99/2/2 98/2/2 100/2/2
f 101/2/2 102/2/2 103/2/2
f 103/2/2 102/2/2 104/2/2
f 105/2/2 106/2/2 107/2/2
f 107/2/2 106/2/2 108/2/2
f 109/2/2 110/2/2 111/2/2
f 111/2/2 110/2/2 112/2/2
f 113/2/2 114/2/2 115/2/2
f 115/2/2 114/2/2 116/2/2
f 117/2/2 118/2/2 119/2/2
f 119/2/2 118/2/2 120/2/2
f 121/2/2 122/2/2 123/2/2
f 123/2/2 122/2/2 124/2/2
f 125/2/2 126/2/2 127/2/2
f 127/2/2 126/2/2 128/2/2
f 129/2/2 130/2/2 131/2/2
f 131/2/2 130/2/2 132/2/2
f 133/2/2 134/2/2 135/2/2
f 135/2/2 134/2/2 136/2/2
f 137/2/2 138/2/2 139/2/2
f 139/2/2 138/2/2 140/2/2
f 141/2/2 142/2/2 143/2/2
f 143/2/2 142/2/2 144/2/2
f 145/2/2 146/2/2 147/2/2
f 147/2/2 146/2/2 148/2/2
f 149/2/2 150/2/2 151/2/2
f 151/2/2 150/2/2 152/2/2
f 153/2/2 154/2/2 155/2/2
f 155/2/2 154/2/2 156/2/2
f 157/2/2 158/2/2 159/2/2
f 159/2/2 158/2/2 160/2/2
f 165/2/3 162/2/3 161/2/3
f 166/2/3 162/2/3 165/2/3
f 167/2/3 164/2/3 163/2/3
f 168/2/3 164/2/3 167/2/3
f 169/2/3 164/2/3 168/2/3
f 171/2/3 162/2/3 166/2/3
f 172/2/3 167/2/3 163/2/3
f 173/2/3 170/2/3 169/2/3
f 173/1/3 168/1/3 167/1/3
f 173/2/3 169/2/3 168/2/3
f 174/2/3 170/2/3 173/2/3
f 175/2/3 172/2/3 171/2/3
f 175/1/3 166/1/3 165/1/3
f 175/2/3 171/2/3 166/2/3
f 176/1/3 174/1/3 173/1/3
f 176/2/3 172/2/3 175/2/3
f 176/1/3 173/1/3 167/1/3
f 176/2/3 167/2/3 172/2/3
f 179/1/3 175/1/3 165/1/3
f 179/1/3 176/1/3 175/1/3
f 180/2/3 170/2/3 174/2/3
f 180/1/3 176/1/3 179/1/3
f 180/1/3 174/1/3 176/1/3
f 181/2/3 170/2/3 180/2/3
f 183/2/3 178/2/3 177/2/3
f 184/2/3 178/2/3 183/2/3
f 186/1/3 179/1/3 165/1/3
f 186/2/3 165/2/3 161/2/3
f 187/2/3 180/2/3 179/2/3
f 187/1/3 179/1/3 186/1/3
f 188/2/3 180/2/3 187/2/3
f 189/2/3 180/2/3 188/2/3
f 191/2/3 183/2/3 182/2/3
f 192/1/3 184/1/3 183/1/3
f 192/2/3 183/2/3 191/2/3
f 193/2/3 185/2/3 184/2/3
f 193/1/3 184/1/3 192/1/3
f 194/2/3 185/2/3 193/2/3
f 195/2/3 186/2/3 161/2/3
f 195/2/3 187/2/3 186/2/3
f 195/2/3 188/2/3 187/2/3
f 196/2/3 188/2/3 195/2/3
f 197/2/3 188/2/3 196/2/3
f 199/2/3 193/2/3 192/2/3
f 200/2/3 193/2/3 199/2/3
f 202/2/3 198/2/3 197/2/3
f 202/2/3 197/2/3 196/2/3
f 203/2/3 198/2/3 202/2/3
f 204/2/3 198/2/3 203/2/3
f 205/2/3 198/2/3 204/2/3
f 206/2/3 198/2/3 205/2/3
f 207/2/3 198/2/3 206/2/3
f 209/2/3 191/2/3 190/2/3
f 210/1/3 192/1/3 191/1/3
f 210/2/3 191/2/3 209/2/3
f 211/2/3 199/2/3 192/2/3
f 211/1/3 192/1/3 210/1/3
f 212/2/3 199/2/3 211/2/3
f 214/2/3 202/2/3 201/2/3
f 214/2/3 203/2/3 202/2/3
f 215/1/3 204/1/3 203/1/3
f 215/2/3 203/2/3 214/2/3
f 216/2/3 205/2/3 204/2/3
f 216/1/3 204/1/3 215/1/3
f 217/1/3 206/1/3 205/1/3
f 217/2/3 205/2/3 216/2/3
f 218/2/3 208/2/3 207/2/3
f 218/1/3 206/1/3 217/1/3
f 218/2/3 207/2/3 206/2/3
f 219/2/3 208/2/3 218/2/3
f 220/2/3 211/2/3 210/2/3
f 221/1/3 212/1/3 211/1/3
f 221/2/3 211/2/3 220/2/3
f 222/2/3 213/2/3 212/2/3
f 222/1/3 212/1/3 221/1/3
f 223/2/3 213/2/3 222/2/3
f 226/2/3 222/2/3 221/2/3
f 227/1/3 223/1/3 222/1/3
f 227/2/3 222/2/3 226/2/3
f 228/2/3 224/2/3 223/2/3
f 228/1/3 223/1/3 227/1/3
f 229/2/3 224/2/3 228/2/3
f 230/2/3 214/2/3 201/2/3
f 230/1/3 215/1/3 214/1/3
f 231/2/3 216/2/3 215/2/3
f 231/1/3 215/1/3 230/1/3
f 232/1/3 217/1/3 216/1/3
f 232/2/3 216/2/3 231/2/3
f 233/2/3 218/2/3 217/2/3
f 233/1/3 217/1/3 232/1/3
f 234/1/3 219/1/3 218/1/3
f 234/2/3 218/2/3 233/2/3
f 235/2/3 208/2/3 219/2/3
f 235/1/3 219/1/3 234/1/3
f 237/2/3 226/2/3 225/2/3
f 238/1/3 227/1/3 226/1/3
f 238/2/3 226/2/3 237/2/3
f 239/2/3 228/2/3 227/2/3
f 239/1/3 227/1/3 238/1/3
f 240/2/3 228/2/3 239/2/3
f 241/2/3 231/2/3 230/2/3
f 241/2/3 230/2/3 201/2/3
f 242/2/3 231/2/3 241/2/3
f 243/1/3 232/1/3 231/1/3
f 243/2/3 231/2/3 242/2/3
f 244/2/3 233/2/3 232/2/3
f 244/1/3 232/1/3 243/1/3
f 245/1/3 234/1/3 233/1/3
f 245/2/3 233/2/3 244/2/3
f 246/2/3 235/2/3 234/2/3
f 246/1/3 234/1/3 245/1/3
f 247/2/3 208/2/3 235/2/3
f 247/2/3 235/2/3 246/2/3
f 248/2/3 208/2/3 247/2/3
f 249/2/3 239/2/3 238/2/3
f 252/2/3 244/2/3 243/2/3
f 252/2/3 247/2/3 246/2/3
f 252/2/3 243/2/3 242/2/3
f 252/2/3 245/2/3 244/2/3
f 252/2/3 246/2/3 245/2/3
f 253/2/3 247/2/3 252/2/3
f 254/2/3 247/2/3 253/2/3
f 255/2/3 247/2/3 254/2/3
f 257/2/3 237/2/3 236/2/3
f 258/1/3 238/1/3 237/1/3
f 258/2/3 237/2/3 257/2/3
f 259/2/3 249/2/3 238/2/3
f 259/1/3 238/1/3 258/1/3
f 259/2/3 250/2/3 249/2/3
f 260/2/3 250/2/3 259/2/3
f 262/2/3 252/2/3 251/2/3
f 262/2/3 253/2/3 252/2/3
f 263/1/3 254/1/3 253/1/3
f 263/2/3 253/2/3 262/2/3
f 264/2/3 256/2/3 255/2/3
f 264/1/3 254/1/3 263/1/3
f 264/2/3 255/2/3 254/2/3
f 265/2/3 256/2/3 264/2/3
f 266/2/3 259/2/3 258/2/3
f 267/1/3 260/1/3 259/1/3
f 267/2/3 259/2/3 266/2/3
f 268/2/3 261/2/3 260/2/3
f 268/1/3 260/1/3 267/1/3
f 269/2/3 261/2/3 268/2/3
f 270/2/3 268/2/3 267/2/3
f 271/2/3 268/2/3 270/2/3
f 272/1/3 263/1/3 262/1/3
f 272/2/3 262/2/3 251/2/3
f 273/2/3 264/2/3 263/2/3
f 273/1/3 263/1/3 272/1/3
f 274/1/3 265/1/3 264/1/3
f 274/2/3 264/2/3 273/2/3
f 275/2/3 256/2/3 265/2/3
f 275/1/3 265/1/3 274/1/3
f 276/2/3 272/2/3 251/2/3
f 276/2/3 273/2/3 272/2/3
f 277/2/3 273/2/3 276/2/3
f 278/1/3 274/1/3 273/1/3
f 278/2/3 273/2/3 277/2/3
f 279/2/3 275/2/3 274/2/3
f 279/1/3 274/1/3 278/1/3
f 280/2/3 278/2/3 277/2/3
f 280/2/3 279/2/3 278/2/3
f 281/2/3 279/2/3 280/2/3
f 282/2/3 275/2/3 279/2/3
f 282/2/3 279/2/3 281/2/3
f 283/2/3 256/2/3 275/2/3
f 283/2/3 275/2/3 282/2/3
f 285/2/3 282/2/3 281/2/3
f 286/1/3 283/1/3 282/1/3
f 286/2/3 282/2/3 285/2/3
f 287/2/3 284/2/3 283/2/3
f 287/1/3 283/1/3 286/1/3
f 288/2/3 284/2/3 287/2/3
f 289/2/3 287/2/3 286/2/3
f 290/2/3 287/2/3 289/2/3
f 291/2/4 292/2/4 295/2/4
f 295/2/4 292/2/4 296/2/4
f 293/2/4 294/2/4 297/2/4
f 297/2/4 294/2/4 298/2/4
f 298/2/4 294/2/4 299/2/4
f 296/2/4 292/2/4 301/2/4
f 293/2/4 297/2/4 302/2/4
f 299/2/4 300/2/4 303/2/4
f 297/1/4 298/1/4 303/1/4
f 298/2/4 299/2/4 303/2/4
f 303/2/4 300/2/4 304/2/4
f 301/2/4 302/2/4 305/2/4
f 295/1/4 296/1/4 305/1/4
f 296/2/4 301/2/4 305/2/4
f 303/1/4 304/1/4 306/1/4
f 305/2/4 302/2/4 306/2/4
f 297/1/4 303/1/4 306/1/4
f 302/2/4 297/2/4 306/2/4
f 295/1/4 305/1/4 309/1/4
f 305/1/4 306/1/4 309/1/4
f 304/2/4 300/2/4 310/2/4
f 309/1/4 306/1/4 310/1/4
f 306/1/4 304/1/4 310/1/4
f 310/2/4 300/2/4 311/2/4
f 307/2/4 308/2/4 313/2/4
f 313/2/4 308/2/4 314/2/4
f 295/1/4 309/1/4 316/1/4
f 291/2/4 295/2/4 316/2/4
f 309/2/4 310/2/4 317/2/4
f 316/1/4 309/1/4 317/1/4
f 317/2/4 310/2/4 318/2/4
f 318/2/4 310/2/4 319/2/4
f 312/2/4 313/2/4 321/2/4
f 313/1/4 314/1/4 322/1/4
f 321/2/4 313/2/4 322/2/4
f 314/2/4 315/2/4 323/2/4
f 322/1/4 314/1/4 323/1/4
f 323/2/4 315/2/4 324/2/4
f 291/2/4 316/2/4 325/2/4
f 316/2/4 317/2/4 325/2/4
f 317/2/4 318/2/4 325/2/4
f 325/2/4 318/2/4 326/2/4
f 326/2/4 318/2/4 327/2/4
f 322/2/4 323/2/4 329/2/4
f 329/2/4 323/2/4 330/2/4
f 327/2/4 328/2/4 332/2/4
f 326/2/4 327/2/4 332/2/4
f 332/2/4 328/2/4 333/2/4
f 333/2/4 328/2/4 334/2/4
f 334/2/4 328/2/4 335/2/4
f 335/2/4 328/2/4 336/2/4
f 336/2/4 328/2/4 337/2/4
f 320/2/4 321/2/4 339/2/4
f 321/1/4 322/1/4 340/1/4
f 339/2/4 321/2/4 340/2/4
f 322/2/4 329/2/4 341/2/4
f 340/1/4 322/1/4 341/1/4
f 341/2/4 329/2/4 342/2/4
f 331/2/4 332/2/4 344/2/4
f 332/2/4 333/2/4 344/2/4
f 333/1/4 334/1/4 345/1/4
f 344/2/4 333/2/4 345/2/4
f 334/2/4 335/2/4 346/2/4
f 345/1/4 334/1/4 346/1/4
f 335/1/4 336/1/4 347/1/4
f 346/2/4 335/2/4 347/2/4
f 337/2/4 338/2/4 348/2/4
f 347/1/4 336/1/4 348/1/4
f 336/2/4 337/2/4 348/2/4
f 348/2/4 338/2/4 349/2/4
f 340/2/4 341/2/4 350/2/4
f 341/1/4 342/1/4 351/1/4
f 350/2/4 341/2/4 351/2/4
f 342/2/4 343/2/4 352/2/4
f 351/1/4 342/1/4 352/1/4
f 352/2/4 343/2/4 353/2/4
f 351/2/4 352/2/4 356/2/4
f 352/1/4 353/1/4 357/1/4
f 356/2/4 352/2/4 357/2/4
f 353/2/4 354/2/4 358/2/4
f 357/1/4 353/1/4 358/1/4
f 358/2/4 354/2/4 359/2/4
f 331/2/4 344/2/4 360/2/4
f 344/1/4 345/1/4 360/1/4
f 345/2/4 346/2/4 361/2/4
f 360/1/4 345/1/4 361/1/4
f 346/1/4 347/1/4 362/1/4
f 361/2/4 346/2/4 362/2/4
f 347/2/4 348/2/4 363/2/4
f 362/1/4 347/1/4 363/1/4
f 348/1/4 349/1/4 364/1/4
f 363/2/4 348/2/4 364/2/4
f 349/2/4 338/2/4 365/2/4
f 364/1/4 349/1/4 365/1/4
f 355/2/4 356/2/4 367/2/4
f 356/1/4 357/1/4 368/1/4
f 367/2/4 356/2/4 368/2/4
f 357/2/4 358/2/4 369/2/4
f 368/1/4 357/1/4 369/1/4
f 369/2/4 358/2/4 370/2/4
f 360/2/4 361/2/4 371/2/4
f 331/2/4 360/2/4 371/2/4
f 371/2/4 361/2/4 372/2/4
f 361/1/4 362/1/4 373/1/4
f 372/2/4 361/2/4 373/2/4
f 362/2/4 363/2/4 374/2/4
f 373/1/4 362/1/4 374/1/4
f 363/1/4 364/1/4 375/1/4
f 374/2/4 363/2/4 375/2/4
f 364/2/4 365/2/4 376/2/4
f 375/1/4 364/1/4 376/1/4
f 365/2/4 338/2/4 377/2/4
f 376/2/4 365/2/4 377/2/4
f 377/2/4 338/2/4 378/2/4
f 368/2/4 369/2/4 379/2/4
f 373/2/4 374/2/4 382/2/4
f 376/2/4 377/2/4 382/2/4
f 372/2/4 373/2/4 382/2/4
f 374/2/4 375/2/4 382/2/4
f 375/2/4 376/2/4 382/2/4
f 382/2/4 377/2/4 383/2/4
f 383/2/4 377/2/4 384/2/4
f 384/2/4 377/2/4 385/2/4
f 366/2/4 367/2/4 387/2/4
f 367/1/4 368/1/4 388/1/4
f 387/2/4 367/2/4 388/2/4
f 368/2/4 379/2/4 389/2/4
f 388/1/4 368/1/4 389/1/4
f 379/2/4 380/2/4 389/2/4
f 389/2/4 380/2/4 390/2/4
f 381/2/4 382/2/4 392/2/4
f 382/2/4 383/2/4 392/2/4
f 383/1/4 384/1/4 393/1/4
f 392/2/4 383/2/4 393/2/4
f 385/2/4 386/2/4 394/2/4
f 393/1/4 384/1/4 394/1/4
f 384/2/4 385/2/4 394/2/4
f 394/2/4 386/2/4 395/2/4
f 388/2/4 389/2/4 396/2/4
f 389/1/4 390/1/4 397/1/4
f 396/2/4 389/2/4 397/2/4
f 390/2/4 391/2/4 398/2/4
f 397/1/4 390/1/4 398/1/4
f 398/2/4 391/2/4 399/2/4
f 397/2/4 398/2/4 400/2/4
f 400/2/4 398/2/4 401/2/4
f 392/1/4 393/1/4 402/1/4
f 381/2/4 392/2/4 402/2/4
f 393/2/4 394/2/4 403/2/4
f 402/1/4 393/1/4 403/1/4
f 394/1/4 395/1/4 404/1/4
f 403/2/4 394/2/4 404/2/4
f 395/2/4 386/2/4 405/2/4
f 404/1/4 395/1/4 405/1/4
f 381/2/4 402/2/4 406/2/4
f 402/2/4 403/2/4 406/2/4
f 406/2/4 403/2/4 407/2/4
f 403/1/4 404/1/4 408/1/4
f 407/2/4 403/2/4 408/2/4
f 404/2/4 405/2/4 409/2/4
f 408/1/4 404/1/4 409/1/4
f 407/2/4 408/2/4 410/2/4
f 408/2/4 409/2/4 410/2/4
f 410/2/4 409/2/4 411/2/4
f 409/2/4 405/2/4 412/2/4
f 411/2/4 409/2/4 412/2/4
f 405/2/4 386/2/4 413/2/4
f 412/2/4 405/2/4 413/2/4
f 411/2/4 412/2/4 415/2/4
f 412/1/4 413/1/4 416/1/4
f 415/2/4 412/2/4 416/2/4
f 413/2/4 414/2/4 417/2/4
f 416/1/4 413/1/4 417/1/4
f 417/2/4 414/2/4 418/2/4
f 416/2/4 417/2/4 419/2/4
f 419/2/4 417/2/4 420/2/4
f 427/2/5 422/2/5 421/2/5
f 428/2/5 422/2/5 427/2/5
f 429/2/5 424/2/5 423/2/5
f 430/2/5 424/2/5 429/2/5
f 431/2/5 426/2/5 425/2/5
f 432/2/5 426/2/5 431/2/5
f 439/2/5 434/2/5 433/2/5
f 440/2/5 434/2/5 439/2/5
f 441/2/5 436/2/5 435/2/5
f 442/2/5 436/2/5 441/2/5
f 443/2/5 438/2/5 437/2/5
f 444/2/5 438/2/5 443/2/5
f 447/2/5 446/2/5 445/2/5
f 448/2/5 446/2/5 447/2/5
f 451/2/5 450/2/5 449/2/5
f 452/2/5 450/2/5 451/2/5
f 455/2/5 454/2/5 453/2/5
f 456/2/5 454/2/5 455/2/5
f 461/2/5 458/2/5 457/2/5
f 462/2/5 458/2/5 461/2/5
f 463/2/5 460/2/5 459/2/5
f 464/2/5 460/2/5 463/2/5
f 473/2/5 466/2/5 465/2/5
f 474/2/5 466/2/5 473/2/5
f 475/2/5 468/2/5 467/2/5
f 476/2/5 468/2/5 475/2/5
f 477/2/5 470/2/5 469/2/5
f 478/2/5 470/2/5 477/2/5
f 479/2/5 472/2/5 471/2/5
f 480/2/5 472/2/5 479/2/5
f 487/2/5 482/2/5 481/2/5
f 488/2/5 482/2/5 487/2/5
f 489/2/5 484/2/5 483/2/5
f 490/2/5 484/2/5 489/2/5
f 491/2/5 486/2/5 485/2/5
f 492/2/5 486/2/5 491/2/5
f 493/2/6 494/2/6 497/2/6
f 497/2/6 494/2/6 498/2/6
f 495/2/6 496/2/6 499/2/6
f 499/2/6 496/2/6 500/2/6
f 501/2/6 502/2/6 509/2/6
f 509/2/6 502/2/6 510/2/6
f 503/2/6 504/2/6 511/2/6
f 511/2/6 504/2/6 512/2/6
f 505/2/6 506/2/6 513/2/6
f 513/2/6 506/2/6 514/2/6
f 507/2/6 508/2/6 515/2/6
f 515/2/6 508/2/6 516/2/6
f 517/2/6 518/2/6 525/2/6
f 525/2/6 518/2/6 526/2/6
f 519/2/6 520/2/6 527/2/6
f 527/2/6 520/2/6 528/2/6
f 521/2/6 522/2/6 529/2/6
f 529/2/6 522/2/6 530/2/6
f 523/2/6 524/2/6 531/2/6
f 531/2/6 524/2/6 532/2/6
f 533/2/6 534/2/6 535/2/6
f 535/2/6 534/2/6 536/2/6
f 537/2/6 538/2/6 541/2/6
f 541/2/6 538/2/6 542/2/6
f 539/2/6 540/2/6 543/2/6
f 543/2/6 540/2/6 544/2/6
f 545/2/6 546/2/6 549/2/6
f 549/2/6 546/2/6 550/2/6
f 547/2/6 548/2/6 551/2/6
f 551/2/6 548/2/6 552/2/6
f 553/2/6 554/2/6 563/2/6
f 563/2/6 554/2/6 564/2/6
f 555/2/6 556/2/6 565/2/6
f 565/2/6 556/2/6 566/2/6
f 557/2/6 558/2/6 567/2/6
f 567/2/6 558/2/6 568/2/6
f 559/2/6 560/2/6 569/2/6
f 569/2/6 560/2/6 570/2/6
f 561/2/6 562/2/6 571/2/6
f 571/2/6 562/2/6 572/2/6
f 573/2/6 574/2/6 577/2/6
f 577/2/6 574/2/6 578/2/6
f 575/2/6 576/2/6 579/2/6
f 579/2/6 576/2/6 580/2/6
