# MagicaVoxel @ Ephtracy

# group
o 

# material
mtllib Bulet.mtl
usemtl palette

# normals
vn -1 0 0
vn 1 0 0
vn 0 0 1
vn 0 0 -1
vn 0 -1 0
vn 0 1 0

# texcoords
vt 0.373047 0.5
vt 0.458984 0.5
vt 0.517578 0.5
vt 0.525391 0.5
vt 0.548828 0.5
vt 0.560547 0.5
vt 0.580078 0.5
vt 0.595703 0.5
vt 0.607422 0.5
vt 0.638672 0.5
vt 0.654297 0.5
vt 0.712891 0.5
vt 0.716797 0.5
vt 0.806641 0.5

# verts
v 1.3 2.6 0
v 1.3 2.6 -0.1
v 1.3 3.2 0
v 1.3 3.2 -0.1
v 1.3 3.3 0
v 1.3 3.3 -0.1
v 1.4 2.5 0
v 1.4 2.5 -0.1
v 1.4 2.6 0
v 1.4 2.6 -0.1
v 1.4 3.3 0
v 1.4 3.3 -0.1
v 1.4 3.4 0
v 1.4 3.4 -0.1
v 2.1 2.5 0
v 2.1 2.5 -0.1
v 2.1 2.6 0
v 2.1 2.6 -0.1
v 2.1 3.3 0
v 2.1 3.3 -0.1
v 2.1 3.4 0
v 2.1 3.4 -0.1
v 2.4 2.6 0
v 2.4 2.6 -0.1
v 2.4 2.7 0
v 2.4 2.7 -0.1
v 2.4 3.2 0
v 2.4 3.2 -0.1
v 2.4 3.3 0
v 2.4 3.3 -0.1
v 2.5 2.7 0
v 2.5 2.7 -0.1
v 2.5 2.8 0
v 2.5 2.8 -0.1
v 2.5 3.1 0
v 2.5 3.1 -0.1
v 2.5 3.2 0
v 2.5 3.2 -0.1
v 2.6 2.8 0
v 2.6 2.8 -0.1
v 2.6 3 0
v 2.6 3 -0.1
v 2.6 3.1 0
v 2.6 3.1 -0.1
v 1.3 2.6 0
v 1.3 3.2 0
v 1.3 3.3 0
v 1.4 2.5 0
v 1.4 2.6 0
v 1.4 2.7 0
v 1.4 2.8 0
v 1.4 2.9 0
v 1.4 3.1 0
v 1.4 3.2 0
v 1.4 3.3 0
v 1.4 3.4 0
v 2.1 2.5 0
v 2.1 2.6 0
v 2.1 2.7 0
v 2.1 3 0
v 2.1 3.1 0
v 2.1 3.2 0
v 2.1 3.3 0
v 2.1 3.4 0
v 2.2 2.9 0
v 2.2 3 0
v 2.4 2.6 0
v 2.4 2.7 0
v 2.4 2.8 0
v 2.4 3.1 0
v 2.4 3.2 0
v 2.4 3.3 0
v 2.5 2.7 0
v 2.5 2.8 0
v 2.5 2.9 0
v 2.5 3 0
v 2.5 3.1 0
v 2.5 3.2 0
v 2.6 2.8 0
v 2.6 3 0
v 2.6 3.1 0
v 1.3 2.6 -0.1
v 1.3 3.2 -0.1
v 1.3 3.3 -0.1
v 1.4 2.5 -0.1
v 1.4 2.6 -0.1
v 1.4 2.7 -0.1
v 1.4 2.8 -0.1
v 1.4 2.9 -0.1
v 1.4 3.1 -0.1
v 1.4 3.2 -0.1
v 1.4 3.3 -0.1
v 1.4 3.4 -0.1
v 2.1 2.5 -0.1
v 2.1 2.6 -0.1
v 2.1 2.7 -0.1
v 2.1 3 -0.1
v 2.1 3.1 -0.1
v 2.1 3.2 -0.1
v 2.1 3.3 -0.1
v 2.1 3.4 -0.1
v 2.2 2.9 -0.1
v 2.2 3 -0.1
v 2.4 2.6 -0.1
v 2.4 2.7 -0.1
v 2.4 2.8 -0.1
v 2.4 3.1 -0.1
v 2.4 3.2 -0.1
v 2.4 3.3 -0.1
v 2.5 2.7 -0.1
v 2.5 2.8 -0.1
v 2.5 2.9 -0.1
v 2.5 3 -0.1
v 2.5 3.1 -0.1
v 2.5 3.2 -0.1
v 2.6 2.8 -0.1
v 2.6 3 -0.1
v 2.6 3.1 -0.1
v 1.4 2.5 0
v 2.1 2.5 0
v 1.4 2.5 -0.1
v 2.1 2.5 -0.1
v 1.3 2.6 0
v 1.4 2.6 0
v 2.1 2.6 0
v 2.4 2.6 0
v 1.3 2.6 -0.1
v 1.4 2.6 -0.1
v 2.1 2.6 -0.1
v 2.4 2.6 -0.1
v 2.4 2.7 0
v 2.5 2.7 0
v 2.4 2.7 -0.1
v 2.5 2.7 -0.1
v 2.5 2.8 0
v 2.6 2.8 0
v 2.5 2.8 -0.1
v 2.6 2.8 -0.1
v 2.5 3.1 0
v 2.6 3.1 0
v 2.5 3.1 -0.1
v 2.6 3.1 -0.1
v 2.4 3.2 0
v 2.5 3.2 0
v 2.4 3.2 -0.1
v 2.5 3.2 -0.1
v 1.3 3.3 0
v 1.4 3.3 0
v 2.1 3.3 0
v 2.4 3.3 0
v 1.3 3.3 -0.1
v 1.4 3.3 -0.1
v 2.1 3.3 -0.1
v 2.4 3.3 -0.1
v 1.4 3.4 0
v 2.1 3.4 0
v 1.4 3.4 -0.1
v 2.1 3.4 -0.1

# faces
f 3/13/1 2/13/1 1/13/1
f 4/13/1 2/13/1 3/13/1
f 5/11/1 4/11/1 3/11/1
f 6/11/1 4/11/1 5/11/1
f 9/14/1 8/14/1 7/14/1
f 10/14/1 8/14/1 9/14/1
f 13/5/1 12/5/1 11/5/1
f 14/5/1 12/5/1 13/5/1
f 15/14/2 16/14/2 17/14/2
f 17/14/2 16/14/2 18/14/2
f 19/5/2 20/5/2 21/5/2
f 21/5/2 20/5/2 22/5/2
f 23/12/2 24/12/2 25/12/2
f 25/12/2 24/12/2 26/12/2
f 27/5/2 28/5/2 29/5/2
f 29/5/2 28/5/2 30/5/2
f 31/10/2 32/10/2 33/10/2
f 33/10/2 32/10/2 34/10/2
f 35/5/2 36/5/2 37/5/2
f 37/5/2 36/5/2 38/5/2
f 39/7/2 40/7/2 41/7/2
f 41/7/2 40/7/2 42/7/2
f 41/5/2 42/5/2 43/5/2
f 43/5/2 42/5/2 44/5/2
f 49/13/3 46/13/3 45/13/3
f 50/13/3 46/13/3 49/13/3
f 51/13/3 46/13/3 50/13/3
f 52/13/3 46/13/3 51/13/3
f 53/13/3 46/13/3 52/13/3
f 54/11/3 47/11/3 46/11/3
f 54/13/3 46/13/3 53/13/3
f 55/11/3 47/11/3 54/11/3
f 57/14/3 49/14/3 48/14/3
f 58/8/3 50/8/3 49/8/3
f 58/14/3 49/14/3 57/14/3
f 59/6/3 51/6/3 50/6/3
f 59/8/3 50/8/3 58/8/3
f 60/2/3 53/2/3 52/2/3
f 61/9/3 54/9/3 53/9/3
f 61/2/3 53/2/3 60/2/3
f 62/1/3 55/1/3 54/1/3
f 62/9/3 54/9/3 61/9/3
f 63/5/3 56/5/3 55/5/3
f 63/1/3 55/1/3 62/1/3
f 64/5/3 56/5/3 63/5/3
f 65/3/3 52/3/3 51/3/3
f 65/2/3 60/2/3 52/2/3
f 66/9/3 61/9/3 60/9/3
f 66/2/3 60/2/3 65/2/3
f 67/12/3 59/12/3 58/12/3
f 68/6/3 51/6/3 59/6/3
f 68/12/3 59/12/3 67/12/3
f 69/3/3 65/3/3 51/3/3
f 69/6/3 51/6/3 68/6/3
f 70/1/3 62/1/3 61/1/3
f 70/9/3 61/9/3 66/9/3
f 71/5/3 63/5/3 62/5/3
f 71/1/3 62/1/3 70/1/3
f 72/5/3 63/5/3 71/5/3
f 73/10/3 69/10/3 68/10/3
f 74/3/3 65/3/3 69/3/3
f 74/10/3 69/10/3 73/10/3
f 75/4/3 66/4/3 65/4/3
f 75/3/3 65/3/3 74/3/3
f 76/9/3 70/9/3 66/9/3
f 76/4/3 66/4/3 75/4/3
f 77/5/3 71/5/3 70/5/3
f 77/9/3 70/9/3 76/9/3
f 78/5/3 71/5/3 77/5/3
f 79/7/3 75/7/3 74/7/3
f 79/7/3 76/7/3 75/7/3
f 80/5/3 77/5/3 76/5/3
f 80/7/3 76/7/3 79/7/3
f 81/5/3 77/5/3 80/5/3
f 82/13/4 83/13/4 86/13/4
f 86/13/4 83/13/4 87/13/4
f 87/13/4 83/13/4 88/13/4
f 88/13/4 83/13/4 89/13/4
f 89/13/4 83/13/4 90/13/4
f 83/11/4 84/11/4 91/11/4
f 90/13/4 83/13/4 91/13/4
f 91/11/4 84/11/4 92/11/4
f 85/14/4 86/14/4 94/14/4
f 86/8/4 87/8/4 95/8/4
f 94/14/4 86/14/4 95/14/4
f 87/6/4 88/6/4 96/6/4
f 95/8/4 87/8/4 96/8/4
f 89/2/4 90/2/4 97/2/4
f 90/9/4 91/9/4 98/9/4
f 97/2/4 90/2/4 98/2/4
f 91/1/4 92/1/4 99/1/4
f 98/9/4 91/9/4 99/9/4
f 92/5/4 93/5/4 100/5/4
f 99/1/4 92/1/4 100/1/4
f 100/5/4 93/5/4 101/5/4
f 88/3/4 89/3/4 102/3/4
f 89/2/4 97/2/4 102/2/4
f 97/9/4 98/9/4 103/9/4
f 102/2/4 97/2/4 103/2/4
f 95/12/4 96/12/4 104/12/4
f 96/6/4 88/6/4 105/6/4
f 104/12/4 96/12/4 105/12/4
f 88/3/4 102/3/4 106/3/4
f 105/6/4 88/6/4 106/6/4
f 98/1/4 99/1/4 107/1/4
f 103/9/4 98/9/4 107/9/4
f 99/5/4 100/5/4 108/5/4
f 107/1/4 99/1/4 108/1/4
f 108/5/4 100/5/4 109/5/4
f 105/10/4 106/10/4 110/10/4
f 106/3/4 102/3/4 111/3/4
f 110/10/4 106/10/4 111/10/4
f 102/4/4 103/4/4 112/4/4
f 111/3/4 102/3/4 112/3/4
f 103/9/4 107/9/4 113/9/4
f 112/4/4 103/4/4 113/4/4
f 107/5/4 108/5/4 114/5/4
f 113/9/4 107/9/4 114/9/4
f 114/5/4 108/5/4 115/5/4
f 111/7/4 112/7/4 116/7/4
f 112/7/4 113/7/4 116/7/4
f 113/5/4 114/5/4 117/5/4
f 116/7/4 113/7/4 117/7/4
f 117/5/4 114/5/4 118/5/4
f 121/14/5 120/14/5 119/14/5
f 122/14/5 120/14/5 121/14/5
f 127/13/5 124/13/5 123/13/5
f 128/13/5 124/13/5 127/13/5
f 129/12/5 126/12/5 125/12/5
f 130/12/5 126/12/5 129/12/5
f 133/10/5 132/10/5 131/10/5
f 134/10/5 132/10/5 133/10/5
f 137/7/5 136/7/5 135/7/5
f 138/7/5 136/7/5 137/7/5
f 139/5/6 140/5/6 141/5/6
f 141/5/6 140/5/6 142/5/6
f 143/5/6 144/5/6 145/5/6
f 145/5/6 144/5/6 146/5/6
f 147/11/6 148/11/6 151/11/6
f 151/11/6 148/11/6 152/11/6
f 149/5/6 150/5/6 153/5/6
f 153/5/6 150/5/6 154/5/6
f 155/5/6 156/5/6 157/5/6
f 157/5/6 156/5/6 158/5/6
