# MagicaVoxel @ Ephtracy

# group
o 

# material
mtllib shoot sign.mtl
usemtl palette

# normals
vn -1 0 0
vn 1 0 0
vn 0 0 1
vn 0 0 -1
vn 0 -1 0
vn 0 1 0

# texcoords
vt 0.841797 0.5
vt 0.990234 0.5
vt 0.994141 0.5

# verts
v 0.9 3.5 0
v 0.9 3.5 -0.1
v 0.9 4.2 0
v 0.9 4.2 -0.1
v 1.7 2.3 0
v 1.7 2.3 -0.1
v 1.7 3 0
v 1.7 3 -0.1
v 1.8 2.1 0
v 1.8 2.1 -0.1
v 1.8 2.3 0
v 1.8 2.3 -0.1
v 1.8 3 0
v 1.8 3 -0.1
v 1.8 3.1 0
v 1.8 3.1 -0.1
v 1.9 3.1 0
v 1.9 3.1 -0.1
v 1.9 3.2 0
v 1.9 3.2 -0.1
v 2.4 3.1 0
v 2.4 3.1 -0.1
v 2.4 3.2 0
v 2.4 3.2 -0.1
v 2.5 2.1 0
v 2.5 2.1 -0.1
v 2.5 2.3 0
v 2.5 2.3 -0.1
v 2.5 3 0
v 2.5 3 -0.1
v 2.5 3.1 0
v 2.5 3.1 -0.1
v 2.6 2.3 0
v 2.6 2.3 -0.1
v 2.6 3 0
v 2.6 3 -0.1
v 3.6 3.5 0
v 3.6 3.5 -0.1
v 3.6 4.2 0
v 3.6 4.2 -0.1
v 0.9 3.5 0
v 0.9 4.2 0
v 1 3.6 0
v 1 3.7 0
v 1 3.9 0
v 1 4 0
v 1.1 3.8 0
v 1.1 3.9 0
v 1.1 4 0
v 1.1 4.1 0
v 1.3 3.6 0
v 1.3 3.7 0
v 1.3 3.8 0
v 1.3 3.9 0
v 1.4 3.7 0
v 1.4 3.8 0
v 1.4 4 0
v 1.4 4.1 0
v 1.5 3.6 0
v 1.5 4.1 0
v 1.6 3.6 0
v 1.6 3.8 0
v 1.6 3.9 0
v 1.6 4.1 0
v 1.7 2.3 0
v 1.7 3 0
v 1.8 2.1 0
v 1.8 2.3 0
v 1.8 2.4 0
v 1.8 2.5 0
v 1.8 3 0
v 1.8 3.1 0
v 1.8 3.6 0
v 1.8 3.8 0
v 1.8 3.9 0
v 1.8 4.1 0
v 1.9 2.2 0
v 1.9 2.3 0
v 1.9 3 0
v 1.9 3.1 0
v 1.9 3.2 0
v 1.9 3.6 0
v 1.9 4.1 0
v 2 3.7 0
v 2 4 0
v 2.1 2.5 0
v 2.1 3.1 0
v 2.1 3.6 0
v 2.1 3.7 0
v 2.1 4 0
v 2.1 4.1 0
v 2.2 2.5 0
v 2.2 3.1 0
v 2.3 3.6 0
v 2.3 3.7 0
v 2.3 4 0
v 2.3 4.1 0
v 2.4 2.2 0
v 2.4 2.3 0
v 2.4 3 0
v 2.4 3.1 0
v 2.4 3.2 0
v 2.4 3.7 0
v 2.4 4 0
v 2.5 2.1 0
v 2.5 2.3 0
v 2.5 2.4 0
v 2.5 2.5 0
v 2.5 3 0
v 2.5 3.1 0
v 2.5 3.7 0
v 2.5 4 0
v 2.6 2.3 0
v 2.6 3 0
v 2.6 3.6 0
v 2.6 3.7 0
v 2.6 4 0
v 2.6 4.1 0
v 2.8 3.6 0
v 2.8 3.7 0
v 2.8 4 0
v 2.8 4.1 0
v 2.9 3.7 0
v 2.9 4 0
v 3 4 0
v 3 4.1 0
v 3.2 3.6 0
v 3.2 4 0
v 3.3 3.6 0
v 3.3 4 0
v 3.5 4 0
v 3.5 4.1 0
v 3.6 3.5 0
v 3.6 4.2 0
v 0.9 3.5 -0.1
v 0.9 4.2 -0.1
v 1 3.6 -0.1
v 1 3.7 -0.1
v 1 3.9 -0.1
v 1 4 -0.1
v 1.1 3.8 -0.1
v 1.1 3.9 -0.1
v 1.1 4 -0.1
v 1.1 4.1 -0.1
v 1.3 3.6 -0.1
v 1.3 3.7 -0.1
v 1.3 3.8 -0.1
v 1.3 3.9 -0.1
v 1.4 3.7 -0.1
v 1.4 3.8 -0.1
v 1.4 4 -0.1
v 1.4 4.1 -0.1
v 1.5 3.6 -0.1
v 1.5 4.1 -0.1
v 1.6 3.6 -0.1
v 1.6 3.8 -0.1
v 1.6 3.9 -0.1
v 1.6 4.1 -0.1
v 1.7 2.3 -0.1
v 1.7 3 -0.1
v 1.8 2.1 -0.1
v 1.8 2.3 -0.1
v 1.8 2.4 -0.1
v 1.8 2.5 -0.1
v 1.8 3 -0.1
v 1.8 3.1 -0.1
v 1.8 3.6 -0.1
v 1.8 3.8 -0.1
v 1.8 3.9 -0.1
v 1.8 4.1 -0.1
v 1.9 2.2 -0.1
v 1.9 2.3 -0.1
v 1.9 3 -0.1
v 1.9 3.1 -0.1
v 1.9 3.2 -0.1
v 1.9 3.6 -0.1
v 1.9 4.1 -0.1
v 2 3.7 -0.1
v 2 4 -0.1
v 2.1 2.5 -0.1
v 2.1 3.1 -0.1
v 2.1 3.6 -0.1
v 2.1 3.7 -0.1
v 2.1 4 -0.1
v 2.1 4.1 -0.1
v 2.2 2.5 -0.1
v 2.2 3.1 -0.1
v 2.3 3.6 -0.1
v 2.3 3.7 -0.1
v 2.3 4 -0.1
v 2.3 4.1 -0.1
v 2.4 2.2 -0.1
v 2.4 2.3 -0.1
v 2.4 3 -0.1
v 2.4 3.1 -0.1
v 2.4 3.2 -0.1
v 2.4 3.7 -0.1
v 2.4 4 -0.1
v 2.5 2.1 -0.1
v 2.5 2.3 -0.1
v 2.5 2.4 -0.1
v 2.5 2.5 -0.1
v 2.5 3 -0.1
v 2.5 3.1 -0.1
v 2.5 3.7 -0.1
v 2.5 4 -0.1
v 2.6 2.3 -0.1
v 2.6 3 -0.1
v 2.6 3.6 -0.1
v 2.6 3.7 -0.1
v 2.6 4 -0.1
v 2.6 4.1 -0.1
v 2.8 3.6 -0.1
v 2.8 3.7 -0.1
v 2.8 4 -0.1
v 2.8 4.1 -0.1
v 2.9 3.7 -0.1
v 2.9 4 -0.1
v 3 4 -0.1
v 3 4.1 -0.1
v 3.2 3.6 -0.1
v 3.2 4 -0.1
v 3.3 3.6 -0.1
v 3.3 4 -0.1
v 3.5 4 -0.1
v 3.5 4.1 -0.1
v 3.6 3.5 -0.1
v 3.6 4.2 -0.1
v 1.8 2.1 0
v 2.5 2.1 0
v 1.8 2.1 -0.1
v 2.5 2.1 -0.1
v 1.7 2.3 0
v 1.8 2.3 0
v 2.5 2.3 0
v 2.6 2.3 0
v 1.7 2.3 -0.1
v 1.8 2.3 -0.1
v 2.5 2.3 -0.1
v 2.6 2.3 -0.1
v 0.9 3.5 0
v 3.6 3.5 0
v 0.9 3.5 -0.1
v 3.6 3.5 -0.1
v 1.7 3 0
v 1.8 3 0
v 2.5 3 0
v 2.6 3 0
v 1.7 3 -0.1
v 1.8 3 -0.1
v 2.5 3 -0.1
v 2.6 3 -0.1
v 1.8 3.1 0
v 1.9 3.1 0
v 2.4 3.1 0
v 2.5 3.1 0
v 1.8 3.1 -0.1
v 1.9 3.1 -0.1
v 2.4 3.1 -0.1
v 2.5 3.1 -0.1
v 1.9 3.2 0
v 2.4 3.2 0
v 1.9 3.2 -0.1
v 2.4 3.2 -0.1
v 0.9 4.2 0
v 3.6 4.2 0
v 0.9 4.2 -0.1
v 3.6 4.2 -0.1

# faces
f 3/3/1 2/3/1 1/3/1
f 4/3/1 2/3/1 3/3/1
f 7/3/1 6/3/1 5/3/1
f 8/3/1 6/3/1 7/3/1
f 11/3/1 10/3/1 9/3/1
f 12/3/1 10/3/1 11/3/1
f 15/3/1 14/3/1 13/3/1
f 16/3/1 14/3/1 15/3/1
f 19/3/1 18/3/1 17/3/1
f 20/3/1 18/3/1 19/3/1
f 21/3/2 22/3/2 23/3/2
f 23/3/2 22/3/2 24/3/2
f 25/3/2 26/3/2 27/3/2
f 27/3/2 26/3/2 28/3/2
f 29/3/2 30/3/2 31/3/2
f 31/3/2 30/3/2 32/3/2
f 33/3/2 34/3/2 35/3/2
f 35/3/2 34/3/2 36/3/2
f 37/3/2 38/3/2 39/3/2
f 39/3/2 38/3/2 40/3/2
f 43/3/3 42/3/3 41/3/3
f 44/3/3 42/3/3 43/3/3
f 45/3/3 42/3/3 44/3/3
f 46/3/3 42/3/3 45/3/3
f 47/3/3 45/3/3 44/3/3
f 48/1/3 46/1/3 45/1/3
f 48/3/3 45/3/3 47/3/3
f 49/3/3 42/3/3 46/3/3
f 49/1/3 46/1/3 48/1/3
f 50/3/3 42/3/3 49/3/3
f 51/3/3 43/3/3 41/3/3
f 51/1/3 44/1/3 43/1/3
f 52/3/3 47/3/3 44/3/3
f 52/1/3 44/1/3 51/1/3
f 53/1/3 48/1/3 47/1/3
f 53/3/3 47/3/3 52/3/3
f 54/3/3 49/3/3 48/3/3
f 54/1/3 48/1/3 53/1/3
f 55/3/3 52/3/3 51/3/3
f 55/1/3 53/1/3 52/1/3
f 56/3/3 54/3/3 53/3/3
f 56/1/3 53/1/3 55/1/3
f 57/1/3 50/1/3 49/1/3
f 57/3/3 54/3/3 56/3/3
f 57/3/3 49/3/3 54/3/3
f 58/3/3 42/3/3 50/3/3
f 58/1/3 50/1/3 57/1/3
f 59/3/3 57/3/3 56/3/3
f 59/3/3 56/3/3 55/3/3
f 59/3/3 58/3/3 57/3/3
f 59/3/3 51/3/3 41/3/3
f 59/3/3 55/3/3 51/3/3
f 60/3/3 42/3/3 58/3/3
f 60/3/3 58/3/3 59/3/3
f 61/3/3 59/3/3 41/3/3
f 61/1/3 60/1/3 59/1/3
f 62/1/3 60/1/3 61/1/3
f 63/1/3 60/1/3 62/1/3
f 64/3/3 42/3/3 60/3/3
f 64/1/3 60/1/3 63/1/3
f 68/3/3 66/3/3 65/3/3
f 69/3/3 66/3/3 68/3/3
f 70/3/3 66/3/3 69/3/3
f 71/3/3 66/3/3 70/3/3
f 73/3/3 61/3/3 41/3/3
f 73/3/3 62/3/3 61/3/3
f 74/1/3 63/1/3 62/1/3
f 74/3/3 62/3/3 73/3/3
f 75/3/3 64/3/3 63/3/3
f 75/1/3 63/1/3 74/1/3
f 76/3/3 42/3/3 64/3/3
f 76/3/3 64/3/3 75/3/3
f 77/3/3 68/3/3 67/3/3
f 78/2/3 69/2/3 68/2/3
f 78/3/3 68/3/3 77/3/3
f 79/3/3 72/3/3 71/3/3
f 79/1/3 71/1/3 70/1/3
f 80/3/3 72/3/3 79/3/3
f 82/3/3 73/3/3 41/3/3
f 82/1/3 74/1/3 73/1/3
f 82/1/3 75/1/3 74/1/3
f 82/1/3 76/1/3 75/1/3
f 83/3/3 42/3/3 76/3/3
f 83/1/3 76/1/3 82/1/3
f 84/3/3 83/3/3 82/3/3
f 85/3/3 83/3/3 84/3/3
f 86/1/3 80/1/3 79/1/3
f 86/1/3 79/1/3 70/1/3
f 86/3/3 70/3/3 69/3/3
f 87/3/3 81/3/3 80/3/3
f 87/1/3 80/1/3 86/1/3
f 88/3/3 82/3/3 41/3/3
f 88/3/3 84/3/3 82/3/3
f 89/1/3 85/1/3 84/1/3
f 89/3/3 84/3/3 88/3/3
f 90/3/3 83/3/3 85/3/3
f 90/1/3 85/1/3 89/1/3
f 91/3/3 42/3/3 83/3/3
f 91/3/3 83/3/3 90/3/3
f 92/3/3 86/3/3 69/3/3
f 92/3/3 87/3/3 86/3/3
f 93/3/3 81/3/3 87/3/3
f 93/3/3 87/3/3 92/3/3
f 94/1/3 89/1/3 88/1/3
f 94/3/3 88/3/3 41/3/3
f 95/3/3 90/3/3 89/3/3
f 95/1/3 89/1/3 94/1/3
f 96/1/3 91/1/3 90/1/3
f 96/3/3 90/3/3 95/3/3
f 97/3/3 42/3/3 91/3/3
f 97/1/3 91/1/3 96/1/3
f 98/2/3 78/2/3 77/2/3
f 98/3/3 77/3/3 67/3/3
f 99/2/3 69/2/3 78/2/3
f 99/2/3 78/2/3 98/2/3
f 100/2/3 93/2/3 92/2/3
f 101/3/3 81/3/3 93/3/3
f 101/2/3 93/2/3 100/2/3
f 102/3/3 81/3/3 101/3/3
f 103/1/3 96/1/3 95/1/3
f 103/3/3 95/3/3 94/3/3
f 104/3/3 97/3/3 96/3/3
f 104/1/3 96/1/3 103/1/3
f 105/3/3 98/3/3 67/3/3
f 105/3/3 99/3/3 98/3/3
f 106/2/3 69/2/3 99/2/3
f 106/3/3 99/3/3 105/3/3
f 107/3/3 92/3/3 69/3/3
f 107/2/3 69/2/3 106/2/3
f 108/2/3 100/2/3 92/2/3
f 108/3/3 92/3/3 107/3/3
f 109/3/3 101/3/3 100/3/3
f 109/2/3 100/2/3 108/2/3
f 110/3/3 101/3/3 109/3/3
f 111/3/3 104/3/3 103/3/3
f 111/3/3 103/3/3 94/3/3
f 112/3/3 97/3/3 104/3/3
f 112/3/3 104/3/3 111/3/3
f 113/3/3 107/3/3 106/3/3
f 113/3/3 109/3/3 108/3/3
f 113/3/3 108/3/3 107/3/3
f 114/3/3 109/3/3 113/3/3
f 115/3/3 111/3/3 94/3/3
f 115/3/3 94/3/3 41/3/3
f 116/1/3 112/1/3 111/1/3
f 116/3/3 111/3/3 115/3/3
f 117/3/3 97/3/3 112/3/3
f 117/1/3 112/1/3 116/1/3
f 118/3/3 42/3/3 97/3/3
f 118/3/3 97/3/3 117/3/3
f 119/1/3 116/1/3 115/1/3
f 119/3/3 115/3/3 41/3/3
f 120/3/3 117/3/3 116/3/3
f 120/1/3 116/1/3 119/1/3
f 121/1/3 118/1/3 117/1/3
f 121/3/3 117/3/3 120/3/3
f 122/3/3 42/3/3 118/3/3
f 122/1/3 118/1/3 121/1/3
f 123/1/3 121/1/3 120/1/3
f 123/3/3 120/3/3 119/3/3
f 124/3/3 122/3/3 121/3/3
f 124/1/3 121/1/3 123/1/3
f 125/3/3 124/3/3 123/3/3
f 125/3/3 122/3/3 124/3/3
f 126/3/3 42/3/3 122/3/3
f 126/3/3 122/3/3 125/3/3
f 127/3/3 125/3/3 123/3/3
f 127/3/3 123/3/3 119/3/3
f 127/3/3 119/3/3 41/3/3
f 128/1/3 126/1/3 125/1/3
f 128/3/3 125/3/3 127/3/3
f 129/3/3 127/3/3 41/3/3
f 129/1/3 128/1/3 127/1/3
f 130/1/3 126/1/3 128/1/3
f 130/1/3 128/1/3 129/1/3
f 131/3/3 130/3/3 129/3/3
f 131/1/3 126/1/3 130/1/3
f 132/3/3 42/3/3 126/3/3
f 132/1/3 126/1/3 131/1/3
f 133/3/3 131/3/3 129/3/3
f 133/3/3 129/3/3 41/3/3
f 133/3/3 132/3/3 131/3/3
f 134/3/3 42/3/3 132/3/3
f 134/3/3 132/3/3 133/3/3
f 135/3/4 136/3/4 137/3/4
f 137/3/4 136/3/4 138/3/4
f 138/3/4 136/3/4 139/3/4
f 139/3/4 136/3/4 140/3/4
f 138/3/4 139/3/4 141/3/4
f 139/1/4 140/1/4 142/1/4
f 141/3/4 139/3/4 142/3/4
f 140/3/4 136/3/4 143/3/4
f 142/1/4 140/1/4 143/1/4
f 143/3/4 136/3/4 144/3/4
f 135/3/4 137/3/4 145/3/4
f 137/1/4 138/1/4 145/1/4
f 138/3/4 141/3/4 146/3/4
f 145/1/4 138/1/4 146/1/4
f 141/1/4 142/1/4 147/1/4
f 146/3/4 141/3/4 147/3/4
f 142/3/4 143/3/4 148/3/4
f 147/1/4 142/1/4 148/1/4
f 145/3/4 146/3/4 149/3/4
f 146/1/4 147/1/4 149/1/4
f 147/3/4 148/3/4 150/3/4
f 149/1/4 147/1/4 150/1/4
f 143/1/4 144/1/4 151/1/4
f 150/3/4 148/3/4 151/3/4
f 148/3/4 143/3/4 151/3/4
f 144/3/4 136/3/4 152/3/4
f 151/1/4 144/1/4 152/1/4
f 150/3/4 151/3/4 153/3/4
f 149/3/4 150/3/4 153/3/4
f 151/3/4 152/3/4 153/3/4
f 135/3/4 145/3/4 153/3/4
f 145/3/4 149/3/4 153/3/4
f 152/3/4 136/3/4 154/3/4
f 153/3/4 152/3/4 154/3/4
f 135/3/4 153/3/4 155/3/4
f 153/1/4 154/1/4 155/1/4
f 155/1/4 154/1/4 156/1/4
f 156/1/4 154/1/4 157/1/4
f 154/3/4 136/3/4 158/3/4
f 157/1/4 154/1/4 158/1/4
f 159/3/4 160/3/4 162/3/4
f 162/3/4 160/3/4 163/3/4
f 163/3/4 160/3/4 164/3/4
f 164/3/4 160/3/4 165/3/4
f 135/3/4 155/3/4 167/3/4
f 155/3/4 156/3/4 167/3/4
f 156/1/4 157/1/4 168/1/4
f 167/3/4 156/3/4 168/3/4
f 157/3/4 158/3/4 169/3/4
f 168/1/4 157/1/4 169/1/4
f 158/3/4 136/3/4 170/3/4
f 169/3/4 158/3/4 170/3/4
f 161/3/4 162/3/4 171/3/4
f 162/2/4 163/2/4 172/2/4
f 171/3/4 162/3/4 172/3/4
f 165/3/4 166/3/4 173/3/4
f 164/1/4 165/1/4 173/1/4
f 173/3/4 166/3/4 174/3/4
f 135/3/4 167/3/4 176/3/4
f 167/1/4 168/1/4 176/1/4
f 168/1/4 169/1/4 176/1/4
f 169/1/4 170/1/4 176/1/4
f 170/3/4 136/3/4 177/3/4
f 176/1/4 170/1/4 177/1/4
f 176/3/4 177/3/4 178/3/4
f 178/3/4 177/3/4 179/3/4
f 173/1/4 174/1/4 180/1/4
f 164/1/4 173/1/4 180/1/4
f 163/3/4 164/3/4 180/3/4
f 174/3/4 175/3/4 181/3/4
f 180/1/4 174/1/4 181/1/4
f 135/3/4 176/3/4 182/3/4
f 176/3/4 178/3/4 182/3/4
f 178/1/4 179/1/4 183/1/4
f 182/3/4 178/3/4 183/3/4
f 179/3/4 177/3/4 184/3/4
f 183/1/4 179/1/4 184/1/4
f 177/3/4 136/3/4 185/3/4
f 184/3/4 177/3/4 185/3/4
f 163/3/4 180/3/4 186/3/4
f 180/3/4 181/3/4 186/3/4
f 181/3/4 175/3/4 187/3/4
f 186/3/4 181/3/4 187/3/4
f 182/1/4 183/1/4 188/1/4
f 135/3/4 182/3/4 188/3/4
f 183/3/4 184/3/4 189/3/4
f 188/1/4 183/1/4 189/1/4
f 184/1/4 185/1/4 190/1/4
f 189/3/4 184/3/4 190/3/4
f 185/3/4 136/3/4 191/3/4
f 190/1/4 185/1/4 191/1/4
f 171/2/4 172/2/4 192/2/4
f 161/3/4 171/3/4 192/3/4
f 172/2/4 163/2/4 193/2/4
f 192/2/4 172/2/4 193/2/4
f 186/2/4 187/2/4 194/2/4
f 187/3/4 175/3/4 195/3/4
f 194/2/4 187/2/4 195/2/4
f 195/3/4 175/3/4 196/3/4
f 189/1/4 190/1/4 197/1/4
f 188/3/4 189/3/4 197/3/4
f 190/3/4 191/3/4 198/3/4
f 197/1/4 190/1/4 198/1/4
f 161/3/4 192/3/4 199/3/4
f 192/3/4 193/3/4 199/3/4
f 193/2/4 163/2/4 200/2/4
f 199/3/4 193/3/4 200/3/4
f 163/3/4 186/3/4 201/3/4
f 200/2/4 163/2/4 201/2/4
f 186/2/4 194/2/4 202/2/4
f 201/3/4 186/3/4 202/3/4
f 194/3/4 195/3/4 203/3/4
f 202/2/4 194/2/4 203/2/4
f 203/3/4 195/3/4 204/3/4
f 197/3/4 198/3/4 205/3/4
f 188/3/4 197/3/4 205/3/4
f 198/3/4 191/3/4 206/3/4
f 205/3/4 198/3/4 206/3/4
f 200/3/4 201/3/4 207/3/4
f 202/3/4 203/3/4 207/3/4
f 201/3/4 202/3/4 207/3/4
f 207/3/4 203/3/4 208/3/4
f 188/3/4 205/3/4 209/3/4
f 135/3/4 188/3/4 209/3/4
f 205/1/4 206/1/4 210/1/4
f 209/3/4 205/3/4 210/3/4
f 206/3/4 191/3/4 211/3/4
f 210/1/4 206/1/4 211/1/4
f 191/3/4 136/3/4 212/3/4
f 211/3/4 191/3/4 212/3/4
f 209/1/4 210/1/4 213/1/4
f 135/3/4 209/3/4 213/3/4
f 210/3/4 211/3/4 214/3/4
f 213/1/4 210/1/4 214/1/4
f 211/1/4 212/1/4 215/1/4
f 214/3/4 211/3/4 215/3/4
f 212/3/4 136/3/4 216/3/4
f 215/1/4 212/1/4 216/1/4
f 214/1/4 215/1/4 217/1/4
f 213/3/4 214/3/4 217/3/4
f 215/3/4 216/3/4 218/3/4
f 217/1/4 215/1/4 218/1/4
f 217/3/4 218/3/4 219/3/4
f 218/3/4 216/3/4 219/3/4
f 216/3/4 136/3/4 220/3/4
f 219/3/4 216/3/4 220/3/4
f 217/3/4 219/3/4 221/3/4
f 213/3/4 217/3/4 221/3/4
f 135/3/4 213/3/4 221/3/4
f 219/1/4 220/1/4 222/1/4
f 221/3/4 219/3/4 222/3/4
f 135/3/4 221/3/4 223/3/4
f 221/1/4 222/1/4 223/1/4
f 222/1/4 220/1/4 224/1/4
f 223/1/4 222/1/4 224/1/4
f 223/3/4 224/3/4 225/3/4
f 224/1/4 220/1/4 225/1/4
f 220/3/4 136/3/4 226/3/4
f 225/1/4 220/1/4 226/1/4
f 223/3/4 225/3/4 227/3/4
f 135/3/4 223/3/4 227/3/4
f 225/3/4 226/3/4 227/3/4
f 226/3/4 136/3/4 228/3/4
f 227/3/4 226/3/4 228/3/4
f 231/3/5 230/3/5 229/3/5
f 232/3/5 230/3/5 231/3/5
f 237/3/5 234/3/5 233/3/5
f 238/3/5 234/3/5 237/3/5
f 239/3/5 236/3/5 235/3/5
f 240/3/5 236/3/5 239/3/5
f 243/3/5 242/3/5 241/3/5
f 244/3/5 242/3/5 243/3/5
f 245/3/6 246/3/6 249/3/6
f 249/3/6 246/3/6 250/3/6
f 247/3/6 248/3/6 251/3/6
f 251/3/6 248/3/6 252/3/6
f 253/3/6 254/3/6 257/3/6
f 257/3/6 254/3/6 258/3/6
f 255/3/6 256/3/6 259/3/6
f 259/3/6 256/3/6 260/3/6
f 261/3/6 262/3/6 263/3/6
f 263/3/6 262/3/6 264/3/6
f 265/3/6 266/3/6 267/3/6
f 267/3/6 266/3/6 268/3/6
